<svg width="16" height="16" viewBox="0 0 16 16" fill="none" xmlns="http://www.w3.org/2000/svg">
    <g clip-path="url(#clip0_4289_9240)">
        <path fill-rule="evenodd" clip-rule="evenodd"
            d="M16 8C16 12.4183 12.4183 16 8 16C3.58172 16 0 12.4183 0 8C0 3.58172 3.58172 0 8 0C12.4183 0 16 3.58172 16 8ZM7.74486 3H6.79795V4.48604V5.97209L5 6.64525V7.44543C5.03996 7.43696 5.0859 7.42426 5.13784 7.40733L5.21575 7.38192L6.16267 7.01359C6.20263 7.00512 6.29652 6.97125 6.44435 6.91198C6.59218 6.85271 6.71005 6.8019 6.79795 6.75956V7.20411L5 7.88997V8.69015L6.64213 8.06779L6.79795 8.00428V10.4937V12.9705C7.53311 13.0551 8.24429 12.9578 8.93151 12.6783C9.4589 12.4666 9.93436 12.1618 10.3579 11.7638C10.8134 11.3574 11.1729 10.8748 11.4366 10.3159C11.8122 9.5877 12 8.81293 12 7.99158H11.0411C11.0411 8.35569 10.9971 8.71979 10.9092 9.08389C10.7015 9.87983 10.29 10.5445 9.67466 11.078C9.1153 11.5691 8.47203 11.8612 7.74486 11.9544V11.9417V11.929V9.7888V7.64865C7.76884 7.63171 7.79681 7.61478 7.82877 7.59785L10.5976 6.54364C10.6136 6.54364 10.6216 6.52671 10.6216 6.49284V6.11815V5.73077L9.30308 6.25151L7.74486 6.83577V6.61985V6.40393L10.6216 5.29892V4.49875L7.74486 5.60375V4.30823V3Z"
            fill="white" />
    </g>
    <defs>
        <clipPath id="clip0_4289_9240">
            <rect width="16" height="16" fill="white" />
        </clipPath>
    </defs>
</svg>
