<svg width="25" height="25" viewBox="0 0 25 25" fill="none" xmlns="http://www.w3.org/2000/svg">
<g clip-path="url(#clip0_353_2765)">
<path d="M12.1875 24.9373C18.8149 24.9373 24.1875 19.5647 24.1875 12.9373C24.1875 6.30984 18.8149 0.937256 12.1875 0.937256C5.56008 0.937256 0.1875 6.30984 0.1875 12.9373C0.1875 19.5647 5.56008 24.9373 12.1875 24.9373Z" fill="#F0F0F0"/>
<path d="M24.1875 12.9374C24.1875 7.77787 20.931 3.37935 16.3614 1.68384V24.1911C20.931 22.4955 24.1875 18.097 24.1875 12.9374Z" fill="#D80027"/>
<path d="M0.1875 12.9374C0.1875 18.097 3.44405 22.4955 8.01361 24.1911V1.68384C3.44405 3.37935 0.1875 7.77787 0.1875 12.9374Z" fill="#0052B4"/>
</g>
<defs>
<clipPath id="clip0_353_2765">
<rect width="24" height="24" fill="white" transform="translate(0.1875 0.9375)"/>
</clipPath>
</defs>
</svg>
