<svg width="25" height="25" viewBox="0 0 25 25" fill="none" xmlns="http://www.w3.org/2000/svg">
<g clip-path="url(#clip0_353_3042)">
<path d="M24.1911 17.1114C24.6735 15.8114 24.9375 14.4053 24.9375 12.9375C24.9375 11.4696 24.6735 10.0636 24.1911 8.76358L12.9375 7.72009L1.68389 8.76358C1.20155 10.0636 0.9375 11.4696 0.9375 12.9375C0.9375 14.4053 1.20155 15.8114 1.68389 17.1114L12.9375 18.1548L24.1911 17.1114Z" fill="#F0F0F0"/>
<path d="M12.9375 24.9376C18.097 24.9376 22.4956 21.6811 24.1911 17.1115H1.68384C3.3794 21.6811 7.77787 24.9376 12.9375 24.9376Z" fill="#D80027"/>
<path d="M12.9375 0.9375C7.77787 0.9375 3.3794 4.194 1.68384 8.76361H24.1911C22.4956 4.194 18.097 0.9375 12.9375 0.9375Z" fill="#6DA544"/>
<path d="M4.45218 4.45227C-0.234101 9.13855 -0.234101 16.7366 4.45218 21.4229C5.67538 20.1997 6.86929 19.0058 8.76355 17.1115V8.76369L4.45218 4.45227Z" fill="black"/>
</g>
<defs>
<clipPath id="clip0_353_3042">
<rect width="24" height="24" fill="white" transform="translate(0.9375 0.9375)"/>
</clipPath>
</defs>
</svg>
