<svg width="25" height="25" viewBox="0 0 25 25" fill="none" xmlns="http://www.w3.org/2000/svg">
<g clip-path="url(#clip0_353_3321)">
<path d="M12.937 24.1873C19.5644 24.1873 24.937 18.8147 24.937 12.1873C24.937 5.55984 19.5644 0.187256 12.937 0.187256C6.30953 0.187256 0.936951 5.55984 0.936951 12.1873C0.936951 18.8147 6.30953 24.1873 12.937 24.1873Z" fill="#F0F0F0"/>
<path d="M12.937 0.187439C7.77738 0.187439 3.37887 3.44394 1.68335 8.01355H24.1906C22.4951 3.44394 18.0965 0.187439 12.937 0.187439Z" fill="#A2001D"/>
<path d="M12.937 24.1874C18.0965 24.1874 22.4951 20.9309 24.1906 16.3613H1.68335C3.37887 20.9309 7.77738 24.1874 12.937 24.1874Z" fill="#0052B4"/>
</g>
<defs>
<clipPath id="clip0_353_3321">
<rect width="24" height="24" fill="white" transform="translate(0.936951 0.1875)"/>
</clipPath>
</defs>
</svg>
