<svg width="25" height="25" viewBox="0 0 25 25" fill="none" xmlns="http://www.w3.org/2000/svg">
<g clip-path="url(#clip0_353_3512)">
<path d="M12.8594 24.6873C19.4868 24.6873 24.8594 19.3147 24.8594 12.6873C24.8594 6.05984 19.4868 0.687256 12.8594 0.687256C6.23196 0.687256 0.859375 6.05984 0.859375 12.6873C0.859375 19.3147 6.23196 24.6873 12.8594 24.6873Z" fill="#F0F0F0"/>
<path d="M24.8594 12.6874C24.8594 6.06006 19.4868 0.687439 12.8594 0.687439C10.5119 0.687439 8.32218 1.3622 6.47258 2.52733L9.10288 3.64488L5.55505 5.15228L9.10288 6.65964L5.55505 8.16695L9.10288 9.67422L5.55505 11.1813L9.10288 12.6883L5.55505 14.1956L9.10288 15.7028L5.55505 17.2099L9.10288 18.7171L5.55505 20.2244L9.10288 21.7315L6.47376 22.8484C8.32312 24.013 10.5124 24.6874 12.8594 24.6874C19.4868 24.6874 24.8594 19.3148 24.8594 12.6874Z" fill="#751A46"/>
</g>
<defs>
<clipPath id="clip0_353_3512">
<rect width="24" height="24" fill="white" transform="translate(0.859375 0.6875)"/>
</clipPath>
</defs>
</svg>
