<svg width="25" height="25" viewBox="0 0 25 25" fill="none" xmlns="http://www.w3.org/2000/svg">
<g clip-path="url(#clip0_353_3605)">
<path d="M12.9375 24.1873C19.5649 24.1873 24.9375 18.8147 24.9375 12.1873C24.9375 5.55984 19.5649 0.187256 12.9375 0.187256C6.31008 0.187256 0.9375 5.55984 0.9375 12.1873C0.9375 18.8147 6.31008 24.1873 12.9375 24.1873Z" fill="#6DA544"/>
<path d="M7.72009 14.5353C7.72009 15.3997 8.42087 16.1005 9.2853 16.1005H13.981C13.981 16.8209 14.5649 17.4048 15.2853 17.4048H16.8505C17.5709 17.4048 18.1548 16.8209 18.1548 16.1005V14.5353H7.72009Z" fill="#F0F0F0"/>
<path d="M18.2852 6.97009V10.6223C18.2852 11.1977 17.8172 11.6657 17.2418 11.6657V13.231C18.6802 13.231 19.8504 12.0607 19.8504 10.6223V6.97009H18.2852Z" fill="#F0F0F0"/>
<path d="M7.0679 10.6224C7.0679 11.1978 6.5998 11.6659 6.02441 11.6659V13.2311C7.46287 13.2311 8.6331 12.0609 8.6331 10.6224V6.97028H7.0679V10.6224Z" fill="#F0F0F0"/>
<path d="M15.9374 6.97009H17.5026V10.6223H15.9374V6.97009Z" fill="#F0F0F0"/>
<path d="M13.5896 9.057C13.5896 9.20086 13.4726 9.31786 13.3287 9.31786C13.1849 9.31786 13.0679 9.20081 13.0679 9.057V6.97003H11.5027V9.057C11.5027 9.20086 11.3856 9.31786 11.2418 9.31786C11.098 9.31786 10.981 9.20081 10.981 9.057V6.97003H9.41571V9.057C9.41571 10.0639 10.2349 10.8831 11.2418 10.8831C11.6296 10.8831 11.9892 10.7612 12.2853 10.5542C12.5813 10.7612 12.941 10.8831 13.3288 10.8831C13.4069 10.8831 13.4837 10.8776 13.5592 10.868C13.4483 11.325 13.0367 11.6657 12.5462 11.6657V13.2309C13.9846 13.2309 15.1549 12.0606 15.1549 10.6222V9.057V6.97003H13.5896V9.057H13.5896Z" fill="#F0F0F0"/>
<path d="M9.41571 11.6657H11.7635V13.2309H9.41571V11.6657Z" fill="#F0F0F0"/>
</g>
<defs>
<clipPath id="clip0_353_3605">
<rect width="24" height="24" fill="white" transform="translate(0.9375 0.1875)"/>
</clipPath>
</defs>
</svg>
