<svg width="25" height="25" viewBox="0 0 25 25" fill="none" xmlns="http://www.w3.org/2000/svg">
<g clip-path="url(#clip0_353_4002)">
<path d="M12.4375 24.1873C19.0649 24.1873 24.4375 18.8147 24.4375 12.1873C24.4375 5.55984 19.0649 0.187256 12.4375 0.187256C5.81008 0.187256 0.4375 5.55984 0.4375 12.1873C0.4375 18.8147 5.81008 24.1873 12.4375 24.1873Z" fill="#F0F0F0"/>
<path d="M2.918 4.88171C1.97539 6.1081 1.26463 7.52162 0.850769 9.0572H7.09349L2.918 4.88171Z" fill="#0052B4"/>
<path d="M24.024 9.05727C23.6101 7.52174 22.8993 6.10823 21.9568 4.88184L17.7814 9.05727H24.024Z" fill="#0052B4"/>
<path d="M0.850769 15.3181C1.26468 16.8536 1.97544 18.2672 2.918 19.4935L7.09335 15.3181H0.850769Z" fill="#0052B4"/>
<path d="M19.7432 2.66823C18.5168 1.72562 17.1033 1.01486 15.5677 0.600952V6.84362L19.7432 2.66823Z" fill="#0052B4"/>
<path d="M5.13147 21.7068C6.35786 22.6494 7.77138 23.3602 9.30691 23.7741V17.5315L5.13147 21.7068Z" fill="#0052B4"/>
<path d="M9.30686 0.600952C7.77133 1.01486 6.35781 1.72562 5.13147 2.66819L9.30686 6.84358V0.600952Z" fill="#0052B4"/>
<path d="M15.5679 23.7741C17.1034 23.3602 18.5169 22.6494 19.7433 21.7069L15.5679 17.5315V23.7741Z" fill="#0052B4"/>
<path d="M17.7814 15.3181L21.9568 19.4936C22.8993 18.2672 23.6101 16.8536 24.024 15.3181H17.7814Z" fill="#0052B4"/>
<path d="M24.3359 10.6221H14.0028H14.0028V0.288834C13.4904 0.222131 12.968 0.187256 12.4375 0.187256C11.9069 0.187256 11.3846 0.222131 10.8723 0.288834V10.622V10.622H0.539078C0.472375 11.1344 0.4375 11.6568 0.4375 12.1873C0.4375 12.7178 0.472375 13.2401 0.539078 13.7525H10.8722H10.8722V24.0857C11.3846 24.1524 11.9069 24.1873 12.4375 24.1873C12.968 24.1873 13.4904 24.1524 14.0027 24.0857V13.7526V13.7525H24.3359C24.4026 13.2401 24.4375 12.7178 24.4375 12.1873C24.4375 11.6568 24.4026 11.1344 24.3359 10.6221Z" fill="#D80027"/>
<path d="M15.568 15.3179L20.9228 20.6727C21.1691 20.4265 21.404 20.1692 21.6282 19.9023L17.0437 15.3179H15.568V15.3179Z" fill="#D80027"/>
<path d="M9.30707 15.3179H9.30697L3.95221 20.6726C4.1984 20.9189 4.45579 21.1539 4.7226 21.378L9.30707 16.7934V15.3179Z" fill="#D80027"/>
<path d="M9.30707 9.0571V9.05701L3.95226 3.70215C3.70598 3.94834 3.47104 4.20573 3.24689 4.47254L7.8314 9.05705H9.30707V9.0571Z" fill="#D80027"/>
<path d="M15.568 9.05706L20.9229 3.70215C20.6767 3.45587 20.4193 3.22094 20.1525 2.99683L15.568 7.58134V9.05706Z" fill="#D80027"/>
</g>
<defs>
<clipPath id="clip0_353_4002">
<rect width="24" height="24" fill="white" transform="translate(0.4375 0.1875)"/>
</clipPath>
</defs>
</svg>
