<svg width="55" height="28" viewBox="0 0 55 28" fill="none" xmlns="http://www.w3.org/2000/svg">
<path d="M13.2291 7.09376C12.7081 7.72232 11.8743 8.21826 11.0406 8.14735C10.9364 7.29746 11.3445 6.39428 11.8222 5.83646C12.3432 5.19019 13.2552 4.72975 13.9934 4.69434C14.0802 5.57972 13.7414 6.4474 13.2291 7.09376ZM13.9847 8.31564C12.7775 8.24482 11.7441 9.01503 11.1709 9.01503C10.5891 9.01503 9.71185 8.35105 8.75657 8.36876C7.51474 8.38647 6.35965 9.10356 5.72566 10.2458C4.42296 12.5301 5.38701 15.9124 6.64621 17.7717C7.26283 18.6925 8.00101 19.7018 8.97366 19.6664C9.89429 19.631 10.259 19.0555 11.3707 19.0555C12.4909 19.0555 12.8123 19.6664 13.7849 19.6487C14.7923 19.631 15.4263 18.728 16.0429 17.8071C16.7463 16.7623 17.0329 15.7441 17.0503 15.691C17.0329 15.6733 15.105 14.9208 15.0877 12.654C15.0703 10.7593 16.6074 9.85624 16.6769 9.80312C15.8084 8.4927 14.4537 8.35105 13.9847 8.31564ZM20.9584 5.74793V19.5514H23.06V14.8322H25.9694C28.6268 14.8322 30.494 12.9729 30.494 10.2813C30.494 7.5897 28.6615 5.74802 26.0388 5.74802H20.9583L20.9584 5.74793ZM23.06 7.5542H25.483C27.3068 7.5542 28.3489 8.54582 28.3489 10.29C28.3489 12.0342 27.3068 13.0348 25.4743 13.0348H23.06V7.5542ZM34.3326 19.6575C35.6526 19.6575 36.8771 18.9759 37.4329 17.8956H37.4763V19.5513H39.4217V12.6806C39.4217 10.6885 37.8585 9.40465 35.4528 9.40465C33.2209 9.40465 31.5708 10.7062 31.5101 12.4947H33.4033C33.5596 11.6447 34.3325 11.0869 35.392 11.0869C36.6774 11.0869 37.3982 11.6978 37.3982 12.8223V13.5837L34.7754 13.743C32.3351 13.8935 31.0151 14.9118 31.0151 16.6827C31.0151 18.4711 32.3785 19.6575 34.3326 19.6575ZM34.897 18.0196C33.7768 18.0196 33.0646 17.4707 33.0646 16.6295C33.0646 15.7619 33.7507 15.2572 35.0621 15.1775L37.3982 15.027V15.8061C37.3982 17.0988 36.3214 18.0196 34.8971 18.0196H34.897ZM42.0184 23.3054C44.0679 23.3054 45.0319 22.5086 45.8743 20.0914L49.5652 9.53744H47.4288L44.9538 17.6919H44.9103L42.4353 9.53744H40.2381L43.7987 19.5867L43.6076 20.1977C43.2863 21.2335 42.7652 21.632 41.836 21.632C41.671 21.632 41.3497 21.6143 41.2194 21.5966V23.2523C41.341 23.2877 41.862 23.3054 42.0184 23.3054Z" fill="white"/>
</svg>
