<svg width="25" height="24" viewBox="0 0 25 24" fill="none" xmlns="http://www.w3.org/2000/svg">
<path d="M12.5 24C10.84 24 9.28 23.6848 7.82 23.0544C6.36 22.4248 5.09 21.57 4.01 20.49C2.93 19.41 2.0752 18.14 1.4456 16.68C0.8152 15.22 0.5 13.66 0.5 12C0.5 10.34 0.8152 8.78 1.4456 7.32C2.0752 5.86 2.93 4.59 4.01 3.51C5.09 2.43 6.36 1.5748 7.82 0.9444C9.28 0.3148 10.84 0 12.5 0C14.16 0 15.72 0.3148 17.18 0.9444C18.64 1.5748 19.91 2.43 20.99 3.51C22.07 4.59 22.9248 5.86 23.5544 7.32C24.1848 8.78 24.5 10.34 24.5 12C24.5 13.66 24.1848 15.22 23.5544 16.68C22.9248 18.14 22.07 19.41 20.99 20.49C19.91 21.57 18.64 22.4248 17.18 23.0544C15.72 23.6848 14.16 24 12.5 24Z" fill="#349F6B"/>
<path d="M10.0248 16.5748H7.9248V14.4748L13.3748 9.02481L15.4748 11.1248L10.0248 16.5748Z" fill="white"/>
<path d="M16.7748 9.82481L16.0748 10.5248L13.9748 8.42481L14.6748 7.72481C14.8748 7.52481 15.1081 7.4248 15.3748 7.4248C15.6415 7.4248 15.8748 7.52481 16.0748 7.72481L16.7748 8.42481C16.9748 8.62481 17.0748 8.85814 17.0748 9.12481C17.0748 9.39147 16.9748 9.62481 16.7748 9.82481Z" fill="white"/>
</svg>
