<svg width="90" height="88" viewBox="0 0 90 88" fill="none" xmlns="http://www.w3.org/2000/svg">
<g clip-path="url(#clip0_2194_23469)">
<path d="M65.28 65.4047L61.9251 66.3037L55.9443 43.9832L49.8716 45.6104L55.5537 66.8162C56.4383 70.1178 59.8306 72.0762 63.1324 71.1915L66.6783 70.2413C69.9801 69.3566 71.9387 65.9645 71.054 62.6628L65.372 41.457L59.2992 43.0842L65.28 65.4047Z" fill="white" fill-opacity="0.2"/>
<path d="M82.7789 36.7914L77.6988 38.1526L71.6314 39.7784L66.9229 41.04L68.311 46.2207L73.0195 44.9591L78.9149 66.9611L84.9824 65.3353L79.087 43.3333L84.1671 41.9721L82.7789 36.7914Z" fill="white" fill-opacity="0.2"/>
<path d="M35.7312 54.0699L41.8471 76.8946L47.9198 75.2674L45.1563 64.9538L51.1707 63.3423L49.5293 57.2167L43.515 58.8283L42.0258 53.2707L50.2697 51.0618L48.8801 45.8758L38.9216 48.5441C36.5169 49.1885 35.0869 51.6653 35.7312 54.0699Z" fill="white" fill-opacity="0.2"/>
<path d="M73.4522 102.281C48.5393 108.957 22.8437 94.1182 16.1687 69.2066C9.49361 44.295 24.3287 18.6013 49.2416 11.9259C74.1545 5.25056 99.85 20.0889 106.524 44.996C113.198 69.9031 98.3651 95.6058 73.4522 102.281ZM51.5705 20.6175C31.4512 26.0085 19.4712 46.7638 24.8607 66.8776C30.2502 86.9913 51.004 98.9805 71.1233 93.5896C91.2426 88.1986 103.223 67.4433 97.8319 47.325C92.4412 27.2067 71.6898 15.2266 51.5705 20.6175Z" fill="white" fill-opacity="0.2"/>
</g>
<defs>
<clipPath id="clip0_2194_23469">
<rect width="99.7788" height="99.7788" fill="white" transform="translate(0.245117 21.8252) rotate(-15)"/>
</clipPath>
</defs>
</svg>
