<svg width="106" height="91" viewBox="0 0 106 91" fill="none" xmlns="http://www.w3.org/2000/svg">
<path d="M17.5 24.2083V11.6667C17.5 5.25 22.75 0 29.1667 0H87.5C93.9167 0 99.1667 5.25 99.1667 11.6667V24.2667C92.4 26.6583 87.5 33.075 87.5 40.6583V52.5H29.1667V40.6C29.1667 33.075 24.2667 26.6 17.5 24.2083ZM105 29.1667C98.5833 29.1667 93.3333 34.4167 93.3333 40.8333V58.3333H23.3333V40.8333C23.3333 37.7391 22.1042 34.7717 19.9162 32.5838C17.7283 30.3958 14.7609 29.1667 11.6667 29.1667C8.57247 29.1667 5.60501 30.3958 3.41709 32.5838C1.22916 34.7717 0 37.7391 0 40.8333V70C0 76.4167 5.25 81.6667 11.6667 81.6667V93.3333H23.3333V81.6667H93.3333V93.3333H105V81.6667C111.417 81.6667 116.667 76.4167 116.667 70V40.8333C116.667 34.4167 111.417 29.1667 105 29.1667Z" fill="white" fill-opacity="0.05"/>
</svg>
