<svg width="32" height="33" viewBox="0 0 32 33" fill="none" xmlns="http://www.w3.org/2000/svg">
<path d="M16 32.5C13.7867 32.5 11.7067 32.0797 9.76 31.2392C7.81333 30.3997 6.12 29.26 4.68 27.82C3.24 26.38 2.10027 24.6867 1.2608 22.74C0.420267 20.7933 0 18.7133 0 16.5C0 14.2867 0.420267 12.2067 1.2608 10.26C2.10027 8.31333 3.24 6.62 4.68 5.18C6.12 3.74 7.81333 2.59973 9.76 1.7592C11.7067 0.919733 13.7867 0.5 16 0.5C18.2133 0.5 20.2933 0.919733 22.24 1.7592C24.1867 2.59973 25.88 3.74 27.32 5.18C28.76 6.62 29.8997 8.31333 30.7392 10.26C31.5797 12.2067 32 14.2867 32 16.5C32 18.7133 31.5797 20.7933 30.7392 22.74C29.8997 24.6867 28.76 26.38 27.32 27.82C25.88 29.26 24.1867 30.3997 22.24 31.2392C20.2933 32.0797 18.2133 32.5 16 32.5Z" fill="white" fill-opacity="0.1"/>
<path d="M12.6999 22.5999H9.8999V19.7999L17.1666 12.5332L19.9666 15.3332L12.6999 22.5999Z" fill="white"/>
<path d="M21.6999 13.5999L20.7666 14.5332L17.9666 11.7332L18.8999 10.7999C19.1666 10.5332 19.4777 10.3999 19.8332 10.3999C20.1888 10.3999 20.4999 10.5332 20.7666 10.7999L21.6999 11.7332C21.9666 11.9999 22.0999 12.311 22.0999 12.6666C22.0999 13.0221 21.9666 13.3332 21.6999 13.5999Z" fill="white"/>
</svg>
