<svg width="95" height="44" viewBox="0 0 95 44" fill="none" xmlns="http://www.w3.org/2000/svg">
<path id="Ellipse 48" d="M93.7422 11.4754C94.248 13.6279 93.6301 16.0507 91.8487 18.6565C90.0668 21.2628 87.1786 23.9587 83.3543 26.5726C75.7114 31.7965 64.5092 36.5709 51.5601 39.6135C38.611 42.6561 26.4548 43.3701 17.2852 42.0966C12.6969 41.4593 8.91038 40.3317 6.15425 38.7917C3.39875 37.2519 1.76657 35.3578 1.2608 33.2053C0.755037 31.0527 1.37288 28.6299 3.15434 26.0242C4.93621 23.4178 7.82437 20.7219 11.6487 18.108C19.2916 12.8841 30.4938 8.10978 43.4429 5.06719C56.3921 2.0246 68.5482 1.31054 77.7178 2.58409C82.3061 3.22135 86.0926 4.34893 88.8488 5.889C91.6043 7.42871 93.2365 9.32287 93.7422 11.4754Z" stroke="url(#paint0_linear_474_5692)" stroke-width="2"/>
<defs>
<linearGradient id="paint0_linear_474_5692" x1="90.4284" y1="-6.99998" x2="-2.96075" y2="34.8755" gradientUnits="userSpaceOnUse">
<stop stop-color="#A82DF9"/>
<stop offset="1" stop-color="#6678E9"/>
</linearGradient>
</defs>
</svg>
