<svg width="32" height="32" viewBox="0 0 32 32" fill="none" xmlns="http://www.w3.org/2000/svg">
<path d="M27.5056 6.46094H4.50152C4.28461 6.46119 4.07667 6.54749 3.92333 6.70089C3.76998 6.8543 3.68377 7.06227 3.6836 7.27918V8.92525C3.6836 9.00109 3.76584 9.08813 3.83304 9.12333L15.9245 16.0299C15.9555 16.0476 15.9906 16.0567 16.0263 16.0564C16.0628 16.0565 16.0986 16.0468 16.13 16.0283L27.856 9.13005C27.922 9.09325 28.0967 8.99597 28.1623 8.95117C28.2416 8.89709 28.3235 8.84813 28.3235 8.75117V7.27886C28.3233 7.06201 28.237 6.85412 28.0837 6.70078C27.9304 6.54745 27.7225 6.46119 27.5056 6.46094ZM28.2215 11.4072C28.19 11.3892 28.1543 11.3799 28.1181 11.3801C28.0819 11.3803 28.0463 11.3901 28.0151 11.4084L21.3792 15.3128C21.3528 15.3282 21.3302 15.3493 21.313 15.3747C21.2959 15.4 21.2847 15.4289 21.2802 15.4592C21.2757 15.4895 21.2782 15.5204 21.2873 15.5496C21.2964 15.5788 21.312 15.6056 21.3328 15.628L27.9696 22.7822C27.9886 22.8028 28.0117 22.8193 28.0375 22.8306C28.0632 22.8418 28.091 22.8476 28.1191 22.8475C28.1733 22.8474 28.2252 22.8258 28.2636 22.7875C28.3019 22.7492 28.3235 22.6972 28.3235 22.643V11.5848C28.3237 11.5488 28.3143 11.5134 28.2964 11.4822C28.2785 11.4511 28.2526 11.4252 28.2215 11.4072ZM19.4669 16.6238C19.4354 16.5895 19.3931 16.567 19.347 16.5602C19.301 16.5533 19.254 16.5624 19.2138 16.586L16.554 18.1512C16.3981 18.2412 16.2216 18.2892 16.0416 18.2903C15.8616 18.2915 15.6844 18.2459 15.5274 18.1579L13.1866 16.8206C13.1488 16.7991 13.1052 16.7901 13.062 16.7951C13.0188 16.8 12.9782 16.8186 12.9463 16.8481L4.05736 25.0932C4.03405 25.115 4.01616 25.1419 4.00511 25.1719C3.99405 25.2018 3.99014 25.2339 3.99368 25.2656C3.99723 25.2973 4.00813 25.3277 4.02552 25.3545C4.0429 25.3812 4.0663 25.4035 4.09384 25.4196C4.23208 25.5009 4.36552 25.5396 4.5012 25.5396H27.2701C27.31 25.5397 27.3489 25.5281 27.3822 25.5062C27.4155 25.4843 27.4416 25.4531 27.4573 25.4164C27.4733 25.38 27.4782 25.3397 27.4715 25.3005C27.4648 25.2613 27.4467 25.225 27.4196 25.1959L19.4669 16.6238ZM10.9905 15.8728C11.014 15.851 11.0321 15.824 11.0433 15.7939C11.0545 15.7639 11.0584 15.7316 11.0549 15.6998C11.0513 15.6679 11.0402 15.6373 11.0227 15.6105C11.0051 15.5837 10.9815 15.5614 10.9537 15.5454L3.98856 11.5672C3.95747 11.5495 3.9223 11.5403 3.88656 11.5406C3.85081 11.5408 3.81575 11.5504 3.78487 11.5684C3.754 11.5864 3.7284 11.6122 3.71062 11.6432C3.69285 11.6742 3.68353 11.7093 3.6836 11.7451V22.1835C3.68337 22.2233 3.69484 22.2624 3.71659 22.2958C3.73833 22.3292 3.7694 22.3555 3.80594 22.3715C3.84248 22.3874 3.8829 22.3923 3.92218 22.3855C3.96146 22.3787 3.99789 22.3605 4.02696 22.3332L10.9905 15.8728Z" fill="white"/>
</svg>
