<svg width="24" height="24" viewBox="0 0 24 24" fill="none" xmlns="http://www.w3.org/2000/svg">
<g id="Fut coin">
<g id="Vector">
<path d="M5.28889 13.7167L8.06922 8.91779H9.47602L6.6981 13.7167H8.7167L11.5012 8.91585L12.1863 10.0452L9.44035 14.7832H5.93636L5.28889 13.7167Z" fill="white"/>
<path d="M13.3228 14.7856H11.9338L13.9751 11.255H15.3691L14.6607 10.0695H12.5647L13.2486 8.92002H18.4288L17.7352 10.0591H16.0622L15.3691 11.255L13.3228 14.7856Z" fill="white"/>
<path d="M11.8589 21.7057C6.42443 21.7057 2.00391 17.2844 2.00391 11.8502C2.00391 6.41603 6.42443 1.99573 11.8589 1.99573C17.2934 1.99573 21.7139 6.41702 21.7139 11.8502C21.7139 17.2834 17.2934 21.7057 11.8589 21.7057ZM11.8589 3.8917C7.4701 3.8917 3.89998 7.46263 3.89998 11.8502C3.89998 16.2378 7.4701 19.8098 11.8589 19.8098C16.2477 19.8098 19.8178 16.2388 19.8178 11.8502C19.8178 7.46164 16.2477 3.8917 11.8589 3.8917Z" fill="white"/>
</g>
</g>
</svg>
