<svg width="52" height="27" viewBox="0 0 52 27" fill="none" xmlns="http://www.w3.org/2000/svg">
<path d="M24.3588 15.0304V20.6351H22.6128V6.79602H27.2398C28.4118 6.79602 29.4116 7.19366 30.2304 7.99039C31.0664 8.78858 31.4837 9.76091 31.4837 10.9088C31.4837 12.0843 31.0664 13.0567 30.2304 13.8447C29.4215 14.6327 28.4218 15.0217 27.2398 15.0217H24.3573L24.3588 15.0304ZM24.3588 8.49978V13.3266H27.2754C27.9661 13.3266 28.5486 13.0857 29.0028 12.6126C29.4671 12.1409 29.7021 11.5677 29.7021 10.9175C29.7021 10.279 29.4671 9.71302 29.0043 9.24136C28.5486 8.75084 27.9761 8.50994 27.2754 8.50994H24.3588V8.49978ZM36.048 10.8537C37.3383 10.8537 38.3565 11.2049 39.1028 11.9087C39.8476 12.6141 40.2207 13.5777 40.2207 14.7996V20.6351H38.5573V19.3202H38.4847C37.7655 20.4043 36.8028 20.9413 35.6023 20.9413C34.5755 20.9413 33.721 20.6365 33.0303 20.0139C32.3396 19.3943 31.9935 18.6251 31.9935 17.6992C31.9935 16.7167 32.3567 15.9388 33.0844 15.3642C33.8107 14.7808 34.7848 14.4934 35.9939 14.4934C37.0292 14.4934 37.8837 14.6879 38.5473 15.0768V14.6705C38.5473 14.0493 38.3109 13.5298 37.8296 13.0944C37.3668 12.6684 36.7627 12.4371 36.1391 12.4472C35.1665 12.4472 34.3932 12.8637 33.8306 13.7068L32.2926 12.7243C33.1385 11.4734 34.3932 10.8522 36.048 10.8522V10.8537ZM33.7936 17.7268C33.7936 18.1897 33.9844 18.5787 34.3747 18.8849C34.7577 19.1896 35.212 19.3478 35.7304 19.3478C36.4667 19.3478 37.1204 19.0692 37.6929 18.5134C38.2654 17.9575 38.5573 17.3088 38.5573 16.56C38.0119 16.1246 37.2571 15.9011 36.2844 15.9011C35.5752 15.9011 34.9842 16.0782 34.5114 16.4207C34.03 16.782 33.7936 17.2174 33.7936 17.7268ZM49.7097 11.1599L43.8921 24.7943H42.0934L44.2567 20.0241L40.4201 11.1585H42.3199L45.0827 17.9575H45.1197L47.8113 11.1585H49.7111L49.7097 11.1599Z" fill="white" fill-opacity="0.6"/>
<path d="M13.3939 9.91026C12.5434 9.1318 11.4661 8.73108 10.2635 8.73108V8.73395C8.13428 8.73395 6.32886 10.1142 5.68279 11.9756L5.64043 11.944C5.4871 12.4478 5.4029 12.9818 5.4029 13.5355C5.40368 14.0782 5.48438 14.6172 5.64188 15.1317C6.27748 17.065 7.96989 18.4909 9.96058 18.4909C11.0054 18.4909 11.9001 18.1948 12.5939 17.691L12.6142 17.708C13.4113 17.1303 13.9313 16.29 14.0972 15.3127L9.84656 15.3112V12.2564H17.2273C17.3221 12.7902 17.3739 13.3443 17.3739 13.9245C17.3739 16.3324 16.5298 18.3713 15.0549 19.7507L15.0856 19.7764C13.8086 21.0527 12.0516 21.7946 9.96058 21.7946C8.52541 21.7951 7.11838 21.3653 5.89662 20.5533C4.67487 19.7413 3.68649 18.579 3.04187 17.1963V17.1594C2.55981 16.0622 2.28907 14.8334 2.28907 13.5355C2.28745 12.3061 2.53448 11.0925 3.01138 9.98154L2.97168 9.95191C3.65112 8.651 4.69278 7.55744 5.98037 6.79329C7.26796 6.02913 8.75084 5.62446 10.2635 5.62442C12.4643 5.62442 14.3085 6.40288 15.7215 7.66967L13.3939 9.91026Z" fill="white" fill-opacity="0.6"/>
</svg>
