<svg width="41" height="23" viewBox="0 0 41 23" fill="none" xmlns="http://www.w3.org/2000/svg">
<g id="google_pay_full 1" clip-path="url(#clip0_115_29374)">
<path id="Base_1_" d="M29.9747 0.668213H10.9912C5.05883 0.668213 0.205078 5.52196 0.205078 11.4543C0.205078 17.3867 5.05883 22.2404 10.9912 22.2404H29.9747C35.9071 22.2404 40.7608 17.3867 40.7608 11.4543C40.7608 5.52196 35.9071 0.668213 29.9747 0.668213Z" fill="white"/>
<g id="G_Pay_Lockup_1_">
<g id="Pay_Typeface_3_">
<path id="Letter_p_3_" d="M19.5433 12.2201V15.4829H18.5078V7.42566H21.2529C21.9486 7.42566 22.5418 7.65756 23.0272 8.12136C23.5234 8.58517 23.7714 9.15144 23.7714 9.82018C23.7714 10.5051 23.5234 11.0714 23.0272 11.5298C22.5472 11.9882 21.954 12.2147 21.2529 12.2147H19.5433V12.2201ZM19.5433 8.41798V11.2278H21.2744C21.6843 11.2278 22.0295 11.0875 22.2991 10.8125C22.5742 10.5375 22.7144 10.2031 22.7144 9.82557C22.7144 9.45345 22.5742 9.12447 22.2991 8.84943C22.0295 8.56359 21.6897 8.42337 21.2744 8.42337H19.5433V8.41798Z" fill="#3C4043"/>
<path id="Letter_a_3_" d="M26.4795 9.78784C27.2453 9.78784 27.8494 9.99278 28.2916 10.4026C28.7338 10.8125 28.9549 11.3734 28.9549 12.0853V15.4829H27.968V14.7171H27.9249C27.4988 15.3481 26.9271 15.6609 26.2153 15.6609C25.6058 15.6609 25.0989 15.4829 24.689 15.1216C24.2792 14.7602 24.0742 14.3126 24.0742 13.7733C24.0742 13.2016 24.2899 12.7486 24.7214 12.4143C25.1528 12.0745 25.7299 11.9073 26.4472 11.9073C27.062 11.9073 27.5689 12.0206 27.9626 12.2471V12.0098C27.9626 11.6484 27.8224 11.3464 27.5366 11.093C27.2507 10.8395 26.9164 10.7154 26.5335 10.7154C25.9564 10.7154 25.498 10.9581 25.1636 11.4489L24.2522 10.8772C24.7537 10.1492 25.498 9.78784 26.4795 9.78784ZM25.142 13.7895C25.142 14.0591 25.2553 14.2856 25.4872 14.4636C25.7137 14.6416 25.9834 14.7333 26.2908 14.7333C26.7276 14.7333 27.1159 14.5715 27.4557 14.2479C27.7954 13.9243 27.968 13.5468 27.968 13.11C27.6444 12.8565 27.1968 12.7271 26.6197 12.7271C26.1991 12.7271 25.8485 12.8295 25.5681 13.0291C25.2823 13.2394 25.142 13.4929 25.142 13.7895Z" fill="#3C4043"/>
<path id="Letter_y_3_" d="M34.584 9.96582L31.1324 17.9044H30.0646L31.3481 15.127L29.0723 9.96582H30.1994L31.8389 13.9243H31.8605L33.4568 9.96582H34.584Z" fill="#3C4043"/>
</g>
<g id="G_Mark_1_">
<path id="Blue_500" d="M15.4247 11.5622C15.4247 11.2246 15.3945 10.9016 15.3384 10.5909H10.998V12.3706L13.4977 12.3712C13.3963 12.9633 13.0701 13.4681 12.5701 13.8047V14.9593H14.0581C14.9269 14.1552 15.4247 12.9666 15.4247 11.5622Z" fill="#4285F4"/>
<path id="Green_500_1_" d="M12.5696 13.8047C12.1554 14.084 11.622 14.2474 10.9981 14.2474C9.79271 14.2474 8.77019 13.4352 8.404 12.3405H6.86914V13.5312C7.62956 15.0402 9.19247 16.0757 10.9981 16.0757C12.246 16.0757 13.2944 15.6653 14.0575 14.9588L12.5696 13.8047Z" fill="#34A853"/>
<path id="Yellow_500_1_" d="M8.26054 11.457C8.26054 11.1496 8.31178 10.8525 8.40508 10.5731V9.38232H6.87021C6.5558 10.0063 6.37891 10.7106 6.37891 11.457C6.37891 12.2034 6.55634 12.9078 6.87021 13.5317L8.40508 12.341C8.31178 12.0616 8.26054 11.7644 8.26054 11.457Z" fill="#FABB05"/>
<path id="Red_500" d="M10.9981 8.66614C11.6792 8.66614 12.2892 8.90073 12.7708 9.35914L14.0894 8.04162C13.2885 7.29576 12.2444 6.83789 10.9981 6.83789C9.19301 6.83789 7.62956 7.87336 6.86914 9.38233L8.404 10.5731C8.77019 9.47833 9.79271 8.66614 10.9981 8.66614Z" fill="#E94235"/>
</g>
</g>
</g>
<defs>
<clipPath id="clip0_115_29374">
<rect width="41" height="22" fill="white" transform="translate(0 0.5)"/>
</clipPath>
</defs>
</svg>
