<svg width="16" height="16" viewBox="0 0 16 16" fill="none" xmlns="http://www.w3.org/2000/svg">
<g id="iconSlider">
<path id="Vector" d="M2 8.00323C2 8.15869 2.06091 8.30768 2.18274 8.43075L5.43554 11.825C5.53909 11.9352 5.69747 12 5.83148 12C6.15432 12 6.36752 11.7668 6.36752 11.4299C6.36752 11.2615 6.31879 11.1385 6.22132 11.0348L4.78985 9.56435L3.65076 8.51497L5.06396 8.57975H10.93L12.3431 8.51497L11.2041 9.56435L9.77867 11.0348C9.68121 11.1385 9.6325 11.2615 9.6325 11.4299C9.6325 11.7668 9.84572 12 10.1685 12C10.3026 12 10.4609 11.9352 10.5645 11.825L13.8173 8.43075C13.9391 8.30768 14 8.15869 14 8.00323C14 7.84128 13.9391 7.6923 13.8173 7.56922L10.5645 4.1749C10.4609 4.06478 10.3026 4 10.1685 4C9.84572 4 9.6325 4.2332 9.6325 4.57004C9.6325 4.73846 9.68121 4.86153 9.77867 4.96518L11.2041 6.4421L12.3431 7.48501L10.93 7.42023H5.06396L3.65076 7.48501L4.78985 6.4421L6.22132 4.96518C6.31879 4.86153 6.36752 4.73846 6.36752 4.57004C6.36752 4.2332 6.15432 4 5.83148 4C5.69747 4 5.53909 4.06478 5.43554 4.1749L2.18274 7.56922C2.06091 7.6923 2 7.84128 2 8.00323Z" fill="white"/>
</g>
</svg>
