<svg width="16" height="16" viewBox="0 0 16 16" fill="none" xmlns="http://www.w3.org/2000/svg">
<g id="iconComfortTrade">
<path id="Vector" d="M3.8 6.33437V5.125C3.8 4.50625 4.34 4 5 4H11C11.66 4 12.2 4.50625 12.2 5.125V6.34C11.504 6.57062 11 7.18938 11 7.92063V9.0625H5V7.915C5 7.18937 4.496 6.565 3.8 6.33437ZM12.8 6.8125C12.14 6.8125 11.6 7.31875 11.6 7.9375V9.625H4.4V7.9375C4.4 7.63913 4.27357 7.35298 4.04853 7.14201C3.82348 6.93103 3.51826 6.8125 3.2 6.8125C2.88174 6.8125 2.57652 6.93103 2.35147 7.14201C2.12643 7.35298 2 7.63913 2 7.9375V10.75C2 11.3688 2.54 11.875 3.2 11.875V13H4.4V11.875H11.6V13H12.8V11.875C13.46 11.875 14 11.3688 14 10.75V7.9375C14 7.31875 13.46 6.8125 12.8 6.8125Z" fill="white"/>
</g>
</svg>
