<svg width="16" height="16" viewBox="0 0 16 16" fill="none" xmlns="http://www.w3.org/2000/svg">
<path d="M6.19614 7.94975C6.34344 8.09722 6.42617 8.29713 6.42617 8.50556C6.42617 8.71399 6.34344 8.91389 6.19614 9.06137L5.6854 9.57313H10.0975C10.3061 9.57313 10.5061 9.656 10.6536 9.8035C10.8012 9.951 10.884 10.1511 10.884 10.3597C10.884 10.5683 10.8012 10.7683 10.6536 10.9158C10.5061 11.0633 10.3061 11.1462 10.0975 11.1462H5.6854L6.19666 11.6569C6.34422 11.8044 6.42712 12.0046 6.42712 12.2132C6.42712 12.4219 6.34422 12.622 6.19666 12.7696C6.04911 12.9171 5.84898 13 5.64031 13C5.43163 13 5.2315 12.9171 5.08395 12.7696L3.23029 10.9155C3.08284 10.768 3 10.5679 3 10.3594C3 10.1508 3.08284 9.95082 3.23029 9.80332L5.08395 7.94923C5.15699 7.87614 5.24372 7.81816 5.33919 7.7786C5.43465 7.73904 5.53697 7.71868 5.64031 7.71868C5.74364 7.71868 5.84596 7.73904 5.94142 7.7786C6.03689 7.81816 6.12362 7.87614 6.19666 7.94923L6.19614 7.94975ZM9.80382 3.23062C9.9414 3.09292 10.1251 3.01113 10.3195 3.00105C10.5139 2.99098 10.7052 3.05334 10.8562 3.17608L10.916 3.23009L12.7697 5.08419C12.9073 5.22183 12.989 5.40561 12.999 5.59999C13.0089 5.79437 12.9465 5.98555 12.8237 6.13655L12.7697 6.19633L10.916 8.05042C10.7738 8.19475 10.5813 8.27862 10.3788 8.28456C10.1762 8.29049 9.97921 8.21803 9.82878 8.08227C9.67835 7.94651 9.58611 7.75794 9.5713 7.55586C9.55649 7.35377 9.62025 7.15377 9.74928 6.99753L9.80329 6.93776L10.3146 6.42704H5.90249C5.69949 6.42845 5.50381 6.35131 5.35637 6.21177C5.20893 6.07223 5.12116 5.88109 5.1114 5.67832C5.10165 5.47556 5.17068 5.27688 5.30404 5.12383C5.43741 4.97079 5.62478 4.87523 5.82698 4.85714L5.90249 4.854H10.3146L9.80329 4.34276C9.7302 4.26972 9.67222 4.18299 9.63266 4.08753C9.5931 3.99207 9.57274 3.88975 9.57274 3.78642C9.57274 3.68309 9.5931 3.58078 9.63266 3.48532C9.67222 3.38986 9.7302 3.30313 9.80329 3.23009L9.80382 3.23062Z" fill="white" fill-opacity="0.4"/>
</svg>
