<svg width="32" height="32" viewBox="0 0 32 32" fill="none" xmlns="http://www.w3.org/2000/svg">
<g id="iconPlus">
<path id="Vector" d="M6 15.668C6 16.2422 6.48047 16.7109 7.04297 16.7109H14.625V24.293C14.625 24.8555 15.0938 25.3359 15.668 25.3359C16.2422 25.3359 16.7227 24.8555 16.7227 24.293V16.7109H24.293C24.8555 16.7109 25.3359 16.2422 25.3359 15.668C25.3359 15.0938 24.8555 14.6133 24.293 14.6133H16.7227V7.04297C16.7227 6.48047 16.2422 6 15.668 6C15.0938 6 14.625 6.48047 14.625 7.04297V14.6133H7.04297C6.48047 14.6133 6 15.0938 6 15.668Z" fill="white" fill-opacity="0.4"/>
</g>
</svg>
