<svg width="116" height="76" viewBox="0 0 116 76" fill="none" xmlns="http://www.w3.org/2000/svg">
<g filter="url(#filter0_d_5433_42825)">
<rect x="20" y="12" width="76" height="36" rx="18" fill="#8852F2"/>
<path d="M41.501 21.0007V36.394L44.987 37.5V24.5884C44.987 23.9812 45.2589 23.5772 45.6971 23.7173C46.2608 23.8785 46.3724 24.4338 46.3724 25.0404V30.1941C48.5473 31.2396 50.2579 30.1909 50.2579 27.4288C50.2579 24.5884 49.256 23.3265 46.3063 22.3159C45.1407 21.9211 42.9832 21.2737 41.505 21L41.501 21.0007ZM45.6483 35.2491L51.2565 33.251C51.8924 33.0253 51.9906 32.7036 51.4756 32.5351C50.9539 32.3673 50.0174 32.4114 49.3735 32.641L45.6303 33.9569V31.8627L45.842 31.791C45.842 31.791 46.9134 31.4219 48.437 31.2495C49.9473 31.0922 51.8089 31.2765 53.2804 31.8285C54.9262 32.3568 55.0999 33.1207 54.6824 33.649C54.2683 34.1727 53.239 34.557 53.239 34.557L45.6303 37.2809V35.2656L45.6483 35.2491ZM35.1106 35.0406C33.416 34.5609 33.1382 33.5773 33.9063 33.0009C34.6197 32.4904 35.8267 32.0798 35.8267 32.0798L40.829 30.3145V32.343L37.2461 33.6352C36.6162 33.8721 36.512 34.1905 37.0343 34.3583C37.556 34.53 38.4912 34.4925 39.1184 34.2556L40.8437 33.6352V35.4544C40.7395 35.4788 40.6173 35.4919 40.4957 35.5196C38.7704 35.8084 36.9402 35.6913 35.1207 35.0985L35.1106 35.0406Z" fill="white"/>
<path d="M66.5157 36.2715C68.0318 37.604 69.9821 38.3373 72.0005 38.3335C74.1026 38.3335 76.0208 37.558 77.488 36.2715C78.7901 34.945 74.4906 30.2252 72.0005 28.345C69.5131 30.2247 65.211 34.945 66.5157 36.2715ZM74.2656 26.2706C76.0015 28.3268 79.463 33.4315 78.4864 35.2356C79.6848 33.7552 80.3371 31.9075 80.3338 30.0028C80.3338 27.6836 79.3875 25.5841 77.8547 24.0758C77.8547 24.0758 77.8354 24.0592 77.7979 24.0461C77.7349 24.0245 77.6686 24.0144 77.6021 24.0164C77.1932 24.0164 76.2245 24.317 74.2661 26.2706H74.2656ZM66.2032 24.0461C66.1657 24.0592 66.1464 24.0758 66.1433 24.0758C65.3573 24.8496 64.7335 25.7723 64.3083 26.79C63.883 27.8077 63.665 28.8999 63.6668 30.0028C63.6668 31.9856 64.3584 33.8033 65.5141 35.2325C64.5433 33.4262 67.999 28.3237 69.7375 26.2701C67.7792 24.3138 66.8079 24.0159 66.3985 24.0159C66.3316 24.0128 66.2649 24.024 66.2027 24.0487L66.2032 24.0461ZM72.0005 24.1331C72.0005 24.1331 69.9552 22.9368 68.3573 22.8795C67.7308 22.8581 67.3485 23.0831 67.3016 23.1154C68.7912 22.1149 70.375 21.667 71.9891 21.667H72C73.6224 21.667 75.1979 22.1149 76.6984 23.1154C76.6521 23.0826 76.2719 22.8576 75.6427 22.8795C74.0448 22.9363 71.9995 24.13 71.9995 24.13L72.0005 24.1331Z" fill="white"/>
<rect x="20.5" y="12.5" width="75" height="35" rx="17.5" stroke="white" stroke-opacity="0.2"/>
</g>
<defs>
<filter id="filter0_d_5433_42825" x="0" y="0" width="116" height="76" filterUnits="userSpaceOnUse" color-interpolation-filters="sRGB">
<feFlood flood-opacity="0" result="BackgroundImageFix"/>
<feColorMatrix in="SourceAlpha" type="matrix" values="0 0 0 0 0 0 0 0 0 0 0 0 0 0 0 0 0 0 127 0" result="hardAlpha"/>
<feOffset dy="8"/>
<feGaussianBlur stdDeviation="10"/>
<feColorMatrix type="matrix" values="0 0 0 0 0 0 0 0 0 0 0 0 0 0 0 0 0 0 0.4 0"/>
<feBlend mode="normal" in2="BackgroundImageFix" result="effect1_dropShadow_5433_42825"/>
<feBlend mode="normal" in="SourceGraphic" in2="effect1_dropShadow_5433_42825" result="shape"/>
</filter>
</defs>
</svg>
