<svg width="103" height="59" viewBox="0 0 103 59" fill="none" xmlns="http://www.w3.org/2000/svg">
<path d="M97.7422 18.4754C98.248 20.6279 97.6301 23.0507 95.8487 25.6565C94.0668 28.2628 91.1786 30.9587 87.3543 33.5726C79.7114 38.7965 68.5092 43.5709 55.5601 46.6135C42.611 49.6561 30.4548 50.3701 21.2852 49.0966C16.6969 48.4593 12.9104 47.3317 10.1542 45.7917C7.39875 44.2519 5.76657 42.3578 5.2608 40.2053C4.75504 38.0527 5.37288 35.6299 7.15434 33.0242C8.93621 30.4178 11.8244 27.7219 15.6487 25.108C23.2916 19.8841 34.4938 15.1098 47.4429 12.0672C60.3921 9.0246 72.5482 8.31054 81.7178 9.58409C86.3061 10.2213 90.0926 11.3489 92.8488 12.889C95.6043 14.4287 97.2365 16.3229 97.7422 18.4754Z" stroke="url(#paint0_linear_474_5691)" stroke-width="2"/>
<path d="M15.4616 35.4631C14.3016 35.4631 13.2683 35.1765 12.3616 34.6031C11.455 34.0298 10.7416 33.2031 10.2216 32.1231C9.71497 31.0298 9.46164 29.7298 9.46164 28.2231C9.46164 26.7165 9.71497 25.4231 10.2216 24.3431C10.7416 23.2498 11.455 22.4165 12.3616 21.8431C13.2683 21.2698 14.3016 20.9831 15.4616 20.9831C16.6216 20.9831 17.655 21.2698 18.5616 21.8431C19.4683 22.4165 20.175 23.2498 20.6816 24.3431C21.2016 25.4231 21.4616 26.7165 21.4616 28.2231C21.4616 29.7298 21.2016 31.0298 20.6816 32.1231C20.175 33.2031 19.4683 34.0298 18.5616 34.6031C17.655 35.1765 16.6216 35.4631 15.4616 35.4631ZM15.4616 32.7231C16.315 32.7231 16.9816 32.3565 17.4616 31.6231C17.955 30.8898 18.2016 29.7565 18.2016 28.2231C18.2016 26.6898 17.955 25.5565 17.4616 24.8231C16.9816 24.0898 16.315 23.7231 15.4616 23.7231C14.6216 23.7231 13.955 24.0898 13.4616 24.8231C12.9816 25.5565 12.7416 26.6898 12.7416 28.2231C12.7416 29.7565 12.9816 30.8898 13.4616 31.6231C13.955 32.3565 14.6216 32.7231 15.4616 32.7231ZM26.2759 28.7831C25.2492 28.7831 24.4092 28.4365 23.7559 27.7431C23.1159 27.0365 22.7959 26.0965 22.7959 24.9231C22.7959 23.7498 23.1159 22.8165 23.7559 22.1231C24.4092 21.4165 25.2492 21.0631 26.2759 21.0631C27.3025 21.0631 28.1359 21.4165 28.7759 22.1231C29.4159 22.8165 29.7359 23.7498 29.7359 24.9231C29.7359 26.0965 29.4159 27.0365 28.7759 27.7431C28.1359 28.4365 27.3025 28.7831 26.2759 28.7831ZM34.6159 21.2231H36.9959L27.4359 35.2231H25.0559L34.6159 21.2231ZM26.2759 27.1431C26.7292 27.1431 27.0825 26.9565 27.3359 26.5831C27.6025 26.2098 27.7359 25.6565 27.7359 24.9231C27.7359 24.1898 27.6025 23.6365 27.3359 23.2631C27.0825 22.8898 26.7292 22.7031 26.2759 22.7031C25.8359 22.7031 25.4825 22.8965 25.2159 23.2831C24.9492 23.6565 24.8159 24.2031 24.8159 24.9231C24.8159 25.6431 24.9492 26.1965 25.2159 26.5831C25.4825 26.9565 25.8359 27.1431 26.2759 27.1431ZM35.7759 35.3831C35.1092 35.3831 34.5092 35.2298 33.9759 34.9231C33.4559 34.6031 33.0492 34.1498 32.7559 33.5631C32.4625 32.9765 32.3159 32.2965 32.3159 31.5231C32.3159 30.7498 32.4625 30.0698 32.7559 29.4831C33.0492 28.8965 33.4559 28.4498 33.9759 28.1431C34.5092 27.8231 35.1092 27.6631 35.7759 27.6631C36.8025 27.6631 37.6359 28.0165 38.2759 28.7231C38.9292 29.4165 39.2559 30.3498 39.2559 31.5231C39.2559 32.6965 38.9292 33.6365 38.2759 34.3431C37.6359 35.0365 36.8025 35.3831 35.7759 35.3831ZM35.7759 33.7431C36.2292 33.7431 36.5825 33.5565 36.8359 33.1831C37.1025 32.7965 37.2359 32.2431 37.2359 31.5231C37.2359 30.8031 37.1025 30.2565 36.8359 29.8831C36.5825 29.4965 36.2292 29.3031 35.7759 29.3031C35.3359 29.3031 34.9825 29.4898 34.7159 29.8631C34.4492 30.2365 34.3159 30.7898 34.3159 31.5231C34.3159 32.2565 34.4492 32.8098 34.7159 33.1831C34.9825 33.5565 35.3359 33.7431 35.7759 33.7431ZM50.319 24.7031H53.079V27.1031H50.399V35.2231H47.279V27.1031H45.619V24.7031H47.279V24.2231C47.279 22.9965 47.639 22.0231 48.359 21.3031C49.0923 20.5831 50.119 20.2231 51.439 20.2231C51.9057 20.2231 52.3457 20.2765 52.759 20.3831C53.1857 20.4765 53.539 20.6165 53.819 20.8031L52.999 23.0631C52.639 22.8098 52.219 22.6831 51.739 22.6831C50.7923 22.6831 50.319 23.2031 50.319 24.2431V24.7031ZM65.0366 29.8831C65.0366 29.9231 65.0166 30.2031 64.9766 30.7231H56.8366C56.9833 31.3898 57.33 31.9165 57.8766 32.3031C58.4233 32.6898 59.1033 32.8831 59.9166 32.8831C60.4766 32.8831 60.97 32.8031 61.3966 32.6431C61.8366 32.4698 62.2433 32.2031 62.6166 31.8431L64.2766 33.6431C63.2633 34.8031 61.7833 35.3831 59.8366 35.3831C58.6233 35.3831 57.55 35.1498 56.6166 34.6831C55.6833 34.2031 54.9633 33.5431 54.4566 32.7031C53.95 31.8631 53.6966 30.9098 53.6966 29.8431C53.6966 28.7898 53.9433 27.8431 54.4366 27.0031C54.9433 26.1498 55.63 25.4898 56.4966 25.0231C57.3766 24.5431 58.3566 24.3031 59.4366 24.3031C60.49 24.3031 61.4433 24.5298 62.2966 24.9831C63.15 25.4365 63.8166 26.0898 64.2966 26.9431C64.79 27.7831 65.0366 28.7631 65.0366 29.8831ZM59.4566 26.6631C58.75 26.6631 58.1566 26.8631 57.6766 27.2631C57.1966 27.6631 56.9033 28.2098 56.7966 28.9031H62.0966C61.99 28.2231 61.6966 27.6831 61.2166 27.2831C60.7366 26.8698 60.15 26.6631 59.4566 26.6631ZM77.6538 29.8831C77.6538 29.9231 77.6338 30.2031 77.5938 30.7231H69.4538C69.6005 31.3898 69.9472 31.9165 70.4938 32.3031C71.0405 32.6898 71.7205 32.8831 72.5338 32.8831C73.0938 32.8831 73.5872 32.8031 74.0138 32.6431C74.4538 32.4698 74.8605 32.2031 75.2338 31.8431L76.8938 33.6431C75.8805 34.8031 74.4005 35.3831 72.4538 35.3831C71.2405 35.3831 70.1672 35.1498 69.2338 34.6831C68.3005 34.2031 67.5805 33.5431 67.0738 32.7031C66.5672 31.8631 66.3138 30.9098 66.3138 29.8431C66.3138 28.7898 66.5605 27.8431 67.0538 27.0031C67.5605 26.1498 68.2472 25.4898 69.1138 25.0231C69.9938 24.5431 70.9738 24.3031 72.0538 24.3031C73.1072 24.3031 74.0605 24.5298 74.9138 24.9831C75.7672 25.4365 76.4338 26.0898 76.9138 26.9431C77.4072 27.7831 77.6538 28.7631 77.6538 29.8831ZM72.0738 26.6631C71.3672 26.6631 70.7738 26.8631 70.2938 27.2631C69.8138 27.6631 69.5205 28.2098 69.4138 28.9031H74.7138C74.6072 28.2231 74.3138 27.6831 73.8338 27.2831C73.3538 26.8698 72.7672 26.6631 72.0738 26.6631ZM83.351 35.3831C82.4577 35.3831 81.5843 35.2765 80.731 35.0631C79.8777 34.8365 79.1977 34.5565 78.691 34.2231L79.731 31.9831C80.211 32.2898 80.791 32.5431 81.471 32.7431C82.151 32.9298 82.8177 33.0231 83.471 33.0231C84.791 33.0231 85.451 32.6965 85.451 32.0431C85.451 31.7365 85.271 31.5165 84.911 31.3831C84.551 31.2498 83.9977 31.1365 83.251 31.0431C82.371 30.9098 81.6443 30.7565 81.071 30.5831C80.4977 30.4098 79.9977 30.1031 79.571 29.6631C79.1577 29.2231 78.951 28.5965 78.951 27.7831C78.951 27.1031 79.1443 26.5031 79.531 25.9831C79.931 25.4498 80.5043 25.0365 81.251 24.7431C82.011 24.4498 82.9043 24.3031 83.931 24.3031C84.691 24.3031 85.4443 24.3898 86.191 24.5631C86.951 24.7231 87.5777 24.9498 88.071 25.2431L87.031 27.4631C86.0843 26.9298 85.051 26.6631 83.931 26.6631C83.2643 26.6631 82.7643 26.7565 82.431 26.9431C82.0977 27.1298 81.931 27.3698 81.931 27.6631C81.931 27.9965 82.111 28.2298 82.471 28.3631C82.831 28.4965 83.4043 28.6231 84.191 28.7431C85.071 28.8898 85.791 29.0498 86.351 29.2231C86.911 29.3831 87.3977 29.6831 87.811 30.1231C88.2243 30.5631 88.431 31.1765 88.431 31.9631C88.431 32.6298 88.231 33.2231 87.831 33.7431C87.431 34.2631 86.8443 34.6698 86.071 34.9631C85.311 35.2431 84.4043 35.3831 83.351 35.3831Z" fill="white"/>
<defs>
<linearGradient id="paint0_linear_474_5691" x1="94.4284" y1="1.81667e-05" x2="1.03925" y2="41.8755" gradientUnits="userSpaceOnUse">
<stop stop-color="#A82DF9"/>
<stop offset="1" stop-color="#6678E9"/>
</linearGradient>
</defs>
</svg>
