<svg width="55" height="40" viewBox="0 0 55 40" fill="none" xmlns="http://www.w3.org/2000/svg">
<path d="M28.5803 32.1035H26.688V19.5137H23.2627V31.4748C23.2627 33.337 24.7718 34.846 26.6341 34.846H28.6342C30.4966 34.846 32.0057 33.337 32.0057 31.4748V19.5137H28.5803V32.1035Z" fill="white" fill-opacity="0.2"/>
<path d="M41.8239 19.5137H38.9585H35.5362H32.8804V22.4358H35.5362V34.846H38.9585V22.4358H41.8239V19.5137Z" fill="white" fill-opacity="0.2"/>
<path d="M14.6279 21.9718V34.846H18.0533V29.0286H21.4456V25.5736H18.0533V22.4388H22.7032V19.5137H17.0861C15.7298 19.5137 14.6279 20.6155 14.6279 21.9718Z" fill="white" fill-opacity="0.2"/>
<path d="M27.6806 52.6629C13.6285 52.6629 2.19824 41.2307 2.19824 27.1793C2.19824 13.1279 13.6285 1.69824 27.6806 1.69824C41.7326 1.69824 53.1629 13.1305 53.1629 27.1793C53.1629 41.2281 41.7326 52.6629 27.6806 52.6629ZM27.6806 6.60071C16.3323 6.60071 7.10096 15.8342 7.10096 27.1793C7.10096 38.5244 16.3323 47.7604 27.6806 47.7604C39.0288 47.7604 48.2602 38.527 48.2602 27.1793C48.2602 15.8316 39.0288 6.60071 27.6806 6.60071Z" fill="white" fill-opacity="0.2"/>
</svg>
