<svg width="43" height="43" viewBox="0 0 43 43" fill="none" xmlns="http://www.w3.org/2000/svg">
<g clip-path="url(#clip0_1605_12667)">
<path d="M15.6864 10.8418H27.3129V31.7327H15.6864V10.8418Z" fill="#FF5F00"/>
<path d="M16.4248 21.2875C16.4248 17.043 18.4179 13.2781 21.4813 10.842C19.23 9.07035 16.388 8 13.2876 8C5.94227 8 -0.00012207 13.9424 -0.00012207 21.2875C-0.00012207 28.6325 5.94227 34.5751 13.2874 34.5751C16.3878 34.5751 19.2298 33.5047 21.4813 31.7329C18.4179 29.3338 16.4248 25.5321 16.4248 21.2875Z" fill="#EB001B"/>
<path d="M42.9996 21.2875C42.9996 28.6325 37.0572 34.5751 29.7121 34.5751C26.6117 34.5751 23.7697 33.5047 21.5182 31.7329C24.6186 29.297 26.5748 25.5321 26.5748 21.2875C26.5748 17.043 24.5816 13.2781 21.5182 10.842C23.7695 9.07035 26.6117 8 29.7121 8C37.0572 8 42.9996 13.9794 42.9996 21.2875Z" fill="#F79E1B"/>
</g>
<defs>
<clipPath id="clip0_1605_12667">
<rect width="43" height="43" fill="white"/>
</clipPath>
</defs>
</svg>
