<svg width="104" height="101" viewBox="0 0 104 101" fill="none" xmlns="http://www.w3.org/2000/svg">
<path d="M35.9334 55.0656C37.572 56.7062 38.4924 58.9302 38.4924 61.2489C38.4924 63.5677 37.572 65.7916 35.9334 67.4323L30.2517 73.1256H79.3334C81.654 73.1256 83.8796 74.0475 85.5206 75.6884C87.1615 77.3293 88.0834 79.5549 88.0834 81.8756C88.0834 84.1962 87.1615 86.4218 85.5206 88.0628C83.8796 89.7037 81.654 90.6256 79.3334 90.6256H30.2517L35.9392 96.3072C37.5807 97.9487 38.5029 100.175 38.5029 102.496C38.5029 104.818 37.5807 107.044 35.9392 108.686C34.2978 110.327 32.0714 111.249 29.7501 111.249C27.4287 111.249 25.2024 110.327 23.5609 108.686L2.94006 88.0589C1.29968 86.418 0.378174 84.1928 0.378174 81.8727C0.378174 79.5525 1.29968 77.3273 2.94006 75.6864L23.5609 55.0597C24.3735 54.2466 25.3383 53.6016 26.4003 53.1615C27.4622 52.7215 28.6005 52.4949 29.7501 52.4949C30.8996 52.4949 32.0379 52.7215 33.0998 53.1615C34.1618 53.6016 35.1266 54.2466 35.9392 55.0597L35.9334 55.0656ZM76.0667 2.56558C77.5972 1.03373 79.6413 0.12379 81.8038 0.0117324C83.9664 -0.100326 86.0936 0.593454 87.7742 1.95891L88.4392 2.55975L109.06 23.1864C110.591 24.7176 111.5 26.7622 111.611 28.9247C111.722 31.0872 111.027 33.214 109.661 34.8939L109.06 35.5589L88.4392 56.1856C86.857 57.7912 84.7162 58.7243 82.4629 58.7903C80.2097 58.8563 78.0179 58.0501 76.3444 56.5399C74.671 55.0296 73.6449 52.9317 73.4801 50.6836C73.3154 48.4354 74.0246 46.2104 75.4601 44.4722L76.0609 43.8072L81.7484 38.1256H32.6667C30.4084 38.1412 28.2316 37.2831 26.5914 35.7307C24.9513 34.1783 23.9748 32.0519 23.8663 29.7961C23.7578 27.5404 24.5257 25.3301 26.0093 23.6275C27.4929 21.9248 29.5774 20.8618 31.8267 20.6606L32.6667 20.6256H81.7484L76.0609 14.9381C75.2478 14.1255 74.6028 13.1607 74.1627 12.0987C73.7226 11.0367 73.4961 9.89845 73.4961 8.74891C73.4961 7.59937 73.7226 6.4611 74.1627 5.39914C74.6028 4.33717 75.2478 3.37233 76.0609 2.55975L76.0667 2.56558Z" fill="white" fill-opacity="0.05"/>
</svg>
