<svg width="36" height="36" viewBox="0 0 36 36" fill="none" xmlns="http://www.w3.org/2000/svg">
<path d="M13.9453 10.5342H22.0572V25.11H13.9453V10.5342Z" fill="#FF5F00"/>
<path d="M14.4598 17.8221C14.4598 14.8606 15.8504 12.2338 17.9878 10.5341C16.417 9.29806 14.4341 8.55127 12.2709 8.55127C7.14606 8.55127 3 12.6973 3 17.8221C3 22.9467 7.14606 27.0929 12.2708 27.0929C14.434 27.0929 16.4169 26.3461 17.9878 25.1099C15.8504 23.436 14.4598 20.7836 14.4598 17.8221Z" fill="#EB001B"/>
<path d="M32.9995 17.8221C32.9995 22.9467 28.8534 27.0929 23.7287 27.0929C21.5655 27.0929 19.5826 26.3461 18.0117 25.1099C20.1749 23.4103 21.5398 20.7836 21.5398 17.8221C21.5398 14.8606 20.1491 12.2338 18.0117 10.5341C19.5825 9.29806 21.5655 8.55127 23.7287 8.55127C28.8534 8.55127 32.9995 12.7231 32.9995 17.8221Z" fill="#F79E1B"/>
</svg>
