<svg width="47" height="24" viewBox="0 0 47 24" fill="none" xmlns="http://www.w3.org/2000/svg">
<path d="M2.90051 6.79354H6.75629C7.10681 6.79354 8.15839 6.6767 8.62575 8.31248C8.97628 9.36406 9.44364 10.9998 10.1447 13.4535H10.3784C11.0794 10.883 11.6636 9.13038 11.8973 8.31248C12.3647 6.6767 13.5331 6.79354 14.0005 6.79354H17.6226V18.0103H13.8836V11.3504H13.6499L11.6636 18.0103H8.85944L6.87313 11.3504H6.5226V18.0103H2.90051M19.1415 6.79354H22.8804V13.4535H23.231L25.6846 7.96196C26.152 6.91038 27.2036 6.79354 27.2036 6.79354H30.7088V18.0103H26.9699V11.3504H26.7362L24.2825 16.8419C23.8152 17.8935 22.6467 18.0103 22.6467 18.0103H19.1415M35.733 14.6219V18.0103H32.2278V12.1683H43.6782C43.2109 13.5704 41.5751 14.6219 39.7056 14.6219" fill="#0F754E"/>
<path d="M43.9119 11.4672C44.3793 9.36408 42.9772 6.79356 39.9393 6.79356H31.9941C32.2278 9.24724 34.3309 11.4672 36.5509 11.4672" fill="url(#paint0_linear_6189_15248)"/>
<defs>
<linearGradient id="paint0_linear_6189_15248" x1="42.5098" y1="5.27462" x2="33.1625" y2="5.27462" gradientUnits="userSpaceOnUse">
<stop stop-color="#1F5CD7"/>
<stop offset="1" stop-color="#02AEFF"/>
</linearGradient>
</defs>
</svg>
