<svg width="16" height="16" viewBox="0 0 16 16" fill="none" xmlns="http://www.w3.org/2000/svg">
<g clip-path="url(#clip0_4289_9234)">
<path fill-rule="evenodd" clip-rule="evenodd" d="M8 16C12.4183 16 16 12.4183 16 8C16 3.58172 12.4183 0 8 0C3.58172 0 0 3.58172 0 8C0 12.4183 3.58172 16 8 16ZM3.49284 11.7613H8.55457V10.4247H5.56301L8.4548 6.48829V5.35123H3.6711V6.69296H6.46532L3.49284 10.7277V11.7613ZM11.9676 4.81608L11.9665 4.81498H11.9687L11.9676 4.81608ZM11.9676 4.81608L10.8771 5.97478V3.45565H9.38352V7.56372L7.94276 9.09545L8.48121 9.60235L9.38352 8.64062V11.7613H10.8749V7.05388L12.5049 5.32262L11.9676 4.81608Z" fill="white"/>
</g>
<defs>
<clipPath id="clip0_4289_9234">
<rect width="16" height="16" fill="white"/>
</clipPath>
</defs>
</svg>
