<svg width="24" height="24" viewBox="0 0 24 24" fill="none" xmlns="http://www.w3.org/2000/svg">
<path d="M1.71692 7.59295L4.04439 2.93342C4.42083 2.18973 5.18288 1.71689 6.01838 1.71689H11.2655V7.59295H1.71692Z" fill="#EAB11F"/>
<path d="M22.2831 7.59295H12.7934V1.71689H17.9817C18.8172 1.71689 19.5792 2.18973 19.9557 2.93342L22.2831 7.59295Z" fill="#EAB11F"/>
<path fill-rule="evenodd" clip-rule="evenodd" d="M1.71692 9.06197H22.2831V19.3451C22.2831 20.9656 20.9656 22.2831 19.3451 22.2831H4.65495C3.03444 22.2831 1.71692 20.9656 1.71692 19.3451V9.06197ZM8.14999 11.7116C6.88923 11.7116 5.86718 12.7337 5.86718 13.9945V17.4171C5.86718 18.6778 6.88923 19.6999 8.14999 19.6999H15.8501C17.1109 19.6999 18.1329 18.6778 18.1329 17.4171V13.9945C18.1329 12.7337 17.1109 11.7116 15.8501 11.7116H8.14999Z" fill="#EAB11F"/>
<path d="M6.92706 17.1466L9.0739 13.4411H10.1602L8.01518 17.1466H9.57385L11.7239 13.4396L12.2529 14.3117L10.1326 17.9701H7.42701L6.92706 17.1466Z" fill="#EAB11F"/>
<path d="M13.1305 17.9719H12.058L13.6342 15.2457H14.7106L14.1636 14.3304H12.5452L13.0732 13.4428H17.0732L16.5376 14.3223H15.2458L14.7106 15.2457L13.1305 17.9719Z" fill="#EAB11F"/>
</svg>
