<svg width="16" height="17" viewBox="0 0 16 17" fill="none" xmlns="http://www.w3.org/2000/svg">
<mask id="mask0_1578_7919" style="mask-type:alpha" maskUnits="userSpaceOnUse" x="0" y="0" width="16" height="17">
<rect y="0.5" width="16" height="16" fill="#D9D9D9"/>
</mask>
<g mask="url(#mask0_1578_7919)">
<path d="M7.99967 15.1668C7.08856 15.1668 6.22745 14.9918 5.41634 14.6418C4.60523 14.2918 3.8969 13.8141 3.29134 13.2085C2.68579 12.6029 2.20801 11.8946 1.85801 11.0835C1.50801 10.2724 1.33301 9.41127 1.33301 8.50016C1.33301 7.57794 1.50801 6.71405 1.85801 5.9085C2.20801 5.10294 2.68579 4.39738 3.29134 3.79183C3.8969 3.18627 4.60523 2.7085 5.41634 2.3585C6.22745 2.0085 7.08856 1.8335 7.99967 1.8335C8.18856 1.8335 8.3469 1.89738 8.47467 2.02516C8.60245 2.15294 8.66634 2.31127 8.66634 2.50016C8.66634 2.68905 8.60245 2.84738 8.47467 2.97516C8.3469 3.10294 8.18856 3.16683 7.99967 3.16683C6.5219 3.16683 5.26356 3.68627 4.22467 4.72516C3.18579 5.76405 2.66634 7.02238 2.66634 8.50016C2.66634 9.97794 3.18579 11.2363 4.22467 12.2752C5.26356 13.3141 6.5219 13.8335 7.99967 13.8335C9.47745 13.8335 10.7358 13.3141 11.7747 12.2752C12.8136 11.2363 13.333 9.97794 13.333 8.50016C13.333 8.31127 13.3969 8.15294 13.5247 8.02516C13.6525 7.89738 13.8108 7.8335 13.9997 7.8335C14.1886 7.8335 14.3469 7.89738 14.4747 8.02516C14.6025 8.15294 14.6663 8.31127 14.6663 8.50016C14.6663 9.41127 14.4913 10.2724 14.1413 11.0835C13.7913 11.8946 13.3136 12.6029 12.708 13.2085C12.1025 13.8141 11.3969 14.2918 10.5913 14.6418C9.78578 14.9918 8.9219 15.1668 7.99967 15.1668Z" fill="white"/>
</g>
</svg>
