<svg width="57" height="25" viewBox="0 0 57 25" fill="none" xmlns="http://www.w3.org/2000/svg">
<path d="M10.3916 3.50066V18.894L13.8777 20V7.08844C13.8777 6.48116 14.1495 6.07718 14.5877 6.21732C15.1515 6.37852 15.263 6.93382 15.263 7.54045V12.6941C17.4379 13.7396 19.1485 12.6909 19.1485 9.92879C19.1485 7.08844 18.1466 5.8265 15.1969 4.81589C14.0313 4.42112 11.8738 3.77371 10.3956 3.5L10.3916 3.50066ZM14.5389 17.7491L20.1471 15.751C20.783 15.5253 20.8812 15.2036 20.3662 15.0351C19.8445 14.8673 18.908 14.9114 18.2641 15.141L14.5209 16.4569V14.3627L14.7327 14.291C14.7327 14.291 15.8041 13.9219 17.3277 13.7495C18.8379 13.5922 20.6995 13.7765 22.171 14.3285C23.8169 14.8568 23.9905 15.6207 23.5731 16.149C23.1589 16.6727 22.1296 17.057 22.1296 17.057L14.5209 19.7809V17.7656L14.5389 17.7491ZM4.00126 17.5406C2.30665 17.0609 2.02878 16.0773 2.79693 15.5009C3.51031 14.9904 4.71731 14.5798 4.71731 14.5798L9.71964 12.8145V14.843L6.13672 16.1352C5.50683 16.3721 5.40263 16.6905 5.92497 16.8583C6.44665 17.03 7.38179 16.9925 8.009 16.7556L9.73433 16.1352V17.9544C9.63013 17.9788 9.50789 17.9919 9.38633 18.0196C7.66099 18.3084 5.83079 18.1913 4.01128 17.5985L4.00126 17.5406Z" fill="white"/>
<path d="M39.4066 18.7715C40.9226 20.104 42.873 20.8373 44.8914 20.8335C46.9935 20.8335 48.9117 20.058 50.3789 18.7715C51.6809 17.445 47.3815 12.7252 44.8914 10.8451C42.4039 12.7247 38.1019 17.445 39.4066 18.7715ZM47.1565 8.77059C48.8924 10.8268 52.3538 15.9315 51.3773 17.7356C52.5757 16.2552 53.228 14.4075 53.2247 12.5028C53.2247 10.1836 52.2783 8.08414 50.7455 6.57582C50.7455 6.57582 50.7263 6.55916 50.6888 6.54613C50.6258 6.52447 50.5595 6.51441 50.4929 6.51645C50.0841 6.51645 49.1153 6.81697 47.157 8.77059H47.1565ZM39.0941 6.54613C39.0566 6.55916 39.0373 6.57582 39.0342 6.57582C38.2482 7.34961 37.6244 8.27231 37.1991 9.28999C36.7739 10.3077 36.5558 11.3999 36.5576 12.5028C36.5576 14.4856 37.2493 16.3033 38.405 17.7325C37.4342 15.9262 40.8899 10.8237 42.6284 8.77007C40.6701 6.81384 39.6987 6.51593 39.2894 6.51593C39.2225 6.51277 39.1557 6.52396 39.0935 6.54874L39.0941 6.54613ZM44.8914 6.63311C44.8914 6.63311 42.8461 5.43677 41.2482 5.37948C40.6217 5.35813 40.2394 5.58312 40.1925 5.61542C41.6821 4.6149 43.2659 4.16699 44.88 4.16699H44.8909C46.5133 4.16699 48.0888 4.6149 49.5893 5.61542C49.5429 5.5826 49.1627 5.35761 48.5336 5.37948C46.9357 5.43625 44.8904 6.62999 44.8904 6.62999L44.8914 6.63311Z" fill="white"/>
</svg>
