<svg width="24" height="24" viewBox="0 0 24 24" fill="none" xmlns="http://www.w3.org/2000/svg">
<path d="M12 18.271L7.30584 21.855C7.07325 22.0453 6.81951 22.135 6.54463 22.124C6.26975 22.1138 6.02658 22.0347 5.81513 21.8867C5.60368 21.7387 5.44002 21.5378 5.32415 21.2841C5.20743 21.0304 5.20193 20.7555 5.30766 20.4594L7.11554 14.5918L2.51654 11.3249C2.2628 11.1557 2.10421 10.9337 2.04078 10.6588C1.97734 10.3839 1.98792 10.1302 2.0725 9.8976C2.15708 9.66501 2.30509 9.45863 2.51654 9.27848C2.72799 9.09917 2.98172 9.00952 3.27775 9.00952H8.95514L10.7947 2.9198C10.9005 2.62377 11.0646 2.39625 11.287 2.23725C11.5086 2.07908 11.7463 2 12 2C12.2537 2 12.4914 2.07908 12.713 2.23725C12.9354 2.39625 13.0995 2.62377 13.2053 2.9198L15.0449 9.00952H20.7222C21.0183 9.00952 21.272 9.09917 21.4835 9.27848C21.6949 9.45863 21.8429 9.66501 21.9275 9.8976C22.0121 10.1302 22.0227 10.3839 21.9592 10.6588C21.8958 10.9337 21.7372 11.1557 21.4835 11.3249L16.8845 14.5918L18.6923 20.4594C18.7981 20.7555 18.793 21.0304 18.6771 21.2841C18.5604 21.5378 18.3963 21.7387 18.1849 21.8867C17.9734 22.0347 17.7303 22.1138 17.4554 22.124C17.1805 22.135 16.9267 22.0453 16.6942 21.855L12 18.271Z" fill="white" fill-opacity="0.6"/>
</svg>
