<svg width="44" height="44" viewBox="0 0 44 44" fill="none" xmlns="http://www.w3.org/2000/svg">
<g clip-path="url(#clip0_5279_54757)">
<path fill-rule="evenodd" clip-rule="evenodd" d="M36.2575 8.1216C36.7106 7.93092 37.2065 7.86515 37.6936 7.93115C38.1806 7.99715 38.6411 8.19249 39.0271 8.49686C39.4131 8.80122 39.7104 9.20348 39.8882 9.66175C40.066 10.12 40.1176 10.6176 40.0379 11.1026L35.8799 36.3238C35.4765 38.7566 32.8072 40.1518 30.576 38.9399C28.7097 37.9261 25.9377 36.3641 23.4444 34.7343C22.1977 33.9184 18.3789 31.3059 18.8482 29.4469C19.2515 27.8574 25.6682 21.8844 29.3349 18.3333C30.774 16.9381 30.1177 16.1333 28.4182 17.4166C24.196 20.6029 17.4219 25.4484 15.1815 26.8124C13.2052 28.0151 12.1749 28.2204 10.9429 28.0151C8.69519 27.6411 6.61069 27.0618 4.90936 26.3559C2.61036 25.4026 2.72219 22.2419 4.90752 21.3216L36.2575 8.1216Z" fill="white"/>
</g>
<defs>
<clipPath id="clip0_5279_54757">
<rect width="44" height="44" fill="white"/>
</clipPath>
</defs>
</svg>
