<svg width="75" height="34" viewBox="0 0 75 34" fill="none" xmlns="http://www.w3.org/2000/svg">
<path d="M12.4019 18.9263C12.4019 19.9803 12.9243 20.7041 14.4617 20.7042C14.9623 20.7042 15.4117 20.6406 15.8471 20.4653L15.9416 22.6851C15.5569 22.8397 14.8532 22.973 14.0629 22.973C11.2562 22.973 9.65368 21.3926 9.65368 18.997V14.2756H8V12.0977H9.79826V8.34647H12.4025V12.0977H15.7745V14.2478H12.4019V18.9263Z" fill="white"/>
<path d="M17.5441 12.0906H20.3002V22.8538H17.5441V12.0906Z" fill="white"/>
<path d="M24.804 13.6574C25.4564 12.6669 26.6095 11.9856 28.2846 11.9856L28.2851 11.9861C30.7505 11.9861 32.1938 13.6089 32.187 16.0959V22.8604H29.4089V16.7136C29.4089 15.1958 28.6839 14.2968 27.2839 14.2968C25.79 14.2968 24.8185 15.2807 24.8185 16.7555V22.8609H22.0624V12.0977H24.71L24.804 13.6574Z" fill="white"/>
<path d="M44.1171 12.0906L39.9829 16.552L44.5446 22.8538H41.4043L38.2139 18.442L36.6323 20.135V22.8538H33.8762V8.33941H36.6323V16.7489L40.8171 12.0906H44.1171Z" fill="white"/>
<path d="M17.5441 8.33941H20.3002V10.7067H17.5441V8.33941Z" fill="white"/>
<path d="M46.7486 5.41548C46.3304 5.58322 45.8821 5.66956 45.4294 5.66956H45.4226V8.34647C48.8526 8.34647 51.6306 5.65593 51.6306 2.33252H48.8745C48.875 2.77058 48.7862 3.20444 48.6133 3.60929C48.4404 4.01414 48.1867 4.38203 47.8668 4.69195C47.5468 5.00187 47.1668 5.24774 46.7486 5.41548Z" fill="white"/>
<path d="M53.3499 8.59349C53.7681 8.42574 54.2164 8.3394 54.6692 8.3394V5.65542C51.2386 5.65542 48.4611 8.34597 48.4611 11.6694C48.4611 14.9923 51.2386 17.6828 54.6692 17.6828V15.0135C52.7691 15.0135 51.224 13.517 51.224 11.6765C51.2235 11.2384 51.3123 10.8045 51.4852 10.3997C51.6581 9.99483 51.9118 9.62693 52.2318 9.31702C52.5517 9.00709 52.9317 8.76124 53.3499 8.59349Z" fill="white"/>
<path fill-rule="evenodd" clip-rule="evenodd" d="M22.0697 30.5396H22.4759L22.882 29.5143H24.3253L24.7168 30.5396H25.1886L23.868 27.1884H23.3966L22.0697 30.5396ZM24.1875 29.1769H22.9905L23.5783 27.6521H23.5924L24.1875 29.1769Z" fill="white"/>
<path d="M27.7991 30.0688L26.74 27.1884H26.2759L27.5381 30.5396H28.0241L29.2857 27.1884H28.8797L27.8205 30.0688H27.7991Z" fill="white"/>
<path d="M29.8009 27.2798C29.7498 27.3222 29.7284 27.3783 29.7284 27.4414C29.7272 27.4729 29.7325 27.5044 29.745 27.5335C29.7511 27.5476 29.7586 27.561 29.7675 27.5735C29.777 27.5868 29.788 27.5991 29.8004 27.6101C29.8506 27.6525 29.9155 27.675 29.9821 27.6733C30.0485 27.6749 30.1131 27.6524 30.1632 27.6101C30.2138 27.5606 30.2363 27.5116 30.2363 27.4414C30.2374 27.4109 30.2314 27.3805 30.2188 27.3526C30.2061 27.3246 30.1871 27.2997 30.1632 27.2798C30.1126 27.2379 30.0546 27.2167 29.9821 27.2167C29.9155 27.2138 29.8504 27.2365 29.8009 27.2798Z" fill="white"/>
<path d="M30.1851 30.5396V28.0526H29.779V30.5396H30.1851Z" fill="white"/>
<path d="M30.954 28.3127C30.8742 28.4177 30.8303 28.5587 30.8303 28.7203C30.8303 28.8955 30.8669 29.0223 30.9389 29.1067C31.0155 29.2011 31.1189 29.2718 31.2364 29.3102C31.3596 29.3526 31.5052 29.4016 31.6572 29.4436C31.795 29.4784 31.9114 29.5138 32.0053 29.5491C32.084 29.5761 32.1558 29.6192 32.2157 29.6754C32.2663 29.7249 32.2882 29.7951 32.2882 29.8865C32.2882 30.0269 32.2371 30.132 32.1431 30.1956C32.0414 30.2588 31.8967 30.2941 31.6864 30.2941C31.534 30.2941 31.3821 30.2729 31.215 30.2234C31.0553 30.1815 30.9175 30.1108 30.8162 30.0198H30.8016L30.8303 30.4062C30.9453 30.4716 31.0702 30.519 31.2004 30.5466C31.3523 30.582 31.512 30.6027 31.6864 30.6027C31.9907 30.6027 32.2303 30.5325 32.4047 30.3992C32.5785 30.2653 32.6656 30.0688 32.6656 29.8158C32.6656 29.6471 32.6291 29.5208 32.5566 29.437C32.484 29.3521 32.3827 29.2819 32.2522 29.24C32.1217 29.1976 31.9693 29.1486 31.795 29.0996C31.7724 29.0931 31.7503 29.0869 31.7287 29.0808C31.6327 29.0536 31.5472 29.0295 31.476 29.0006C31.3889 28.9658 31.3236 28.9238 31.2803 28.8743C31.2364 28.8183 31.215 28.7481 31.215 28.6637C31.215 28.5162 31.2657 28.4177 31.3675 28.3687C31.4614 28.3198 31.5992 28.2915 31.773 28.2915C31.8605 28.2921 31.9477 28.2992 32.034 28.3127C32.1229 28.3254 32.2104 28.3465 32.295 28.3758C32.3683 28.3934 32.4374 28.4244 32.4986 28.4672H32.5132L32.4913 28.1086C32.4261 28.0809 32.3316 28.0526 32.2084 28.0243C32.0852 27.9965 31.9474 27.9824 31.7877 27.9824C31.6193 27.9793 31.4519 28.008 31.2949 28.0667C31.1498 28.1228 31.0407 28.2071 30.954 28.3127Z" fill="white"/>
<path fill-rule="evenodd" clip-rule="evenodd" d="M33.2456 28.2142L33.2017 28.6006L33.2023 28.6077C33.3181 28.5092 33.4559 28.4319 33.6011 28.3829C33.7462 28.3334 33.898 28.3056 34.051 28.3056C34.2901 28.3056 34.4493 28.3546 34.5365 28.4319C34.6236 28.5092 34.667 28.6425 34.667 28.8253V28.938C34.6163 28.987 34.5218 29.0289 34.3987 29.0572C34.2682 29.0849 34.1011 29.1203 33.8835 29.1557C33.7096 29.191 33.5572 29.2259 33.4345 29.2819C33.304 29.3314 33.2096 29.4087 33.137 29.5067C33.0718 29.6052 33.0352 29.7314 33.0352 29.8931C33.0352 30.0547 33.0712 30.1885 33.1443 30.2936C33.2142 30.3978 33.3155 30.4788 33.4345 30.5254C33.5499 30.5749 33.6809 30.6027 33.826 30.6027C34.0359 30.6027 34.2102 30.5537 34.348 30.4694C34.4926 30.385 34.5944 30.2446 34.6597 30.0618H34.6816V30.5396H35.0657V28.8041C35.0657 28.5162 34.9864 28.3051 34.8267 28.1788C34.6597 28.0526 34.4206 27.9894 34.087 27.9894C33.9251 27.9878 33.7639 28.0091 33.6083 28.0526C33.4633 28.095 33.3395 28.1511 33.2456 28.2142ZM34.667 29.1905V29.7037C34.667 29.7951 34.6382 29.8865 34.5798 29.9774C34.5206 30.0748 34.4355 30.155 34.3334 30.2098C34.2248 30.2724 34.0938 30.3007 33.9419 30.3007C33.7822 30.3007 33.659 30.2658 33.5718 30.1956C33.4778 30.1249 33.434 30.0128 33.434 29.8653C33.434 29.7037 33.4852 29.584 33.5791 29.5208C33.6736 29.4577 33.8041 29.4087 33.9565 29.387C34.1377 29.3592 34.2901 29.3244 34.4133 29.2961C34.5292 29.2678 34.6163 29.2329 34.667 29.1905Z" fill="white"/>
<path d="M36.7701 27.5328C36.6688 27.6662 36.6181 27.842 36.6181 28.046C36.6153 28.1956 36.6448 28.3435 36.7048 28.4814C36.7552 28.5894 36.8356 28.6817 36.9371 28.7481C37.047 28.8154 37.1637 28.8719 37.2853 28.9168C37.42 28.9672 37.5579 29.0094 37.6982 29.043C37.8557 29.0838 38.0108 29.133 38.1627 29.1905C38.2859 29.24 38.3804 29.3031 38.4457 29.3875C38.5109 29.4648 38.5396 29.5769 38.5396 29.7107C38.5396 30.083 38.264 30.2724 37.7274 30.2724C37.517 30.2724 37.3145 30.2375 37.1109 30.1673C36.9079 30.1042 36.7341 30.0057 36.5816 29.886H36.567L36.5889 30.3219C36.7121 30.4062 36.8786 30.4764 37.0822 30.5325C37.2853 30.5886 37.4805 30.6169 37.6841 30.6169C38.0829 30.6169 38.395 30.5325 38.6195 30.3638C38.8444 30.1951 38.953 29.9426 38.953 29.6193C38.953 29.4436 38.9238 29.3031 38.8664 29.1905C38.8011 29.0784 38.7213 28.994 38.6195 28.9238C38.5182 28.8536 38.395 28.7971 38.2645 28.7551C38.134 28.7127 37.9884 28.6708 37.8365 28.6289C37.6695 28.5794 37.5243 28.5304 37.4011 28.488C37.278 28.446 37.1835 28.3829 37.1182 28.3056C37.053 28.2278 37.0164 28.1157 37.0164 27.9753C37.0164 27.7925 37.0822 27.6662 37.22 27.5889C37.3578 27.5116 37.5316 27.4763 37.742 27.4763C37.8667 27.4765 37.9909 27.4907 38.1121 27.5187C38.2314 27.5488 38.3479 27.5887 38.4603 27.6379C38.5529 27.6828 38.6404 27.7369 38.7213 27.7995H38.7359L38.7067 27.3712C38.6341 27.3152 38.5182 27.2657 38.3658 27.2096C38.2134 27.1606 38.0103 27.1323 37.7566 27.1323C37.5607 27.1283 37.366 27.1618 37.1835 27.2308C37.018 27.29 36.8742 27.3951 36.7701 27.5328Z" fill="white"/>
<path fill-rule="evenodd" clip-rule="evenodd" d="M41.3317 28.1581C41.136 28.0455 40.9183 27.9894 40.6646 27.9894C40.4307 27.9869 40.2003 28.0451 39.9975 28.1581C39.8018 28.2703 39.6494 28.4248 39.5408 28.6218C39.4317 28.8183 39.3738 29.0435 39.3738 29.2961C39.3705 29.5308 39.4279 29.7626 39.5408 29.9704C39.6456 30.163 39.8037 30.3235 39.9975 30.434C40.2 30.5478 40.4306 30.6061 40.6646 30.6027C40.8988 30.607 41.1297 30.5487 41.3317 30.434C41.5207 30.3219 41.6726 30.1673 41.7817 29.9704C41.8903 29.7739 41.9487 29.5486 41.9487 29.2961C41.9487 29.043 41.8903 28.8188 41.7817 28.6218C41.6726 28.4248 41.528 28.2703 41.3317 28.1581ZM41.3103 30.0128C41.1652 30.1885 40.9475 30.2724 40.6646 30.2724C40.3817 30.2724 40.164 30.1885 40.0195 30.0128C39.8743 29.837 39.8018 29.5981 39.8018 29.2961C39.8018 28.987 39.8743 28.7481 40.0195 28.5723C40.164 28.397 40.3817 28.3127 40.6646 28.3127C40.9549 28.3127 41.1652 28.397 41.3103 28.5723C41.4549 28.7481 41.528 28.994 41.528 29.2961C41.528 29.5986 41.4555 29.837 41.3103 30.0128Z" fill="white"/>
<path d="M42.9056 30.5396V27.0545H42.4994V30.5396H42.9056Z" fill="white"/>
<path d="M45.0306 30.1744C44.9147 30.2305 44.7842 30.2582 44.6464 30.2582C44.4068 30.2582 44.2397 30.2163 44.1458 30.1113C44.0518 30.0128 44.008 29.8582 44.008 29.6476V28.0455H43.6019V29.732C43.6019 30.0264 43.6818 30.2446 43.8415 30.385C44.0007 30.5254 44.2257 30.5956 44.5013 30.5956C44.6245 30.5956 44.7403 30.5749 44.864 30.5396C44.9851 30.4986 45.0962 30.434 45.1903 30.3497C45.2916 30.2582 45.3641 30.1461 45.4153 30.0057H45.4367V30.533H45.8214V28.046H45.4153V29.5769C45.4196 29.7036 45.3842 29.8287 45.3135 29.9355C45.2429 30.0381 45.1452 30.1206 45.0306 30.1744Z" fill="white"/>
<path d="M47.1994 30.1956C47.1342 30.139 47.0977 30.034 47.0977 29.8724L47.0971 29.8719H47.1123V28.3895H47.8519L47.9026 28.0662H47.1123V27.4828L46.7062 27.5394V28.0733L46.2849 28.1293L46.2275 28.3895H46.6988V29.9426C46.6988 30.1815 46.7641 30.3497 46.8946 30.4552C47.0251 30.5608 47.2068 30.6098 47.4312 30.6098C47.5239 30.6113 47.6164 30.602 47.7068 30.582C47.7764 30.5671 47.8444 30.5458 47.9099 30.5184L47.9464 30.1885H47.9318C47.8916 30.2104 47.8431 30.2238 47.7887 30.2388C47.7739 30.2429 47.7585 30.2471 47.7428 30.2517C47.6708 30.2724 47.5763 30.2795 47.4745 30.2795C47.3587 30.2795 47.2642 30.2512 47.1994 30.1956Z" fill="white"/>
<path d="M48.3885 27.2798C48.3379 27.3222 48.316 27.3783 48.316 27.4414C48.3147 27.4729 48.3206 27.5044 48.3331 27.5335C48.3456 27.5626 48.3646 27.5888 48.3885 27.6101C48.4386 27.6524 48.5033 27.6749 48.5697 27.6733C48.6361 27.6749 48.7007 27.6524 48.7508 27.6101C48.8019 27.5606 48.8239 27.5116 48.8239 27.4414C48.8251 27.4109 48.8192 27.3806 48.8066 27.3526C48.794 27.3246 48.7752 27.2998 48.7513 27.2798C48.7002 27.2379 48.6427 27.2167 48.5697 27.2167C48.503 27.2138 48.4379 27.2365 48.3885 27.2798Z" fill="white"/>
<path d="M48.7727 30.5396V28.0526H48.3666V30.5396H48.7727Z" fill="white"/>
<path fill-rule="evenodd" clip-rule="evenodd" d="M51.2892 28.1581C51.0935 28.0455 50.8758 27.9894 50.6221 27.9894C50.388 27.9851 50.1571 28.0435 49.955 28.1581C49.7593 28.2703 49.6068 28.4248 49.4983 28.6218C49.3892 28.8183 49.3313 29.0435 49.3313 29.2961C49.328 29.5308 49.3855 29.7626 49.4983 29.9704C49.6031 30.163 49.7612 30.3235 49.955 30.434C50.1575 30.5478 50.3881 30.6061 50.6221 30.6027C50.8563 30.607 51.0872 30.5486 51.2892 30.434C51.4782 30.3219 51.6301 30.1673 51.7392 29.9704C51.8478 29.7739 51.9062 29.5486 51.9062 29.2961C51.9062 29.043 51.8478 28.8188 51.7392 28.6218C51.6306 28.4248 51.4855 28.2703 51.2892 28.1581ZM51.2678 30.0128C51.1227 30.1885 50.9051 30.2724 50.6221 30.2724C50.3319 30.2724 50.1148 30.1885 49.977 30.0128C49.8318 29.837 49.7593 29.5981 49.7593 29.2961C49.7593 28.987 49.8318 28.7481 49.977 28.5723C50.1221 28.397 50.3392 28.3127 50.6221 28.3127C50.9124 28.3127 51.1227 28.397 51.2678 28.5723C51.4124 28.7481 51.4855 28.994 51.4855 29.2961C51.4855 29.5986 51.413 29.837 51.2678 30.0128Z" fill="white"/>
<path d="M53.2331 28.4107C53.3563 28.3546 53.4795 28.3263 53.6246 28.3263C53.8715 28.3263 54.038 28.3753 54.1252 28.4814C54.2192 28.5864 54.263 28.741 54.263 28.9516V30.5396H54.6623V28.8395C54.6623 28.5445 54.5747 28.3263 54.4222 28.193C54.2703 28.0596 54.0454 27.9894 53.7697 27.9894C53.6466 27.988 53.524 28.007 53.4075 28.0455C53.2838 28.0879 53.1752 28.1511 53.0734 28.2354C52.9795 28.3268 52.9069 28.439 52.8558 28.5794H52.8343V28.0526H52.4496V30.5396H52.8563V29.0152C52.8543 28.8866 52.8893 28.76 52.9575 28.6496C53.0216 28.5443 53.118 28.4608 53.2331 28.4107Z" fill="white"/>
<g clip-path="url(#clip0_5781_24421)">
<path d="M74.2987 8.08675C74.5399 7.43678 74.6719 6.73372 74.6719 5.9998C74.6719 5.26588 74.5399 4.56287 74.2987 3.91286L68.6719 3.39111L63.0451 3.91286C62.8039 4.56287 62.6719 5.26588 62.6719 5.9998C62.6719 6.73372 62.8039 7.43678 63.0451 8.08675L68.6719 8.60849L74.2987 8.08675Z" fill="#F0F0F0"/>
<path d="M68.6737 12C71.2535 12 73.4527 10.3717 74.3005 8.08691H63.0469C63.8947 10.3717 66.0939 12 68.6737 12Z" fill="#D80027"/>
<path d="M68.6737 0C66.0939 0 63.8947 1.62825 63.0469 3.91305H74.3005C73.4528 1.62825 71.2535 0 68.6737 0Z" fill="#D80027"/>
</g>
<g clip-path="url(#clip1_5781_24421)">
<path d="M63.0469 19.0871C63.8946 21.3719 66.0939 23.0002 68.6737 23.0002C71.2535 23.0002 73.4527 21.3719 74.3005 19.0871L68.6737 18.5654L63.0469 19.0871Z" fill="#FFDA44"/>
<path d="M68.6737 11C66.0939 11 63.8946 12.6283 63.0469 14.9131L68.6737 15.4348L74.3005 14.913C73.4527 12.6282 71.2535 11 68.6737 11Z" fill="#454545"/>
<path d="M63.0451 14.9131C62.8039 15.5631 62.6719 16.2661 62.6719 17C62.6719 17.734 62.8039 18.437 63.0451 19.087H74.2987C74.5399 18.437 74.6719 17.734 74.6719 17C74.6719 16.2661 74.5399 15.5631 74.2987 14.9131H63.0451Z" fill="#D80027"/>
</g>
<g clip-path="url(#clip2_5781_24421)">
<path d="M68.6719 34C71.9856 34 74.6719 31.3137 74.6719 28C74.6719 24.6863 71.9856 22 68.6719 22C65.3582 22 62.6719 24.6863 62.6719 28C62.6719 31.3137 65.3582 34 68.6719 34Z" fill="#D80027"/>
<path d="M71.7999 26.9571H69.713V24.8701H67.626V26.9571H65.5391V29.044H67.626V31.131H69.713V29.044H71.7999V26.9571Z" fill="#F0F0F0"/>
</g>
<defs>
<clipPath id="clip0_5781_24421">
<rect width="12" height="12" fill="white" transform="translate(62.6719)"/>
</clipPath>
<clipPath id="clip1_5781_24421">
<rect width="12" height="12" fill="white" transform="translate(62.6719 11)"/>
</clipPath>
<clipPath id="clip2_5781_24421">
<rect width="12" height="12" fill="white" transform="translate(62.6719 22)"/>
</clipPath>
</defs>
</svg>
