<svg width="343" height="36" viewBox="0 0 343 36" fill="none" xmlns="http://www.w3.org/2000/svg">
<path d="M107.502 27.4327L115.76 25.3399L119.21 35.9736L107.502 27.4327ZM126.507 13.6881H111.97L107.502 0L103.034 13.6881H88.4971L100.262 22.1724L95.7936 35.8605L107.559 27.3761L114.798 22.1724L126.507 13.6881Z" fill="#219653"/>
<path d="M137.975 12.8548H132.599V9.68682H147.239V12.8548H141.863V26.4868H137.975V12.8548ZM152.362 15.2788C152.81 14.6548 153.41 14.1828 154.162 13.8628C154.93 13.5428 155.81 13.3828 156.802 13.3828V16.8388C156.386 16.8068 156.106 16.7908 155.962 16.7908C154.89 16.7908 154.05 17.0948 153.442 17.7028C152.834 18.2948 152.53 19.1908 152.53 20.3908V26.4868H148.786V13.5748H152.362V15.2788ZM172.13 13.5748V26.4868H168.578V24.9508C168.082 25.5108 167.49 25.9428 166.802 26.2468C166.114 26.5348 165.37 26.6788 164.57 26.6788C162.874 26.6788 161.53 26.1908 160.538 25.2148C159.546 24.2388 159.05 22.7908 159.05 20.8708V13.5748H162.794V20.3188C162.794 22.3988 163.666 23.4388 165.41 23.4388C166.306 23.4388 167.026 23.1508 167.57 22.5748C168.114 21.9828 168.386 21.1108 168.386 19.9588V13.5748H172.13ZM179.942 26.6788C178.87 26.6788 177.822 26.5508 176.798 26.2948C175.774 26.0228 174.958 25.6868 174.35 25.2868L175.598 22.5988C176.174 22.9668 176.87 23.2708 177.686 23.5108C178.502 23.7348 179.302 23.8468 180.086 23.8468C181.67 23.8468 182.462 23.4548 182.462 22.6708C182.462 22.3028 182.246 22.0388 181.814 21.8788C181.382 21.7188 180.718 21.5828 179.822 21.4708C178.766 21.3108 177.894 21.1268 177.206 20.9188C176.518 20.7108 175.918 20.3428 175.406 19.8148C174.91 19.2868 174.662 18.5348 174.662 17.5588C174.662 16.7428 174.894 16.0228 175.358 15.3988C175.838 14.7588 176.526 14.2628 177.422 13.9108C178.334 13.5588 179.406 13.3828 180.638 13.3828C181.55 13.3828 182.454 13.4868 183.35 13.6948C184.262 13.8868 185.014 14.1588 185.606 14.5108L184.358 17.1748C183.222 16.5348 181.982 16.2148 180.638 16.2148C179.838 16.2148 179.238 16.3268 178.838 16.5508C178.438 16.7748 178.238 17.0628 178.238 17.4148C178.238 17.8148 178.454 18.0948 178.886 18.2548C179.318 18.4148 180.006 18.5668 180.95 18.7108C182.006 18.8868 182.87 19.0788 183.542 19.2868C184.214 19.4788 184.798 19.8388 185.294 20.3668C185.79 20.8948 186.038 21.6308 186.038 22.5748C186.038 23.3748 185.798 24.0868 185.318 24.7108C184.838 25.3348 184.134 25.8228 183.206 26.1748C182.294 26.5108 181.206 26.6788 179.942 26.6788ZM196.676 25.8628C196.308 26.1348 195.852 26.3428 195.308 26.4868C194.78 26.6148 194.22 26.6788 193.628 26.6788C192.092 26.6788 190.9 26.2868 190.052 25.5028C189.22 24.7188 188.804 23.5668 188.804 22.0468V16.7428H186.812V13.8628H188.804V10.7188H192.548V13.8628H195.764V16.7428H192.548V21.9988C192.548 22.5428 192.684 22.9668 192.956 23.2708C193.244 23.5588 193.644 23.7028 194.156 23.7028C194.748 23.7028 195.252 23.5428 195.668 23.2228L196.676 25.8628ZM206.41 13.3828C207.61 13.3828 208.698 13.6628 209.674 14.2228C210.666 14.7668 211.442 15.5428 212.002 16.5508C212.562 17.5428 212.842 18.7028 212.842 20.0308C212.842 21.3588 212.562 22.5268 212.002 23.5348C211.442 24.5268 210.666 25.3028 209.674 25.8628C208.698 26.4068 207.61 26.6788 206.41 26.6788C204.762 26.6788 203.466 26.1588 202.522 25.1188V31.1428H198.778V13.5748H202.354V15.0628C203.282 13.9428 204.634 13.3828 206.41 13.3828ZM205.762 23.6068C206.722 23.6068 207.506 23.2868 208.114 22.6468C208.738 21.9908 209.05 21.1188 209.05 20.0308C209.05 18.9428 208.738 18.0788 208.114 17.4388C207.506 16.7828 206.722 16.4548 205.762 16.4548C204.802 16.4548 204.01 16.7828 203.386 17.4388C202.778 18.0788 202.474 18.9428 202.474 20.0308C202.474 21.1188 202.778 21.9908 203.386 22.6468C204.01 23.2868 204.802 23.6068 205.762 23.6068ZM215.348 13.5748H219.092V26.4868H215.348V13.5748ZM217.22 11.7748C216.532 11.7748 215.972 11.5748 215.54 11.1748C215.108 10.7748 214.892 10.2788 214.892 9.68682C214.892 9.09482 215.108 8.59882 215.54 8.19882C215.972 7.79882 216.532 7.59881 217.22 7.59881C217.908 7.59881 218.468 7.79082 218.9 8.17482C219.332 8.55882 219.548 9.03882 219.548 9.61482C219.548 10.2388 219.332 10.7588 218.9 11.1748C218.468 11.5748 217.908 11.7748 217.22 11.7748ZM222.567 8.67882H226.311V26.4868H222.567V8.67882ZM235.93 26.6788C234.57 26.6788 233.346 26.3988 232.258 25.8388C231.186 25.2628 230.346 24.4708 229.738 23.4628C229.13 22.4548 228.826 21.3108 228.826 20.0308C228.826 18.7508 229.13 17.6068 229.738 16.5988C230.346 15.5908 231.186 14.8068 232.258 14.2468C233.346 13.6708 234.57 13.3828 235.93 13.3828C237.29 13.3828 238.506 13.6708 239.578 14.2468C240.65 14.8068 241.49 15.5908 242.098 16.5988C242.706 17.6068 243.01 18.7508 243.01 20.0308C243.01 21.3108 242.706 22.4548 242.098 23.4628C241.49 24.4708 240.65 25.2628 239.578 25.8388C238.506 26.3988 237.29 26.6788 235.93 26.6788ZM235.93 23.6068C236.89 23.6068 237.674 23.2868 238.282 22.6468C238.906 21.9908 239.218 21.1188 239.218 20.0308C239.218 18.9428 238.906 18.0788 238.282 17.4388C237.674 16.7828 236.89 16.4548 235.93 16.4548C234.97 16.4548 234.178 16.7828 233.554 17.4388C232.93 18.0788 232.618 18.9428 232.618 20.0308C232.618 21.1188 232.93 21.9908 233.554 22.6468C234.178 23.2868 234.97 23.6068 235.93 23.6068ZM253.84 25.8628C253.472 26.1348 253.016 26.3428 252.472 26.4868C251.944 26.6148 251.384 26.6788 250.792 26.6788C249.256 26.6788 248.064 26.2868 247.216 25.5028C246.384 24.7188 245.968 23.5668 245.968 22.0468V16.7428H243.976V13.8628H245.968V10.7188H249.712V13.8628H252.928V16.7428H249.712V21.9988C249.712 22.5428 249.848 22.9668 250.12 23.2708C250.408 23.5588 250.808 23.7028 251.32 23.7028C251.912 23.7028 252.416 23.5428 252.832 23.2228L253.84 25.8628Z" fill="white"/>
</svg>
