<svg width="24" height="25" viewBox="0 0 24 25" fill="none" xmlns="http://www.w3.org/2000/svg">
<rect x="10" y="6.5" width="5" height="13" fill="white"/>
<path d="M12 18.5C12.34 18.5 12.6252 18.3848 12.8556 18.1544C13.0852 17.9248 13.2 17.64 13.2 17.3C13.2 16.96 13.0852 16.6748 12.8556 16.4444C12.6252 16.2148 12.34 16.1 12 16.1C11.66 16.1 11.3752 16.2148 11.1456 16.4444C10.9152 16.6748 10.8 16.96 10.8 17.3C10.8 17.64 10.9152 17.9248 11.1456 18.1544C11.3752 18.3848 11.66 18.5 12 18.5ZM10.8 13.7H13.2V6.5H10.8V13.7ZM12 24.5C10.34 24.5 8.78 24.1848 7.32 23.5544C5.86 22.9248 4.59 22.07 3.51 20.99C2.43 19.91 1.5752 18.64 0.9456 17.18C0.3152 15.72 0 14.16 0 12.5C0 10.84 0.3152 9.28 0.9456 7.82C1.5752 6.36 2.43 5.09 3.51 4.01C4.59 2.93 5.86 2.0748 7.32 1.4444C8.78 0.8148 10.34 0.5 12 0.5C13.66 0.5 15.22 0.8148 16.68 1.4444C18.14 2.0748 19.41 2.93 20.49 4.01C21.57 5.09 22.4248 6.36 23.0544 7.82C23.6848 9.28 24 10.84 24 12.5C24 14.16 23.6848 15.72 23.0544 17.18C22.4248 18.64 21.57 19.91 20.49 20.99C19.41 22.07 18.14 22.9248 16.68 23.5544C15.22 24.1848 13.66 24.5 12 24.5Z" fill="#E84545"/>
</svg>
