<svg width="16" height="16" viewBox="0 0 16 16" fill="none" xmlns="http://www.w3.org/2000/svg">
<path d="M11.1429 12.5508C11.6568 12.6941 12.2193 12.4559 12.4145 11.9594L14.3305 7.08541C14.6451 6.28495 13.8284 5.50694 13.0441 5.86008L11.6277 6.49789C11.1958 6.69238 10.6865 6.54238 10.429 6.14479L8.80454 3.63688C8.42656 3.05333 7.57265 3.05333 7.19467 3.63688L5.57023 6.14479C5.3127 6.54238 4.80346 6.69238 4.37153 6.49789L2.95509 5.86007C2.17084 5.50693 1.3541 6.28495 1.66877 7.08541L3.58493 11.9599C3.78012 12.4564 4.3428 12.6946 4.85669 12.5512C5.78655 12.2917 6.85886 12.1438 8.00055 12.1438C9.14164 12.1438 10.2134 12.2916 11.1429 12.5508Z" fill="white"/>
</svg>
