<svg width="32" height="32" viewBox="0 0 32 32" fill="none" xmlns="http://www.w3.org/2000/svg">
<path d="M19.5 16.5C19.5 17.2911 19.2654 18.0645 18.8259 18.7223C18.3864 19.3801 17.7616 19.8928 17.0307 20.1955C16.2998 20.4983 15.4956 20.5775 14.7196 20.4231C13.9437 20.2688 13.231 19.8878 12.6716 19.3284C12.1122 18.769 11.7312 18.0563 11.5769 17.2804C11.4225 16.5044 11.5017 15.7002 11.8045 14.9693C12.1072 14.2384 12.6199 13.6136 13.2777 13.1741C13.9355 12.7346 14.7089 12.5 15.5 12.5C16.5599 12.5033 17.5754 12.9258 18.3248 13.6752C19.0742 14.4246 19.4967 15.4401 19.5 16.5ZM28 11V22C28 23.8565 27.2625 25.637 25.9497 26.9497C24.637 28.2625 22.8565 29 21 29H10C8.14348 29 6.36301 28.2625 5.05025 26.9497C3.7375 25.637 3 23.8565 3 22V11C3 9.14348 3.7375 7.36301 5.05025 6.05025C6.36301 4.7375 8.14348 4 10 4H21C22.8565 4 24.637 4.7375 25.9497 6.05025C27.2625 7.36301 28 9.14348 28 11ZM21.5 16.5C21.5 15.3133 21.1481 14.1533 20.4888 13.1666C19.8295 12.1799 18.8925 11.4108 17.7961 10.9567C16.6997 10.5026 15.4933 10.3838 14.3295 10.6153C13.1656 10.8468 12.0965 11.4182 11.2574 12.2574C10.4182 13.0965 9.8468 14.1656 9.61529 15.3295C9.38378 16.4933 9.5026 17.6997 9.95672 18.7961C10.4108 19.8925 11.1799 20.8295 12.1666 21.4888C13.1533 22.1481 14.3133 22.5 15.5 22.5C17.0913 22.5 18.6174 21.8679 19.7426 20.7426C20.8679 19.6174 21.5 18.0913 21.5 16.5ZM23.5 10C23.5 9.70333 23.412 9.41332 23.2472 9.16665C23.0824 8.91997 22.8481 8.72771 22.574 8.61418C22.2999 8.50065 21.9983 8.47094 21.7074 8.52882C21.4164 8.5867 21.1491 8.72956 20.9393 8.93934C20.7296 9.14912 20.5867 9.41639 20.5288 9.70736C20.4709 9.99834 20.5007 10.2999 20.6142 10.574C20.7277 10.8481 20.92 11.0824 21.1666 11.2472C21.4133 11.412 21.7033 11.5 22 11.5C22.3978 11.5 22.7794 11.342 23.0607 11.0607C23.342 10.7794 23.5 10.3978 23.5 10Z" fill="white"/>
</svg>
