<svg width="48" height="48" viewBox="0 0 48 48" fill="none" xmlns="http://www.w3.org/2000/svg">
<path fill-rule="evenodd" clip-rule="evenodd" d="M8 29.5002V9.37262L11 8.6621V5.5791L5 7.00015V29.5002C5 32.6668 8.8 40.7002 24 47.5002C39.2 40.7002 43 32.6668 43 29.5002V7.00015L37 5.5791V8.6621L40 9.37262V29.5002C40 30.0942 39.5208 32.2179 36.9432 35.1611C34.5779 37.8619 30.5603 41.1038 24 44.1989C17.4397 41.1038 13.4221 37.8619 11.0568 35.1611C8.47916 32.2179 8 30.0942 8 29.5002Z" fill="#EAB11F"/>
<path d="M24.0333 0.787387C24.1081 0.659099 24.2934 0.659098 24.3681 0.787386L25.5158 2.75782C25.5432 2.80481 25.589 2.83814 25.6422 2.84965L27.8708 3.33225C28.0159 3.36367 28.0732 3.53993 27.9743 3.65064L26.4549 5.35104C26.4187 5.39159 26.4012 5.44551 26.4067 5.49962L26.6364 7.76832C26.6513 7.91602 26.5014 8.02496 26.3655 7.96509L24.2789 7.04556C24.2291 7.02363 24.1724 7.02363 24.1226 7.04556L22.0359 7.96509C21.9001 8.02496 21.7502 7.91602 21.7651 7.76832L21.9948 5.49962C22.0003 5.44551 21.9828 5.39159 21.9465 5.35104L20.4272 3.65064C20.3283 3.53993 20.3855 3.36367 20.5306 3.33225L22.7593 2.84965C22.8124 2.83814 22.8583 2.80481 22.8857 2.75782L24.0333 0.787387Z" fill="#EAB11F"/>
<path d="M32.2613 3.93631C32.336 3.80802 32.5213 3.80802 32.596 3.93631L33.3476 5.2267C33.375 5.27369 33.4209 5.30702 33.474 5.31853L34.9335 5.63457C35.0786 5.66599 35.1359 5.84226 35.0369 5.95296L34.042 7.06651C34.0057 7.10707 33.9882 7.16098 33.9937 7.21509L34.1441 8.70081C34.1591 8.84851 34.0091 8.95745 33.8733 8.89758L32.5068 8.29541C32.457 8.27348 32.4003 8.27348 32.3505 8.29541L30.984 8.89758C30.8482 8.95745 30.6982 8.84851 30.7132 8.70081L30.8636 7.21509C30.8691 7.16098 30.8516 7.10707 30.8153 7.06651L29.8204 5.95296C29.7214 5.84226 29.7787 5.66599 29.9238 5.63457L31.3833 5.31853C31.4364 5.30702 31.4823 5.27369 31.5097 5.2267L32.2613 3.93631Z" fill="#EAB11F"/>
<path d="M15.8081 3.93631C15.8829 3.80802 16.0682 3.80802 16.1429 3.93631L16.8945 5.2267C16.9219 5.27369 16.9677 5.30702 17.0209 5.31853L18.4804 5.63457C18.6255 5.66599 18.6827 5.84226 18.5838 5.95296L17.5888 7.06651C17.5526 7.10707 17.5351 7.16098 17.5406 7.21509L17.691 8.70081C17.7059 8.84851 17.556 8.95745 17.4201 8.89758L16.0536 8.29541C16.0039 8.27348 15.9472 8.27348 15.8974 8.29541L14.5309 8.89758C14.395 8.95745 14.2451 8.84851 14.2601 8.70081L14.4105 7.21509C14.416 7.16098 14.3984 7.10707 14.3622 7.06651L13.3672 5.95296C13.2683 5.84226 13.3256 5.66599 13.4707 5.63457L14.9302 5.31853C14.9833 5.30702 15.0292 5.27369 15.0566 5.2267L15.8081 3.93631Z" fill="#EAB11F"/>
<path d="M23.49 15.0734L16.8983 19.7868C16.3383 20.1834 16 20.8251 16 21.5134C16 23.2518 17.96 24.2551 19.3717 23.2518L24.1667 19.8334L28.9617 23.2518C30.3733 24.2668 32.3333 23.2518 32.3333 21.5134C32.3333 20.8251 31.995 20.1718 31.435 19.7751L24.8433 15.0618C24.435 14.7818 23.8983 14.7818 23.49 15.0734Z" fill="white"/>
<path d="M23.49 23.2399L16.8983 27.9416C16.3383 28.3499 16 28.9916 16 29.6799C16 31.4183 17.96 32.4333 19.3717 31.4183L24.1667 27.9999L28.9617 31.4183C30.3733 32.4333 32.3333 31.4183 32.3333 29.6799C32.3333 28.9916 31.995 28.3383 31.435 27.9416L24.8433 23.2283C24.435 22.9483 23.8983 22.9483 23.49 23.2399Z" fill="white"/>
</svg>
