<svg width="48" height="48" viewBox="0 0 48 48" fill="none" xmlns="http://www.w3.org/2000/svg">
<path fill-rule="evenodd" clip-rule="evenodd" d="M24.3693 0.787622C24.2946 0.659334 24.1093 0.659334 24.0346 0.787622L22.8869 2.75805C22.8595 2.80505 22.8136 2.83837 22.7605 2.84988L20.5319 3.33249C20.3868 3.36391 20.3295 3.54017 20.4284 3.65088L21.9477 5.35127C21.984 5.39183 22.0015 5.44575 21.996 5.49985L21.7663 7.76855C21.7514 7.91626 21.9013 8.02519 22.0372 7.96533L24.1238 7.0458C24.1736 7.02387 24.2303 7.02387 24.2801 7.0458L26.3667 7.96533C26.5026 8.02519 26.6525 7.91626 26.6376 7.76855L26.4079 5.49985C26.4024 5.44575 26.4199 5.39183 26.4561 5.35127L27.9755 3.65088C28.0744 3.54017 28.0171 3.36391 27.872 3.33249L25.6434 2.84988C25.5902 2.83837 25.5444 2.80505 25.517 2.75805L24.3693 0.787622ZM8 9.3727V29.5002C8 30.0943 8.47916 32.218 11.0568 35.1612C13.4221 37.8619 17.4397 41.1039 24 44.199C30.5603 41.1039 34.5779 37.8619 36.9432 35.1612C39.5208 32.218 40 30.0943 40 29.5002V9.3727L37 8.66218V5.57919L43 7.00024V29.5002C43 32.6669 39.2 40.7002 24 47.5002C8.8 40.7002 5 32.6669 5 29.5002V7.00024L11 5.57919V8.66218L8 9.3727ZM32.2613 3.93675C32.336 3.80846 32.5213 3.80846 32.596 3.93675L33.3476 5.22714C33.375 5.27413 33.4209 5.30746 33.474 5.31897L34.9335 5.63501C35.0786 5.66643 35.1359 5.8427 35.0369 5.9534L34.042 7.06695C34.0057 7.10751 33.9882 7.16143 33.9937 7.21553L34.1441 8.70125C34.1591 8.84895 34.0091 8.95789 33.8733 8.89802L32.5068 8.29585C32.457 8.27392 32.4003 8.27392 32.3505 8.29585L30.984 8.89802C30.8482 8.95789 30.6982 8.84895 30.7132 8.70125L30.8636 7.21553C30.8691 7.16143 30.8516 7.10751 30.8153 7.06695L29.8204 5.9534C29.7214 5.8427 29.7787 5.66643 29.9238 5.63501L31.3833 5.31897C31.4364 5.30746 31.4823 5.27413 31.5097 5.22714L32.2613 3.93675ZM16.1429 3.93675C16.0682 3.80846 15.8829 3.80846 15.8081 3.93675L15.0566 5.22714C15.0292 5.27413 14.9833 5.30746 14.9302 5.31897L13.4707 5.63501C13.3256 5.66643 13.2683 5.8427 13.3672 5.9534L14.3622 7.06695C14.3984 7.10751 14.416 7.16143 14.4105 7.21553L14.2601 8.70125C14.2451 8.84895 14.395 8.95789 14.5309 8.89802L15.8974 8.29585C15.9472 8.27392 16.0039 8.27392 16.0536 8.29585L17.4201 8.89802C17.556 8.95789 17.7059 8.84895 17.691 8.70125L17.5406 7.21553C17.5351 7.16143 17.5526 7.10751 17.5888 7.06695L18.5838 5.9534C18.6827 5.8427 18.6255 5.66643 18.4804 5.63501L17.0209 5.31897C16.9677 5.30746 16.9219 5.27413 16.8945 5.22714L16.1429 3.93675ZM23.49 15.0735L16.8983 19.7868C16.3383 20.1835 16 20.8252 16 21.5135C16 23.2518 17.96 24.2552 19.3717 23.2518L24.1667 19.8335L28.9617 23.2518C30.3733 24.2668 32.3333 23.2518 32.3333 21.5135C32.3333 20.8252 31.995 20.1718 31.435 19.7752L24.8433 15.0618C24.435 14.7818 23.8983 14.7818 23.49 15.0735ZM16.8983 27.9417L23.49 23.24C23.8983 22.9483 24.435 22.9483 24.8433 23.2283L31.435 27.9417C31.995 28.3383 32.3333 28.9917 32.3333 29.68C32.3333 31.4183 30.3733 32.4333 28.9617 31.4183L24.1667 28L19.3717 31.4183C17.96 32.4333 16 31.4183 16 29.68C16 28.9917 16.3383 28.35 16.8983 27.9417Z" fill="white" fill-opacity="0.6"/>
</svg>
