<svg width="24" height="24" viewBox="0 0 24 24" fill="none" xmlns="http://www.w3.org/2000/svg">
<path d="M20.6266 4.84537H3.37345C3.21077 4.84556 3.05482 4.91028 2.93981 5.02534C2.8248 5.14039 2.76014 5.29637 2.76001 5.45905V6.69361C2.76001 6.75049 2.82169 6.81577 2.87209 6.84217L11.9407 12.0221C11.964 12.0354 11.9903 12.0422 12.0171 12.042C12.0444 12.0421 12.0713 12.0348 12.0948 12.0209L20.8894 6.84721C20.9388 6.81961 21.0699 6.74665 21.1191 6.71305C21.1786 6.67249 21.24 6.63577 21.24 6.56305V5.45881C21.2398 5.29617 21.1751 5.14025 21.0601 5.02525C20.9451 4.91025 20.7892 4.84556 20.6266 4.84537ZM21.1635 8.55505C21.1398 8.54158 21.1131 8.53458 21.0859 8.53475C21.0587 8.53492 21.0321 8.54225 21.0087 8.55601L16.0318 11.4842C16.0119 11.4958 15.995 11.5117 15.9821 11.5307C15.9692 11.5497 15.9608 11.5714 15.9575 11.5941C15.9541 11.6168 15.956 11.64 15.9628 11.6619C15.9696 11.6838 15.9813 11.7039 15.997 11.7206L20.9746 17.0863C20.9888 17.1018 21.0062 17.1142 21.0255 17.1226C21.0448 17.131 21.0656 17.1354 21.0867 17.1353C21.1273 17.1352 21.1663 17.119 21.195 17.0903C21.2238 17.0616 21.2399 17.0226 21.24 16.9819V8.68825C21.2401 8.66127 21.2331 8.63474 21.2196 8.61135C21.2062 8.58796 21.1868 8.56854 21.1635 8.55505ZM14.5975 12.4675C14.5739 12.4418 14.5422 12.4249 14.5076 12.4198C14.4731 12.4146 14.4378 12.4215 14.4077 12.4392L12.4128 13.613C12.2959 13.6806 12.1635 13.7166 12.0285 13.7174C11.8935 13.7183 11.7606 13.6841 11.6429 13.6181L9.88729 12.6151C9.85895 12.599 9.8262 12.5923 9.7938 12.596C9.76139 12.5997 9.73101 12.6136 9.70705 12.6358L3.04033 18.8196C3.02285 18.8359 3.00944 18.8561 3.00114 18.8786C2.99285 18.901 2.98992 18.9251 2.99258 18.9489C2.99523 18.9726 3.00341 18.9955 3.01645 19.0155C3.02949 19.0356 3.04704 19.0523 3.06769 19.0644C3.17137 19.1254 3.27145 19.1544 3.37321 19.1544H20.4499C20.4798 19.1545 20.5091 19.1457 20.534 19.1293C20.559 19.1129 20.5786 19.0895 20.5903 19.062C20.6023 19.0347 20.606 19.0045 20.601 18.9751C20.5959 18.9457 20.5824 18.9184 20.562 18.8966L14.5975 12.4675ZM8.24017 11.9042C8.25783 11.8879 8.2714 11.8677 8.27979 11.8451C8.28818 11.8226 8.29115 11.7984 8.28846 11.7745C8.28578 11.7506 8.27751 11.7277 8.26432 11.7076C8.25114 11.6875 8.23341 11.6707 8.21257 11.6587L2.98873 8.67505C2.96542 8.66181 2.93904 8.65493 2.91223 8.65509C2.88542 8.65524 2.85913 8.66244 2.83597 8.67595C2.81281 8.68946 2.79361 8.70881 2.78028 8.73207C2.76695 8.75533 2.75996 8.78168 2.76001 8.80849V16.6373C2.75984 16.6672 2.76845 16.6965 2.78475 16.7215C2.80106 16.7466 2.82436 16.7663 2.85177 16.7783C2.87918 16.7902 2.90949 16.7939 2.93895 16.7888C2.96841 16.7837 2.99573 16.7701 3.01753 16.7496L8.24017 11.9042Z" fill="white"/>
</svg>
