<svg width="32" height="32" viewBox="0 0 32 32" fill="none" xmlns="http://www.w3.org/2000/svg">
<path d="M22.4541 7.3291C21.495 6.23418 20.9664 4.82805 20.9668 3.37247H16.6314V20.7704C16.5979 21.7119 16.2005 22.6037 15.5226 23.258C14.8448 23.9122 13.9395 24.2779 12.9974 24.2781C11.0051 24.2781 9.34949 22.6505 9.34949 20.6301C9.34949 18.2168 11.6786 16.4069 14.0778 17.1505V12.7169C9.23724 12.0714 5 15.8316 5 20.6301C5 25.3023 8.87245 28.6276 12.9834 28.6276C17.389 28.6276 20.9668 25.0498 20.9668 20.6301V11.8049C22.7249 13.0674 24.8356 13.7448 27 13.7411V9.40563C27 9.40563 24.3622 9.5319 22.4541 7.3291Z" fill="white"/>
</svg>
