<svg width="48" height="48" viewBox="0 0 48 48" fill="none" xmlns="http://www.w3.org/2000/svg">
<path d="M24 16L16 24L24 32L26.8 29.2L23.6 26L32 26L32 22L23.6 22L26.8 18.8L24 16ZM24 4C26.7667 4 29.3667 4.52533 31.8 5.576C34.2333 6.62533 36.35 8.05 38.15 9.85C39.95 11.65 41.3747 13.7667 42.424 16.2C43.4747 18.6333 44 21.2333 44 24C44 26.7667 43.4747 29.3667 42.424 31.8C41.3747 34.2333 39.95 36.35 38.15 38.15C36.35 39.95 34.2333 41.3753 31.8 42.426C29.3667 43.4753 26.7667 44 24 44C21.2333 44 18.6333 43.4753 16.2 42.426C13.7667 41.3753 11.65 39.95 9.85 38.15C8.05 36.35 6.62533 34.2333 5.576 31.8C4.52533 29.3667 4 26.7667 4 24C4 21.2333 4.52533 18.6333 5.576 16.2C6.62533 13.7667 8.05 11.65 9.85 9.85C11.65 8.05 13.7667 6.62533 16.2 5.576C18.6333 4.52534 21.2333 4 24 4Z" fill="white"/>
</svg>
