<svg width="16" height="16" viewBox="0 0 16 16" fill="none" xmlns="http://www.w3.org/2000/svg">
<mask id="mask0_8820_24967" style="mask-type:alpha" maskUnits="userSpaceOnUse" x="0" y="0" width="16" height="16">
<rect width="16" height="16" fill="#D9D9D9"/>
</mask>
<g mask="url(#mask0_8820_24967)">
<path d="M8.00008 15.3333L3.20008 11.7333C3.03341 11.6111 2.90286 11.4555 2.80841 11.2666C2.71397 11.0778 2.66675 10.8778 2.66675 10.6666V2.66665C2.66675 2.29998 2.7973 1.98609 3.05841 1.72498C3.31953 1.46387 3.63341 1.33331 4.00008 1.33331H12.0001C12.3667 1.33331 12.6806 1.46387 12.9417 1.72498C13.2029 1.98609 13.3334 2.29998 13.3334 2.66665V10.6666C13.3334 10.8778 13.2862 11.0778 13.1917 11.2666C13.0973 11.4555 12.9667 11.6111 12.8001 11.7333L8.00008 15.3333ZM7.30008 9.99998L11.0667 6.23331L10.1334 5.26665L7.30008 8.09998L5.90008 6.69998L4.93341 7.63331L7.30008 9.99998Z" fill="#219653"/>
</g>
</svg>
