<svg width="48" height="48" viewBox="0 0 48 48" fill="none" xmlns="http://www.w3.org/2000/svg">
<g id="Group 512754">
<path id="Vector" d="M47.2818 29.8101C44.076 42.6688 31.0525 50.4943 18.1923 47.2877C5.33741 44.0819 -2.48817 31.0576 0.719164 18.1996C3.9235 5.3395 16.9472 -2.48684 29.8036 0.719008C42.6629 3.92486 50.4878 16.9508 47.2818 29.8101Z" fill="#F7931A"/>
<path id="Vector_2" d="M34.5819 20.5841C35.0595 17.3902 32.6278 15.6733 29.3027 14.5279L30.3814 10.2014L27.7479 9.54512L26.6977 13.7576C26.0055 13.5851 25.2944 13.4223 24.5877 13.261L25.6454 9.02082L23.0133 8.3645L21.934 12.6895C21.3609 12.5589 20.7982 12.4299 20.2522 12.2942L20.2552 12.2807L16.6234 11.3738L15.9228 14.1866C15.9228 14.1866 17.8768 14.6344 17.8355 14.6622C18.9021 14.9285 19.0949 15.6343 19.0626 16.1938L17.834 21.1226C17.9075 21.1414 18.0028 21.1684 18.1078 21.2104C18.02 21.1886 17.9263 21.1646 17.8295 21.1414L16.1073 28.0458C15.9768 28.3699 15.646 28.8559 14.9004 28.6715C14.9267 28.7097 12.9862 28.1936 12.9862 28.1936L11.6788 31.2082L15.106 32.0625C15.7435 32.2223 16.3683 32.3895 16.9834 32.5472L15.8936 36.9231L18.5241 37.5793L19.6034 33.2498C20.322 33.4449 21.0197 33.6249 21.7022 33.7945L20.6266 38.1036L23.2601 38.7601L24.3499 34.3924C28.8406 35.2421 32.2176 34.8994 33.639 30.8378C34.7843 27.5674 33.582 25.6809 31.2193 24.4508C32.9399 24.054 34.236 22.922 34.5819 20.5841ZM28.5646 29.0217C27.7509 32.2921 22.2444 30.5241 20.4592 30.0809L21.9054 24.2834C23.6906 24.729 29.4153 25.6111 28.5646 29.0217ZM29.3793 20.5367C28.6366 23.5117 24.0536 22.0001 22.5671 21.6297L23.8782 16.3716C25.3648 16.7422 30.1526 17.4337 29.3793 20.5367Z" fill="white"/>
</g>
</svg>
