<svg width="60" height="38" viewBox="0 0 60 38" fill="none" xmlns="http://www.w3.org/2000/svg">
<g id="Group 512751">
<path id="Vector" d="M21.8887 4.06793H38.1125V33.2195H21.8887V4.06793Z" fill="#FF5F00"/>
<g id="Group 512750">
<path id="Vector_2" d="M22.9177 18.6441C22.9177 12.7211 25.6988 7.46755 29.9736 4.06817C26.832 1.596 22.8663 0.102417 18.5399 0.102417C8.29016 0.102417 -0.00195312 8.39453 -0.00195312 18.6441C-0.00195312 28.8934 8.29016 37.1857 18.5397 37.1857C22.8661 37.1857 26.8318 35.6921 29.9736 33.2197C25.6988 29.872 22.9177 24.567 22.9177 18.6441Z" fill="#EB001B"/>
<path id="Vector_3" d="M59.9996 18.6441C59.9996 28.8934 51.7075 37.1857 41.4579 37.1857C37.1316 37.1857 33.1658 35.6921 30.024 33.2197C34.3504 29.8206 37.0802 24.567 37.0802 18.6441C37.0802 12.7211 34.2988 7.46755 30.024 4.06817C33.1656 1.596 37.1316 0.102417 41.4579 0.102417C51.7075 0.102417 59.9996 8.44615 59.9996 18.6441Z" fill="#F79E1B"/>
</g>
</g>
</svg>
