<svg xmlns="http://www.w3.org/2000/svg" width="33" height="56" viewBox="0 0 33 56" fill="none">
    <g opacity="0.05">
      <path fill-rule="evenodd" clip-rule="evenodd" d="M21.737 0.238841C21.3259 0.364546 20.3094 -0.237325 17.8157 -1.94469C16.1057 -3.11544 14.091 -4.46868 13.3386 -4.95149C12.5862 -5.43455 10.5156 -6.76222 8.73716 -7.90198C6.95878 -9.04173 5.44777 -10.0359 5.37937 -10.1114C5.17293 -10.3387 3.46791 -11.3291 3.28286 -11.3291C3.13213 -11.3291 4.17578 -10.4028 5.83404 -9.0651C6.11983 -8.83439 6.99932 -8.12579 7.78827 -7.49049C8.57723 -6.85494 9.44529 -6.04747 9.7174 -5.69625C10.291 -4.95519 11.2334 -4.0754 12.0328 -3.53454C12.3407 -3.32646 12.5962 -3.03034 12.6004 -2.87686C12.6078 -2.62205 16.2646 1.21559 17.1108 1.8563C17.3088 2.00633 17.9393 2.39371 18.5119 2.71714C19.0845 3.04058 19.5538 3.38663 19.5548 3.486C19.556 3.58561 19.1931 3.44763 18.7484 3.17954C18.3037 2.91145 17.8513 2.69181 17.7428 2.69132C17.3165 2.68935 18.9986 4.47056 20.0687 5.15407C20.692 5.55252 21.4754 6.17675 21.8097 6.5415L22.4171 7.20484L21.6088 6.65243C20.6119 5.97138 20.4771 6.48542 21.4222 7.36348C22.0463 7.94331 22.1768 8.33342 21.7532 8.77979L22.9804 7.98632L22.682 5.87201C22.5777 5.80348 22.4677 5.72509 22.3607 5.6418C22.0127 5.37125 21.8271 5.15235 21.9483 5.1553C22.051 5.1578 22.3392 5.31572 22.6331 5.52514L22.2336 2.6942L21.737 0.238841ZM21.6709 5.19047L20.9248 4.55664C20.5144 4.20788 20.0759 3.92208 19.9505 3.92134C19.6809 3.91986 19.6836 3.92232 20.8004 4.63486L21.6709 5.19047Z" fill="white"/>
      <path d="M19.8329 10.4572C19.8135 10.5471 19.8055 10.6439 19.8055 10.7518C19.8055 11.2762 20.0516 12.0504 20.3031 12.472L19.8329 10.4572Z" fill="white"/>
      <path d="M20.7345 13.5189C20.6808 13.6716 20.5969 13.7991 20.4895 13.8422C20.2554 13.9359 20.2709 14.0313 20.5517 14.2278C20.8785 14.4563 20.875 14.489 20.5231 14.4925C20.3022 14.4945 19.8545 14.2888 19.5282 14.0353C19.2018 13.7817 17.5682 12.6473 15.898 11.5142C14.2276 10.3811 12.0815 8.9162 11.1294 8.259C10.177 7.60157 9.28659 7.10351 9.1508 7.15221C9.01499 7.20066 10.2094 8.69139 11.8052 10.4647C14.9158 13.9216 17.95 17.26 18.5711 17.9091C18.7815 18.1287 19.9567 19.4153 21.1827 20.768C22.4089 22.1208 23.4727 23.2829 23.5468 23.3506C23.9028 23.6755 28.5219 29.0427 29.4484 30.208C30.0777 30.9993 30.3909 31.4607 30.4547 31.8031L32.5635 27.1856L31.6844 25.7947C30.6019 24.4263 28.0658 21.4979 27.5237 21.0167C27.0372 20.585 26.3843 19.6551 26.5746 19.6649C26.5941 19.6659 26.7134 19.7018 26.8898 19.7588C26.468 19.2476 26.1718 18.8958 26.0918 18.8167L20.7345 13.5189Z" fill="white"/>
      <path fill-rule="evenodd" clip-rule="evenodd" d="M30.1072 32.5641C29.9166 32.7732 29.6156 33.1682 29.3951 33.5011L28.9444 34.1827L28.3674 33.3782C26.8604 31.2782 26.0674 30.2462 24.9148 28.8846C23.706 27.4563 18.3243 21.4176 17.567 20.6396C17.3618 20.4289 16.1865 19.1619 14.9553 17.8242C13.7242 16.4864 11.9791 14.6093 11.0774 13.6528C10.1758 12.6963 8.84735 11.2496 8.12555 10.4379C7.4035 9.62626 6.50957 8.63015 6.13897 8.22433C4.93688 6.90847 1.79497 3.30006 0.94185 2.25573C0.484937 1.69618 -0.11424 0.983898 -0.389333 0.67301C-0.664673 0.362123 -1.01836 -0.0582127 -1.17531 -0.261126C-1.58471 -0.79042 -3.58621 -2.35371 -6.17047 -4.16247C-8.62391 -5.87972 -9.04674 -6.10552 -9.04674 -5.69846C-9.04674 -5.54868 -8.96292 -5.42373 -8.86019 -5.42078C-8.75747 -5.41782 -8.39383 -5.18662 -8.05183 -4.90746C-7.70983 -4.62806 -7.59791 -4.48491 -7.80311 -4.5892C-8.55724 -4.9719 -14.1481 -8.72642 -14.2225 -8.89981C-14.2645 -8.99844 -14.8241 -9.35434 -15.4661 -9.69105C-16.1078 -10.0278 -17.5763 -10.9213 -18.7296 -11.6769C-20.605 -12.9057 -21.2343 -13.2299 -21.2343 -12.9672C-21.2343 -12.8093 -17.2204 -9.5607 -16.6742 -9.27637C-16.3739 -9.12019 -15.777 -8.74339 -15.3475 -8.43914C-14.9177 -8.13489 -14.5008 -7.88574 -14.4207 -7.88574C-14.1852 -7.88574 -10.7878 -5.68862 -10.7878 -5.53638C-10.7878 -5.37897 -10.8527 -5.41537 -12.8784 -6.70491C-13.6862 -7.21896 -14.4697 -7.6393 -14.6194 -7.63856C-14.9104 -7.63733 -14.4593 -7.20419 -11.5467 -4.68832C-10.5286 -3.80903 -9.40042 -2.81291 -9.03927 -2.47472C-8.67813 -2.13653 -7.60885 -1.15173 -6.6627 -0.285968C0.0907028 5.89316 6.29169 12.4353 10.03 17.3247C11.5318 19.2889 13.0899 22.032 13.0899 22.7121C13.0899 22.9098 12.866 23.1417 12.5924 23.2276C11.995 23.415 11.9485 23.7343 12.4884 23.9391C13.0578 24.1553 13.1411 24.1261 12.9404 23.781C12.8364 23.6024 12.8563 23.5594 12.9879 23.6784C13.1123 23.7913 13.2142 23.9866 13.2142 24.1128C13.2142 24.494 14.6263 25.286 15.0317 25.1323C15.2687 25.0422 15.3466 25.0902 15.2401 25.2604C15.013 25.6237 16.7086 26.8913 17.1011 26.6518C17.3088 26.5246 17.3533 26.5947 17.2439 26.8766C17.1566 27.1016 17.1772 27.2858 17.2896 27.2858C17.4023 27.2858 17.7963 27.5625 18.1652 27.9007C18.5343 28.2389 18.9489 28.5156 19.0869 28.5156C19.2247 28.5156 19.267 28.6283 19.1809 28.766C18.9785 29.0899 20.4843 30.9752 20.9457 30.9752C21.1394 30.9752 21.2847 31.0583 21.2685 31.1596C21.1842 31.6875 21.3615 31.9637 21.9819 32.2694C22.3579 32.4548 22.6375 32.7384 22.6029 32.8995C22.5686 33.0606 22.9879 33.496 23.5351 33.8671C24.2132 34.3266 24.4975 34.682 24.4271 34.982C24.3497 35.3114 24.4353 35.3876 24.7656 35.2841C25.0098 35.2073 25.3476 35.3126 25.5215 35.5197C25.7769 35.8242 25.7719 35.8943 25.4944 35.8948C25.3068 35.8953 25.5289 36.213 25.9881 36.6011C26.8146 37.2997 26.8188 37.3134 26.392 37.9576C26.0316 38.5014 25.8943 38.5592 25.557 38.3086C25.3349 38.1435 22.8377 35.7445 20.008 32.9772C17.1782 30.21 14.5198 27.7313 14.1007 27.4688C13.6816 27.2064 13.3386 26.9405 13.3386 26.8783C13.3386 26.8158 13.4505 26.8333 13.5873 26.9169C13.7241 27.0005 13.8361 26.9602 13.8361 26.8274C13.8361 26.5795 11.994 24.9908 10.2295 23.7175C9.68232 23.3225 9.08016 22.8508 8.89163 22.669C8.7031 22.4873 8.38721 22.3997 8.18972 22.4747C7.99248 22.5495 7.41917 22.2814 6.916 21.8785C6.41283 21.4759 5.50921 20.752 4.90778 20.2702C3.55671 19.1878 2.73665 18.7209 3.03836 19.2062C3.28858 19.6088 4.72174 21.1962 7.22317 23.8425C8.10217 24.7724 13.014 30.2358 15.2966 32.8228C17.1431 34.9154 19.6692 38.0033 21.3304 40.1985C23.1742 42.6349 23.8852 43.4567 24.1404 44.3993C24.3386 45.1311 24.2621 45.9356 24.2276 47.6251L24.1582 51.0205L23.6018 49.8281C21.9418 46.2711 17.1555 39.4434 12.3686 33.8037C11.3351 32.5862 10.3191 31.3776 10.1109 31.1181C9.90245 30.8583 9.11647 29.9714 8.36407 29.1467C7.61168 28.3223 6.45063 27.0155 5.7838 26.2432C5.11721 25.4709 4.2218 24.4741 3.79399 24.0279C3.09258 23.2965 1.02269 21.0354 -2.4555 17.2019C-3.1395 16.4481 -4.53858 14.9064 -5.56457 13.7763C-6.59057 12.6459 -7.57925 11.5115 -7.76132 11.255C-7.94364 10.9987 -8.81095 10.3403 -9.68895 9.79204C-10.5669 9.24381 -11.2853 8.70959 -11.2853 8.60506C-11.2853 8.33107 -14.6612 5.88775 -15.0398 5.88775C-15.2144 5.88775 -15.868 5.46299 -16.4926 4.94353C-17.7598 3.88961 -18.7237 3.32293 -18.9194 3.51675C-19.1162 3.7113 -15.4101 9.11222 -13.1636 11.9053C-10.6921 14.9782 -9.11862 16.7319 -5.23725 20.7393C3.06671 29.3135 4.09495 30.4975 5.25526 32.8198C5.59776 33.5053 5.89871 34.588 5.93552 35.2661L6.00118 36.4824L8.16111 37.9716C12.915 41.2492 16.924 44.7963 19.7125 48.192C20.1012 48.6655 20.4813 49.1082 20.5569 49.1758C21.188 49.7396 23.3319 52.8944 24.774 55.2394L25.594 42.4466L30.1072 32.5641ZM23.0725 30.968C22.4753 30.4341 21.8829 30.0607 21.7558 30.1384C21.6287 30.2162 21.3404 30.1318 21.1148 29.951C20.8181 29.7132 20.7569 29.7078 20.8927 29.9316C20.9961 30.1018 21.4267 30.4178 21.8498 30.634C22.2729 30.8505 22.8467 31.2371 23.1245 31.4932C23.4026 31.7494 23.749 31.9546 23.8943 31.9489C24.0393 31.9432 23.6697 31.502 23.0725 30.968ZM25.2775 34.7875C25.6879 35.1763 26.0237 35.3839 26.0237 35.2486C26.0237 35.1136 25.6879 34.7575 25.2775 34.4574C24.8671 34.1573 24.5313 33.9498 24.5313 33.9962C24.5313 34.0427 24.8671 34.3986 25.2775 34.7875ZM26.7648 36.5062C26.9283 36.6061 27.1738 36.577 27.3106 36.4418C27.6346 36.1213 27.2178 35.8665 26.7935 36.1257C26.5462 36.277 26.5393 36.3682 26.7648 36.5062Z" fill="white"/>
      <path d="M-31.059 -8.53702C-31.1958 -8.64106 -31.9696 -9.19274 -32.7784 -9.76311C-33.8828 -10.5418 -34.1151 -10.8001 -33.7111 -10.8001C-33.4151 -10.8001 -33.1731 -10.6894 -33.1731 -10.5541C-33.1731 -10.4188 -33.0276 -10.3081 -32.8498 -10.3081C-32.672 -10.3081 -32.3936 -10.1768 -32.2315 -10.0164C-32.069 -9.85583 -31.683 -9.68711 -31.3734 -9.64136C-30.656 -9.5356 -25.9601 -6.46091 -25.9601 -6.09715C-25.9601 -5.93113 -26.1996 -5.97958 -26.5732 -6.2216C-27.5609 -6.86157 -27.629 -6.67883 -26.6968 -5.89104C-24.7652 -4.25814 -27.4204 -5.74371 -30.0641 -7.77456C-30.4745 -8.08987 -30.9222 -8.43298 -31.059 -8.53702Z" fill="white"/>
      <path d="M-28.4473 -18.9537C-28.5841 -18.9537 -28.6961 -19.0644 -28.6961 -19.1997C-28.6961 -19.3349 -28.5841 -19.4456 -28.4473 -19.4456C-28.3105 -19.4456 -28.1986 -19.3349 -28.1986 -19.1997C-28.1986 -19.0644 -28.3105 -18.9537 -28.4473 -18.9537Z" fill="white"/>
      <path d="M-27.6865 -18.9537C-27.8313 -18.9537 -27.9499 -19.0644 -27.9499 -19.1997C-27.9499 -19.3349 -27.9006 -19.4456 -27.8402 -19.4456C-27.7798 -19.4456 -27.6614 -19.3349 -27.5768 -19.1997C-27.4922 -19.0644 -27.5417 -18.9537 -27.6865 -18.9537Z" fill="white"/>
      <path d="M-25.9601 -17.7628C-26.3705 -18.0629 -26.7063 -18.3428 -26.7063 -18.3851C-26.7063 -18.5199 -26.4968 -18.4689 -25.8474 -18.1763C-25.499 -18.0193 -25.2139 -17.7394 -25.2139 -17.5542C-25.2139 -17.3154 -25.4313 -17.3762 -25.9601 -17.7628Z" fill="white"/>
      <path d="M-49.3198 -19.4456C-49.5384 -19.7056 -51.3188 -21.2261 -51.437 -21.429C-51.6004 -21.7096 -51.4867 -21.6912 -50.9609 -21.3513C-50.1943 -20.8554 -45.8159 -17.2544 -43.9042 -15.6678C-43.1423 -15.0352 -42.4193 -14.62 -42.2151 -14.6975C-41.9977 -14.7799 -41.8865 -14.7009 -41.9305 -14.4953C-41.9743 -14.2916 -41.83 -14.1864 -41.5676 -14.2299C-41.3149 -14.272 -41.1324 -14.1482 -41.1324 -13.935C-41.1324 -13.7331 -40.7125 -13.2576 -40.1996 -12.8789C-39.6865 -12.4999 -39.2314 -12.112 -39.1878 -12.0166C-39.0204 -11.6501 -36.5155 -9.99604 -36.22 -10.0568C-36.0489 -10.0922 -35.9091 -9.96997 -35.9091 -9.7855C-35.9091 -9.40648 -35.5562 -9.0833 -32.9244 -7.05392C-30.361 -5.07718 -25.2607 0.0964933 -22.803 3.21299C-19.6064 7.26633 -15.7643 13.9157 -14.4359 17.6936C-14.222 18.3023 -13.8193 19.402 -13.5412 20.1372C-13.0622 21.4033 -13.0385 21.9949 -13.4872 21.4894C-13.5992 21.3632 -14.4583 20.1581 -15.3962 18.8115C-18.8269 13.8852 -23.4552 8.65967 -25.9482 6.89789C-26.8349 6.2712 -27.1353 5.85922 -27.4577 4.82941C-27.8489 3.57922 -29.0702 1.48097 -30.2297 0.0667312C-31.109 -1.00539 -36.6409 -6.42108 -40.4581 -9.94635C-43.6883 -12.9298 -44.3549 -13.7031 -43.1436 -13.0621C-42.5692 -12.7581 -48.4709 -18.4367 -49.3198 -19.4456Z" fill="white"/>
      <path d="M-22.9754 -15.7529C-23.0438 -15.8318 -23.4226 -16.1415 -23.8173 -16.441C-24.2121 -16.7409 -24.4583 -16.9861 -24.3645 -16.9861C-24.0203 -16.9861 -22.5351 -16.1361 -19.8663 -14.4112C-16.6376 -12.3245 -12.0668 -9.44608 -10.6635 -8.61574C-10.1163 -8.29206 -9.54244 -7.9123 -9.38823 -7.77186C-9.23403 -7.63167 -8.35976 -7.07409 -7.44544 -6.53299C-5.6678 -5.48079 -3.90706 -4.03186 -4.1339 -3.80755C-4.20976 -3.73253 -5.03827 -4.20698 -5.97522 -4.86196C-6.91217 -5.51694 -8.85397 -6.80969 -10.2904 -7.73473C-11.7268 -8.66001 -13.2017 -9.62317 -13.5681 -9.87527C-13.9342 -10.1274 -14.6058 -10.5435 -15.0604 -10.8001C-17.9173 -12.4123 -22.6418 -15.3687 -22.9754 -15.7529Z" fill="white"/>
      <path d="M-39.3913 -12.5589C-39.5281 -12.5589 -39.64 -12.6696 -39.64 -12.8048C-39.64 -12.9401 -39.5281 -13.0508 -39.3913 -13.0508C-39.2545 -13.0508 -39.1426 -12.9401 -39.1426 -12.8048C-39.1426 -12.6696 -39.2545 -12.5589 -39.3913 -12.5589Z" fill="white"/>
      <path d="M-37.7256 -11.6646C-37.8273 -11.5638 -38.0999 -11.6685 -38.3312 -11.8973C-38.7807 -12.3417 -38.5118 -12.4553 -37.9062 -12.0766C-37.7049 -11.9506 -37.6236 -11.7654 -37.7256 -11.6646Z" fill="white"/>
      <path d="M6.38895 -10.5912C6.26011 -10.5912 6.08575 -10.7019 6.00118 -10.8372C5.91661 -10.9725 6.02208 -11.0832 6.23523 -11.0832C6.44839 -11.0832 6.623 -10.9725 6.623 -10.8372C6.623 -10.7019 6.51779 -10.5912 6.38895 -10.5912Z" fill="white"/>
      <path fill-rule="evenodd" clip-rule="evenodd" d="M10.6359 -7.63659C11.0521 -7.42679 10.9695 -7.56944 10.3539 -8.12358C9.87509 -8.55474 9.66964 -8.85062 9.89723 -8.78126C10.6041 -8.56605 15.8259 -5.12366 15.8259 -4.87303C15.8259 -4.74243 15.6364 -4.70775 15.4045 -4.79555C15.0352 -4.93575 15.0402 -4.89344 15.4431 -4.45294C16.3432 -3.46936 15.7796 -3.7537 11.8062 -6.28703C10.9575 -6.82814 10.2146 -7.4199 10.1554 -7.60216C10.0676 -7.87197 10.1566 -7.87861 10.6359 -7.63659ZM11.7841 -6.87044C12.1785 -6.56472 12.1872 -6.57333 11.8781 -6.96341C11.6903 -7.20002 11.4943 -7.39383 11.4428 -7.39383C11.2381 -7.39383 11.3697 -7.1919 11.7841 -6.87044ZM13.0899 -6.04108C13.5003 -5.83128 13.8361 -5.71494 13.8361 -5.78258C13.8361 -5.85022 13.5003 -6.07723 13.0899 -6.28703C12.6795 -6.49683 12.3437 -6.61317 12.3437 -6.54553C12.3437 -6.4779 12.6795 -6.25088 13.0899 -6.04108Z" fill="white"/>
      <path d="M9.35898 -7.88574C9.22218 -7.88574 9.11026 -7.99642 9.11026 -8.1317C9.11026 -8.26697 9.22218 -8.37765 9.35898 -8.37765C9.49578 -8.37765 9.60771 -8.26697 9.60771 -8.1317C9.60771 -7.99642 9.49578 -7.88574 9.35898 -7.88574Z" fill="white"/>
      <path d="M-19.82 -1.85983C-21.333 -2.94204 -22.62 -3.97948 -22.6799 -4.16542C-22.7396 -4.35111 -21.8514 -3.8624 -20.7058 -3.07928C-16.9326 -0.500196 -15.2718 0.78074 -15.4111 1.00357C-15.4867 1.12458 -15.8907 0.972584 -16.3088 0.665632C-16.7271 0.358927 -18.307 -0.777633 -19.82 -1.85983Z" fill="white"/>
      <path fill-rule="evenodd" clip-rule="evenodd" d="M-18.2061 0.96865C-18.4767 0.96865 -21.3348 -1.22281 -21.4415 -1.5123C-21.6054 -1.95625 -21.1664 -1.713 -19.0706 -0.199637C-15.0475 2.70583 -13.5109 3.95873 -13.5795 4.27847C-13.6173 4.45432 -13.3683 4.839 -13.0263 5.13316C-12.4212 5.6536 -12.4195 5.66369 -12.9642 5.51513C-13.296 5.42486 -13.5238 5.4716 -13.5238 5.63024C-13.5238 5.78175 -13.9282 5.68115 -14.4565 5.3983C-15.9302 4.60903 -16.2797 4.3557 -17.43 3.24373C-18.0247 2.66869 -18.715 2.19843 -18.9637 2.19843C-19.581 2.19843 -20.2257 1.44187 -20.1752 0.777052C-20.1265 0.138059 -20.0357 0.119859 -19.3701 0.617179C-18.9943 0.898061 -18.9507 1.03506 -19.1905 1.18164C-19.4159 1.31938 -19.3139 1.46253 -18.8366 1.67749C-18.2357 1.94829 -18.1998 1.93919 -18.4916 1.59141C-18.7684 1.26158 -18.7562 1.22666 -18.409 1.35824C-18.1822 1.44433 -18.0009 1.39243 -18.0009 1.24092C-18.0009 1.09114 -18.0931 0.96865 -18.2061 0.96865ZM-13.9088 4.38275C-13.8486 4.32323 -14.6376 3.64144 -15.6618 2.86767C-16.6861 2.09365 -17.6196 1.46056 -17.736 1.46056C-18.0805 1.46056 -18.2516 2.16817 -17.9516 2.35141C-17.7842 2.45373 -17.7452 2.40847 -17.8529 2.23655C-17.9504 2.08037 -17.9044 1.95247 -17.7504 1.95247C-17.3067 1.95247 -16.5085 2.43774 -16.5085 2.70755C-16.5085 2.86669 -16.6821 2.86176 -17.0002 2.69329C-17.4017 2.48103 -17.4654 2.50193 -17.347 2.80765C-17.2669 3.01377 -17.0908 3.18224 -16.9555 3.18224C-16.8204 3.18224 -16.3924 3.40557 -16.0048 3.67858C-15.5367 4.00816 -15.244 4.08539 -15.1333 3.90855C-15.0221 3.73073 -14.809 3.78336 -14.4926 4.06646C-14.2317 4.30011 -13.969 4.44227 -13.9088 4.38275Z" fill="white"/>
      <path d="M3.9492 1.00038C3.64128 0.838047 3.38956 0.653827 3.38956 0.591108C3.38956 0.330642 3.8497 0.505025 4.16757 0.88601C4.47699 1.25691 4.4566 1.26773 3.9492 1.00038Z" fill="white"/>
      <path d="M6.92719 2.93629C6.59538 2.93629 5.6281 2.18293 5.6281 1.92468C5.6281 1.7894 5.96388 1.87475 6.37427 2.11455C7.07841 2.52579 7.3545 2.93629 6.92719 2.93629Z" fill="white"/>
      <path d="M15.5341 9.65923C12.9352 7.92278 5.9196 3.10034 5.25501 2.59343C4.98141 2.38486 4.86948 2.21121 5.00628 2.20753C5.38335 2.19744 17.3866 10.3932 17.5033 10.7404C17.5593 10.907 16.673 10.4205 15.5341 9.65923Z" fill="white"/>
      <path d="M8.15788 3.92011C8.03128 3.92011 7.77385 3.73491 7.58606 3.50863C7.28485 3.14535 7.30326 3.11215 7.74226 3.22627C8.54241 3.43435 13.4846 6.70039 13.1608 6.80713C12.9986 6.86075 12.5526 6.69645 12.1696 6.44238C11.7865 6.18806 10.779 5.51661 9.9308 4.95017C9.0824 4.38374 8.28473 3.92011 8.15788 3.92011Z" fill="white"/>
      <path d="M6.8864 4.65798C6.74164 4.65798 6.623 4.5473 6.623 4.41202C6.623 4.27675 6.67224 4.16607 6.73269 4.16607C6.79312 4.16607 6.91152 4.27675 6.99608 4.41202C7.08065 4.5473 7.03115 4.65798 6.8864 4.65798Z" fill="white"/>
      <path d="M7.6179 5.14989C7.4811 5.14989 7.36917 5.03306 7.36917 4.88991C7.36917 4.45703 8.81402 5.44233 8.9849 5.99204C9.07767 6.28989 9.19531 6.3804 9.26745 6.20897C9.43459 5.81224 10.1052 6.09239 10.1052 6.55896C10.1052 6.84304 10.0256 6.86665 9.77137 6.65784C9.58781 6.50731 9.35774 6.4628 9.26049 6.55921C9.16299 6.65562 9.00529 6.62685 8.91028 6.49551C8.81502 6.36417 8.51331 6.12854 8.23972 5.97212C7.96612 5.81569 7.77037 5.56653 7.80445 5.41872C7.83853 5.2709 7.7547 5.14989 7.6179 5.14989Z" fill="white"/>
      <path d="M-5.8138 7.57082C-5.8133 7.96189 -8.84004 5.88628 -9.01117 5.37813C-9.09623 5.12578 -8.97112 5.1457 -8.52665 5.45561C-8.19709 5.68533 -7.45191 6.18093 -6.87089 6.557C-6.28962 6.93281 -5.81405 7.38906 -5.8138 7.57082Z" fill="white"/>
      <path d="M-11.5822 7.00119C-11.7638 7.18098 -13.0263 6.60299 -13.0263 6.34006C-13.0263 6.22668 -12.8863 6.13715 -12.7154 6.14158C-12.3026 6.15191 -11.4089 6.82976 -11.5822 7.00119Z" fill="white"/>
      <path d="M14.1142 7.60944C13.9774 7.60944 13.7963 7.49876 13.7117 7.36348C13.6271 7.22821 13.6699 7.11753 13.8067 7.11753C13.9435 7.11753 14.1246 7.22821 14.2092 7.36348C14.2937 7.49876 14.251 7.60944 14.1142 7.60944Z" fill="white"/>
      <path d="M15.3284 8.14808C15.3284 8.47151 14.7631 8.26909 14.6392 7.90139C14.5785 7.72159 14.6924 7.66675 14.9345 7.75849C15.1511 7.84088 15.3284 8.016 15.3284 8.14808Z" fill="white"/>
      <path d="M-1.76728 10.4979C-1.9767 10.567 -4.63558 8.83602 -5.2952 8.20121C-5.35216 8.14611 -5.22755 8.10135 -5.01837 8.10135C-4.80919 8.10135 -4.23488 8.40559 -3.74191 8.77772C-3.24894 9.14985 -2.54106 9.66857 -2.16872 9.93076C-1.79662 10.1927 -1.6158 10.448 -1.76728 10.4979Z" fill="white"/>
      <path d="M12.8412 8.47028C12.7044 8.55391 12.5924 8.50496 12.5924 8.36181C12.5924 8.21867 12.7044 8.10135 12.8412 8.10135C12.978 8.10135 13.0899 8.15005 13.0899 8.20981C13.0899 8.26958 12.978 8.38666 12.8412 8.47028Z" fill="white"/>
      <path d="M13.8361 9.27406C13.5625 9.10509 13.3386 8.88275 13.3386 8.77994C13.3386 8.4993 13.6983 8.55538 14.035 8.8884C14.5106 9.35867 14.3808 9.61028 13.8361 9.27406Z" fill="white"/>
      <path fill-rule="evenodd" clip-rule="evenodd" d="M0.680691 15.1615C-2.64826 12.7292 -5.06712 10.659 -5.06712 10.2419C-5.06712 9.98856 -4.54081 10.357 -0.126431 13.6995C1.79224 15.1521 4.33696 17.0603 5.52835 17.9393C7.60422 19.4711 8.80755 20.7053 8.67498 21.1665C8.64066 21.2855 8.74339 21.3829 8.90307 21.3829C9.0625 21.3829 9.12791 21.4476 9.04807 21.5266C8.83691 21.7351 6.75781 20.7784 6.17952 20.2065C5.53184 19.566 1.88328 17.0325 0.775209 16.4537C0.32576 16.2188 -0.733077 14.7421 -0.452017 14.7421C-0.388843 14.7421 -0.00878562 15.0314 0.392659 15.3851C1.12441 16.0297 2.4051 16.7816 2.54165 16.6463C2.5817 16.6067 1.74424 15.9385 0.680691 15.1615ZM5.50373 18.9632C5.77733 19.1007 5.66541 18.9305 5.25501 18.5852C4.84461 18.2399 4.3969 17.9568 4.2601 17.9563C3.97631 17.955 4.76028 18.5899 5.50373 18.9632ZM6.65235 19.9072C6.78915 19.9072 6.83193 19.7965 6.74736 19.6612C6.6628 19.526 6.48172 19.4153 6.34492 19.4153C6.20812 19.4153 6.16534 19.526 6.24991 19.6612C6.33447 19.7965 6.51555 19.9072 6.65235 19.9072Z" fill="white"/>
      <path d="M16.3547 11.5447C16.2485 11.5447 15.9209 11.2916 15.6271 10.9825C15.123 10.4517 15.1195 10.4205 15.5657 10.4205C15.8254 10.4205 15.9749 10.5218 15.8973 10.6455C15.8199 10.7695 15.9122 10.8159 16.1022 10.749C16.5546 10.5897 17.3735 11.0115 17.1879 11.3083C17.1086 11.4353 17.2088 11.4763 17.4105 11.3998C17.6274 11.3177 17.8888 11.466 18.0492 11.7624C18.2092 12.058 18.4711 12.2073 18.6865 12.1254C18.9243 12.0351 19.1387 12.2108 19.2984 12.6264C19.4337 12.9784 19.7152 13.2664 19.9236 13.2664C20.1323 13.2664 20.303 13.3771 20.303 13.5124C20.303 13.978 19.7466 13.7556 18.1492 12.6515C17.2687 12.0428 16.4611 11.5447 16.3547 11.5447Z" fill="white"/>
      <path d="M5.30674 15.6337C5.17566 15.7633 3.43931 14.6246 0.102897 12.2211C-0.841764 11.5405 -1.04398 11.2988 -0.668404 11.2988C-0.38859 11.2988 0.107121 11.5046 0.433451 11.7562C0.75978 12.0076 1.87382 12.7747 2.90952 13.4607C4.84908 14.7456 5.55646 15.3868 5.30674 15.6337Z" fill="white"/>
      <path d="M9.75296 22.7096C9.53633 22.6272 9.35898 22.4521 9.35898 22.32C9.35898 21.9966 9.92434 22.199 10.0482 22.5667C10.1089 22.7465 9.99497 22.8013 9.75296 22.7096Z" fill="white"/>
    </g>
</svg>
