<svg xmlns="http://www.w3.org/2000/svg" width="43" height="41" viewBox="0 0 43 41" fill="none">
    <g opacity="0.05">
      <path fill-rule="evenodd" clip-rule="evenodd" d="M73.9961 21.8733C73.585 21.999 72.5685 21.3971 70.0747 19.6898C68.3647 18.519 66.35 17.1658 65.5977 16.683C64.8453 16.1999 62.7746 14.8722 60.9962 13.7325C59.2178 12.5927 57.7068 11.5986 57.6384 11.5231C57.432 11.2958 55.7269 10.3053 55.5419 10.3053C55.3912 10.3053 56.4348 11.2316 58.0931 12.5694C58.3789 12.8001 59.2583 13.5087 60.0473 14.144C60.8363 14.7795 61.7043 15.587 61.9764 15.9382C62.55 16.6793 63.4924 17.5591 64.2918 18.0999C64.5997 18.308 64.8552 18.6041 64.8594 18.7576C64.8669 19.0124 68.5237 22.85 69.3698 23.4908C69.5678 23.6408 70.1984 24.0282 70.7709 24.3516C71.3435 24.675 71.8128 25.0211 71.8138 25.1205C71.8151 25.2201 71.4522 25.0821 71.0074 24.814C70.5627 24.5459 70.1103 24.3263 70.0018 24.3258C69.5755 24.3238 71.2577 26.105 72.3277 26.7885C72.951 27.187 73.7345 27.8112 74.0688 28.176L74.6761 28.8393L73.8678 28.2869C72.8709 27.6058 72.7361 28.1199 73.6813 28.9979C74.3053 29.5778 74.4358 29.9679 74.0122 30.4142L75.2394 29.6208L74.9411 27.5065C74.8367 27.4379 74.7267 27.3595 74.6197 27.2763C74.2717 27.0057 74.0862 26.7868 74.2073 26.7898C74.3101 26.7923 74.5983 26.9502 74.8921 27.1596L74.4927 24.3287L73.9961 21.8733ZM73.93 26.8249L73.1838 26.1911C72.7734 25.8423 72.3349 25.5565 72.2095 25.5558C71.9399 25.5543 71.9427 25.5568 73.0594 26.2693L73.93 26.8249Z" fill="white"/>
      <path d="M72.0919 32.0916C72.0725 32.1816 72.0645 32.2784 72.0645 32.3862C72.0645 32.9107 72.3106 33.6848 72.5621 34.1065L72.0919 32.0916Z" fill="white"/>
      <path d="M72.9935 35.1534C72.9398 35.3061 72.8559 35.4335 72.7485 35.4766C72.5145 35.5704 72.5299 35.6658 72.8107 35.8623C73.1375 36.0908 73.1341 36.1235 72.7821 36.1269C72.5612 36.1289 72.1135 35.9233 71.7872 35.6697C71.4609 35.4161 69.8272 34.2818 68.157 33.1487C66.4866 32.0156 64.3406 30.5507 63.3884 29.8935C62.4361 29.236 61.5456 28.738 61.4098 28.7867C61.274 28.8351 62.4684 30.3258 64.0642 32.0992C67.1748 35.5561 70.209 38.8944 70.8301 39.5435C71.0405 39.7632 72.2158 41.0497 73.4417 42.4025C74.6679 43.7552 75.7317 44.9174 75.8059 44.985C76.1618 45.3099 80.7809 50.6772 81.7074 51.8425C82.3367 52.6338 82.6499 53.0952 82.7138 53.4376L84.8225 48.8201L83.9434 47.4291C82.8609 46.0608 80.3249 43.1324 79.7827 42.6512C79.2962 42.2195 78.6433 41.2895 78.8336 41.2994C78.8531 41.3004 78.9724 41.3363 79.1489 41.3933C78.727 40.882 78.4308 40.5303 78.3508 40.4512L72.9935 35.1534Z" fill="white"/>
      <path fill-rule="evenodd" clip-rule="evenodd" d="M82.3662 54.1986C82.1756 54.4076 81.8746 54.8026 81.6542 55.1356L81.2035 55.8171L80.6264 55.0126C79.1194 52.9126 78.3265 51.8806 77.1739 50.519C75.965 49.0908 70.5834 43.0521 69.826 42.2741C69.6208 42.0633 68.4456 40.7964 67.2144 39.4587C65.9832 38.1209 64.2381 36.2438 63.3365 35.2873C62.4348 34.3307 61.1064 32.884 60.3846 32.0724C59.6625 31.2607 58.7686 30.2646 58.398 29.8588C57.1959 28.5429 54.054 24.9345 53.2009 23.8902C52.744 23.3306 52.1448 22.6184 51.8697 22.3075C51.5944 21.9966 51.2407 21.5762 51.0837 21.3733C50.6743 20.844 48.6728 19.2807 46.0886 17.472C43.6351 15.7547 43.2123 15.5289 43.2123 15.936C43.2123 16.0858 43.2961 16.2107 43.3988 16.2137C43.5016 16.2166 43.8652 16.4478 44.2072 16.727C44.5492 17.0064 44.6611 17.1495 44.4559 17.0453C43.7018 16.6626 38.1109 12.908 38.0366 12.7346C37.9945 12.636 37.4349 12.2801 36.7929 11.9434C36.1512 11.6067 34.6827 10.7131 33.5294 9.95757C31.654 8.72877 31.0247 8.40461 31.0247 8.66729C31.0247 8.82519 35.0387 12.0738 35.5849 12.3581C35.8851 12.5143 36.482 12.8911 36.9116 13.1953C37.3414 13.4996 37.7582 13.7487 37.8383 13.7487C38.0739 13.7487 41.4712 15.9458 41.4712 16.0981C41.4712 16.2555 41.4063 16.2191 39.3807 14.9295C38.5728 14.4155 37.7893 13.9952 37.6396 13.9959C37.3486 13.9971 37.7998 14.4303 40.7124 16.9461C41.7304 17.8254 42.8586 18.8216 43.2198 19.1597C43.5809 19.4979 44.6502 20.4827 45.5963 21.3485C52.3497 27.5276 58.5507 34.0698 62.2891 38.9591C63.7909 40.9233 65.3489 43.6665 65.3489 44.3465C65.3489 44.5443 65.125 44.7762 64.8514 44.862C64.254 45.0495 64.2075 45.3687 64.7475 45.5736C65.3168 45.7898 65.4001 45.7605 65.1994 45.4154C65.0955 45.2369 65.1154 45.1938 65.2469 45.3129C65.3713 45.4258 65.4733 45.6211 65.4733 45.7472C65.4733 46.1285 66.8853 46.9204 67.2907 46.7667C67.5278 46.6767 67.6056 46.7247 67.4992 46.8949C67.2721 47.2581 68.9677 48.5258 69.3601 48.2862C69.5678 48.1591 69.6123 48.2292 69.5029 48.511C69.4156 48.7361 69.4363 48.9203 69.5487 48.9203C69.6613 48.9203 70.0553 49.197 70.4242 49.5352C70.7933 49.8734 71.2079 50.1501 71.346 50.1501C71.4838 50.1501 71.526 50.2627 71.44 50.4005C71.2375 50.7244 72.7433 52.6096 73.2047 52.6096C73.3984 52.6096 73.5437 52.6928 73.5275 52.7941C73.4432 53.3219 73.6206 53.5981 74.2409 53.9038C74.617 54.0893 74.8965 54.3729 74.8619 54.534C74.8276 54.6951 75.247 55.1304 75.7942 55.5016C76.4722 55.961 76.7565 56.3164 76.6861 56.6165C76.6088 56.9458 76.6943 57.0221 77.0246 56.9185C77.2689 56.8418 77.6066 56.9471 77.7805 57.1541C78.0359 57.4586 78.031 57.5287 77.7534 57.5292C77.5659 57.5297 77.788 57.8475 78.2471 58.2356C79.0736 58.9341 79.0779 58.9479 78.651 59.5921C78.2906 60.1359 78.1533 60.1937 77.8161 59.943C77.594 59.778 75.0967 57.3789 72.267 54.6117C69.4372 51.8445 66.7789 49.3657 66.3598 49.1033C65.9406 48.8409 65.5977 48.575 65.5977 48.5128C65.5977 48.4503 65.7096 48.4677 65.8464 48.5514C65.9832 48.635 66.0951 48.5947 66.0951 48.4618C66.0951 48.2139 64.253 46.6253 62.4886 45.352C61.9414 44.957 61.3392 44.4852 61.1507 44.3035C60.9621 44.1217 60.6462 44.0342 60.4488 44.1092C60.2515 44.1839 59.6782 43.9159 59.175 43.513C58.6719 43.1104 57.7682 42.3865 57.1668 41.9047C55.8157 40.8222 54.9957 40.3554 55.2974 40.8407C55.5476 41.2433 56.9808 42.8307 59.4822 45.4769C60.3612 46.4069 65.2731 51.8703 67.5556 54.4572C69.4022 56.5498 71.9282 59.6378 73.5895 61.8329C75.4332 64.2694 76.1442 65.0912 76.3995 66.0337C76.5977 66.7655 76.5211 67.5701 76.4866 69.2595L76.4172 72.6549L75.8608 71.4625C74.2008 67.9055 69.4146 61.0779 64.6276 55.4381C63.5941 54.2206 62.5781 53.012 62.3699 52.7525C62.1615 52.4928 61.3755 51.6059 60.6231 50.7812C59.8707 49.9568 58.7097 48.65 58.0428 47.8777C57.3762 47.1054 56.4808 46.1085 56.053 45.6624C55.3516 44.9309 53.2817 42.6698 49.8035 38.8364C49.1195 38.0825 47.7205 36.5409 46.6945 35.4107C45.6685 34.2803 44.6798 33.146 44.4977 32.8894C44.3154 32.6332 43.4481 31.9747 42.5701 31.4265C41.6921 30.8783 40.9738 30.3441 40.9738 30.2395C40.9738 29.9655 37.5978 27.5222 37.2193 27.5222C37.0446 27.5222 36.391 27.0974 35.7664 26.578C34.4992 25.5241 33.5354 24.9574 33.3396 25.1512C33.1429 25.3458 36.8489 30.7467 39.0954 33.5397C41.567 36.6127 43.1404 38.3664 47.0218 42.3737C55.3257 50.948 56.354 52.132 57.5143 54.4543C57.8568 55.1398 58.1577 56.2225 58.1946 56.9006L58.2602 58.1168L60.4201 59.6061C65.174 62.8837 69.1831 66.4308 71.9715 69.8265C72.3603 70.2999 72.7403 70.7426 72.8159 70.8103C73.4471 71.3741 75.5909 74.5289 77.0331 76.8739L77.853 64.081L82.3662 54.1986ZM75.3316 52.6025C74.7344 52.0685 74.1419 51.6952 74.0148 51.7729C73.8877 51.8506 73.5994 51.7662 73.3738 51.5855C73.0771 51.3476 73.0159 51.3422 73.1517 51.566C73.2552 51.7362 73.6857 52.0523 74.1088 52.2685C74.5319 52.4849 75.1057 52.8716 75.3835 53.1276C75.6616 53.3839 76.0081 53.589 76.1533 53.5834C76.2983 53.5777 75.9287 53.1365 75.3316 52.6025ZM77.5365 56.4219C77.9469 56.8108 78.2827 57.0184 78.2827 56.8831C78.2827 56.7481 77.9469 56.3919 77.5365 56.0919C77.1261 55.7918 76.7903 55.5842 76.7903 55.6307C76.7903 55.6772 77.1261 56.0331 77.5365 56.4219ZM79.0239 58.1407C79.1873 58.2405 79.4328 58.2115 79.5696 58.0762C79.8937 57.7558 79.4768 57.5009 79.0525 57.7602C78.8053 57.9114 78.7983 58.0027 79.0239 58.1407Z" fill="white"/>
      <path d="M21.2001 13.0974C21.0633 12.9934 20.2895 12.4417 19.4806 11.8714C18.3763 11.0927 18.144 10.8344 18.5479 10.8344C18.8439 10.8344 19.0859 10.9451 19.0859 11.0804C19.0859 11.2156 19.2314 11.3263 19.4092 11.3263C19.5871 11.3263 19.8654 11.4577 20.0276 11.618C20.19 11.7786 20.576 11.9474 20.8857 11.9931C21.603 12.0989 26.2989 15.1735 26.2989 15.5373C26.2989 15.7033 26.0594 15.6549 25.6858 15.4129C24.6981 14.7729 24.63 14.9556 25.5622 15.7434C27.4938 17.3763 24.8387 15.8908 22.195 13.8599C21.7846 13.5446 21.3369 13.2015 21.2001 13.0974Z" fill="white"/>
      <path d="M23.8117 2.68074C23.6749 2.68074 23.563 2.57006 23.563 2.43479C23.563 2.29951 23.6749 2.18883 23.8117 2.18883C23.9485 2.18883 24.0604 2.29951 24.0604 2.43479C24.0604 2.57006 23.9485 2.68074 23.8117 2.68074Z" fill="white"/>
      <path d="M24.5725 2.68074C24.4278 2.68074 24.3091 2.57006 24.3091 2.43479C24.3091 2.29951 24.3584 2.18883 24.4188 2.18883C24.4793 2.18883 24.5977 2.29951 24.6822 2.43479C24.7668 2.57006 24.7173 2.68074 24.5725 2.68074Z" fill="white"/>
      <path d="M26.2989 3.87166C25.8885 3.57159 25.5528 3.29169 25.5528 3.24939C25.5528 3.11461 25.7622 3.16552 26.4116 3.4582C26.7601 3.61512 27.0451 3.89502 27.0451 4.08023C27.0451 4.31905 26.8277 4.2583 26.2989 3.87166Z" fill="white"/>
      <path d="M2.93922 2.18883C2.72059 1.92886 0.94022 0.408378 0.822075 0.205465C0.658663 -0.0751695 0.77233 -0.0567228 1.29814 0.283187C2.06471 0.779033 6.44316 4.38005 8.35487 5.9667C9.11672 6.5993 9.83976 7.01447 10.044 6.937C10.2613 6.8546 10.3725 6.93355 10.3285 7.13917C10.2847 7.34282 10.429 7.44809 10.6914 7.40456C10.9441 7.3625 11.1267 7.48621 11.1267 7.69946C11.1267 7.90139 11.5465 8.37681 12.0594 8.75559C12.5725 9.1346 13.0277 9.52247 13.0712 9.6179C13.2386 9.98438 15.7435 11.6384 16.039 11.5777C16.2101 11.5423 16.3499 11.6645 16.3499 11.849C16.3499 12.228 16.7028 12.5512 19.3346 14.5805C21.898 16.5573 26.9984 21.731 29.456 24.8475C32.6526 28.9008 36.4947 35.5502 37.8232 39.3281C38.0371 39.9368 38.4397 41.0365 38.7178 41.7716C39.1969 43.0378 39.2205 43.6293 38.7718 43.1239C38.6599 42.9977 37.8008 41.7925 36.8628 40.4459C33.4321 35.5197 28.8039 30.2941 26.3109 28.5324C25.4242 27.9057 25.1237 27.4937 24.8014 26.4639C24.4101 25.2137 23.1889 23.1154 22.0293 21.7012C21.1501 20.6291 15.6182 15.2134 11.801 11.6881C8.57075 8.70467 7.90418 7.93139 9.11547 8.57235C9.68986 8.87632 3.78817 3.19779 2.93922 2.18883Z" fill="white"/>
      <path d="M29.2836 5.8816C29.2153 5.80265 28.8364 5.49299 28.4417 5.19342C28.047 4.8936 27.8007 4.64838 27.8945 4.64838C28.2388 4.64838 29.7239 5.4984 32.3927 7.22329C35.6214 9.30997 40.1923 12.1884 41.5956 13.0187C42.1428 13.3424 42.7166 13.7222 42.8708 13.8626C43.025 14.0028 43.8993 14.5604 44.8136 15.1015C46.5912 16.1537 48.352 17.6026 48.1251 17.8269C48.0493 17.9019 47.2208 17.4275 46.2838 16.7725C45.3469 16.1175 43.4051 14.8248 41.9687 13.8997C40.5323 12.9745 39.0573 12.0113 38.691 11.7592C38.3248 11.5071 37.6533 11.0909 37.1986 10.8344C34.3417 9.22216 29.6172 6.26578 29.2836 5.8816Z" fill="white"/>
      <path d="M12.8677 9.07557C12.7309 9.07557 12.619 8.96489 12.619 8.82962C12.619 8.69434 12.7309 8.58366 12.8677 8.58366C13.0045 8.58366 13.1165 8.69434 13.1165 8.82962C13.1165 8.96489 13.0045 9.07557 12.8677 9.07557Z" fill="white"/>
      <path d="M14.5335 9.96987C14.4317 10.0707 14.1591 9.96593 13.9278 9.73719C13.4784 9.29275 13.7472 9.17912 14.3529 9.55789C14.5541 9.68382 14.6354 9.86902 14.5335 9.96987Z" fill="white"/>
      <path d="M58.648 11.0432C58.5191 11.0432 58.3448 10.9325 58.2602 10.7973C58.1756 10.662 58.2811 10.5513 58.4943 10.5513C58.7074 10.5513 58.882 10.662 58.882 10.7973C58.882 10.9325 58.7768 11.0432 58.648 11.0432Z" fill="white"/>
      <path fill-rule="evenodd" clip-rule="evenodd" d="M62.895 13.9979C63.3111 14.2077 63.2285 14.065 62.6129 13.5109C62.1341 13.0797 61.9287 12.7838 62.1563 12.8532C62.8631 13.0684 68.0849 16.5108 68.0849 16.7614C68.0849 16.892 67.8954 16.9267 67.6636 16.8389C67.2942 16.6987 67.2992 16.741 67.7021 17.1815C68.6023 18.1651 68.0386 17.8808 64.0652 15.3474C63.2166 14.8063 62.4736 14.2146 62.4144 14.0323C62.3266 13.7625 62.4157 13.7559 62.895 13.9979ZM64.0431 14.764C64.4376 15.0697 64.4463 15.0611 64.1371 14.671C63.9493 14.4344 63.7533 14.2406 63.7018 14.2406C63.4971 14.2406 63.6287 14.4426 64.0431 14.764ZM65.3489 15.5934C65.7593 15.8032 66.0951 15.9195 66.0951 15.8519C66.0951 15.7842 65.7593 15.5572 65.3489 15.3474C64.9385 15.1376 64.6027 15.0213 64.6027 15.0889C64.6027 15.1566 64.9385 15.3836 65.3489 15.5934Z" fill="white"/>
      <path d="M61.618 13.7487C61.4812 13.7487 61.3693 13.638 61.3693 13.5028C61.3693 13.3675 61.4812 13.2568 61.618 13.2568C61.7548 13.2568 61.8667 13.3675 61.8667 13.5028C61.8667 13.638 61.7548 13.7487 61.618 13.7487Z" fill="white"/>
      <path d="M32.439 19.7746C30.926 18.6924 29.6391 17.655 29.5791 17.469C29.5194 17.2833 30.4076 17.7721 31.5533 18.5552C35.3264 21.1343 36.9872 22.4152 36.8479 22.638C36.7723 22.759 36.3684 22.607 35.9503 22.3001C35.5319 21.9934 33.952 20.8568 32.439 19.7746Z" fill="white"/>
      <path fill-rule="evenodd" clip-rule="evenodd" d="M34.053 22.6031C33.7824 22.6031 30.9242 20.4117 30.8175 20.1222C30.6536 19.6782 31.0926 19.9215 33.1884 21.4348C37.2115 24.3403 38.7482 25.5932 38.6795 25.9129C38.6417 26.0888 38.8907 26.4735 39.2327 26.7676C39.8378 27.2881 39.8396 27.2981 39.2949 27.1496C38.9631 27.0593 38.7352 27.1061 38.7352 27.2647C38.7352 27.4162 38.3308 27.3156 37.8025 27.0328C36.3288 26.2435 35.9794 25.9902 34.829 24.8782C34.2343 24.3032 33.5441 23.8329 33.2953 23.8329C32.678 23.8329 32.0333 23.0763 32.0838 22.4115C32.1326 21.7725 32.2233 21.7543 32.8889 22.2516C33.2648 22.5325 33.3083 22.6695 33.0685 22.8161C32.8432 22.9538 32.9451 23.097 33.4225 23.312C34.0234 23.5828 34.0592 23.5736 33.7674 23.2259C33.4906 22.896 33.5028 22.8611 33.85 22.9927C34.0768 23.0788 34.2582 23.0269 34.2582 22.8754C34.2582 22.7256 34.1659 22.6031 34.053 22.6031ZM38.3502 26.0172C38.4104 25.9577 37.6214 25.2759 36.5972 24.5021C35.5729 23.7281 34.6395 23.095 34.5231 23.095C34.1786 23.095 34.0075 23.8026 34.3074 23.9859C34.4748 24.0882 34.5139 24.0429 34.4062 23.871C34.3087 23.7148 34.3547 23.5869 34.5086 23.5869C34.9524 23.5869 35.7505 24.0722 35.7505 24.342C35.7505 24.5011 35.5769 24.4962 35.2588 24.3277C34.8574 24.1155 34.7937 24.1364 34.9121 24.4421C34.9922 24.6482 35.1683 24.8167 35.3036 24.8167C35.4386 24.8167 35.8667 25.04 36.2542 25.313C36.7223 25.6426 37.015 25.7199 37.1257 25.543C37.2369 25.3652 37.4501 25.4178 37.7664 25.7009C38.0274 25.9346 38.29 26.0767 38.3502 26.0172Z" fill="white"/>
      <path d="M56.2082 22.6348C55.9003 22.4725 55.6486 22.2883 55.6486 22.2256C55.6486 21.9651 56.1087 22.1395 56.4266 22.5205C56.736 22.8914 56.7156 22.9022 56.2082 22.6348Z" fill="white"/>
      <path d="M59.1862 24.5707C58.8544 24.5707 57.8871 23.8174 57.8871 23.5591C57.8871 23.4239 58.2229 23.5092 58.6333 23.749C59.3374 24.1603 59.6135 24.5707 59.1862 24.5707Z" fill="white"/>
      <path d="M67.7932 31.2937C65.1942 29.5572 58.1786 24.7348 57.514 24.2279C57.2404 24.0193 57.1285 23.8457 57.2653 23.842C57.6424 23.8319 69.6457 32.0276 69.7623 32.3749C69.8183 32.5414 68.9321 32.0549 67.7932 31.2937Z" fill="white"/>
      <path d="M60.4169 25.5546C60.2903 25.5546 60.0329 25.3694 59.8451 25.1431C59.5439 24.7798 59.5623 24.7466 60.0013 24.8607C60.8014 25.0688 65.7436 28.3348 65.4198 28.4416C65.2576 28.4952 64.8117 28.3309 64.4286 28.0768C64.0456 27.8225 63.038 27.1511 62.1898 26.5846C61.3414 26.0182 60.5438 25.5546 60.4169 25.5546Z" fill="white"/>
      <path d="M59.1454 26.2924C59.0007 26.2924 58.882 26.1818 58.882 26.0465C58.882 25.9112 58.9313 25.8005 58.9917 25.8005C59.0522 25.8005 59.1705 25.9112 59.2551 26.0465C59.3397 26.1818 59.2902 26.2924 59.1454 26.2924Z" fill="white"/>
      <path d="M59.8769 26.7843C59.7401 26.7843 59.6282 26.6675 59.6282 26.5244C59.6282 26.0915 61.0731 27.0768 61.2439 27.6265C61.3367 27.9244 61.4543 28.0149 61.5265 27.8434C61.6936 27.4467 62.3642 27.7268 62.3642 28.1934C62.3642 28.4775 62.2846 28.5011 62.0304 28.2923C61.8468 28.1418 61.6168 28.0973 61.5195 28.1937C61.422 28.2901 61.2643 28.2613 61.1693 28.13C61.0741 27.9986 60.7723 27.763 60.4988 27.6066C60.2252 27.4501 60.0294 27.201 60.0635 27.0532C60.0976 26.9054 60.0137 26.7843 59.8769 26.7843Z" fill="white"/>
      <path d="M46.4452 29.2053C46.4457 29.5964 43.419 27.5207 43.2479 27.0126C43.1628 26.7602 43.2879 26.7802 43.7324 27.0901C44.0619 27.3198 44.8071 27.8154 45.3881 28.1915C45.9694 28.5673 46.445 29.0235 46.4452 29.2053Z" fill="white"/>
      <path d="M40.6768 28.6357C40.4952 28.8154 39.2327 28.2374 39.2327 27.9745C39.2327 27.8611 39.3727 27.7716 39.5436 27.776C39.9565 27.7864 40.8501 28.4642 40.6768 28.6357Z" fill="white"/>
      <path d="M66.3732 29.2439C66.2364 29.2439 66.0553 29.1332 65.9707 28.9979C65.8862 28.8627 65.929 28.752 66.0658 28.752C66.2026 28.752 66.3836 28.8627 66.4682 28.9979C66.5528 29.1332 66.51 29.2439 66.3732 29.2439Z" fill="white"/>
      <path d="M67.5875 29.7825C67.5875 30.106 67.0221 29.9035 66.8982 29.5358C66.8375 29.3561 66.9515 29.3012 67.1935 29.3929C67.4101 29.4753 67.5875 29.6505 67.5875 29.7825Z" fill="white"/>
      <path d="M50.4918 32.1324C50.2823 32.2015 47.6235 30.4705 46.9638 29.8357C46.9069 29.7806 47.0315 29.7358 47.2407 29.7358C47.4498 29.7358 48.0242 30.0401 48.5171 30.4122C49.0101 30.7843 49.718 31.303 50.0903 31.5652C50.4624 31.8272 50.6432 32.0825 50.4918 32.1324Z" fill="white"/>
      <path d="M65.1002 30.1047C64.9634 30.1884 64.8514 30.1394 64.8514 29.9963C64.8514 29.8531 64.9634 29.7358 65.1002 29.7358C65.237 29.7358 65.3489 29.7845 65.3489 29.8443C65.3489 29.904 65.237 30.0211 65.1002 30.1047Z" fill="white"/>
      <path d="M66.0951 30.9085C65.8215 30.7395 65.5977 30.5172 65.5977 30.4144C65.5977 30.1338 65.9573 30.1898 66.2941 30.5229C66.7696 30.9931 66.6398 31.2447 66.0951 30.9085Z" fill="white"/>
      <path fill-rule="evenodd" clip-rule="evenodd" d="M52.9397 36.7959C49.6108 34.3637 47.1919 32.2935 47.1919 31.8763C47.1919 31.623 47.7182 31.9915 52.1326 35.334C54.0513 36.7866 56.596 38.6947 57.7874 39.5738C59.8632 41.1056 61.0666 42.3398 60.934 42.8009C60.8997 42.92 61.0024 43.0174 61.1621 43.0174C61.3215 43.0174 61.3869 43.0821 61.3071 43.161C61.0959 43.3696 59.0168 42.4128 58.4386 41.841C57.7909 41.2005 54.1423 38.6669 53.0342 38.0882C52.5848 37.8533 51.526 36.3766 51.807 36.3766C51.8702 36.3766 52.2502 36.6658 52.6517 37.0195C53.3834 37.6642 54.6641 38.4161 54.8007 38.2808C54.8407 38.2412 54.0033 37.5729 52.9397 36.7959ZM57.7628 40.5977C58.0364 40.7352 57.9244 40.565 57.514 40.2196C57.1036 39.8743 56.6559 39.5912 56.5191 39.5907C56.2353 39.5895 57.0193 40.2243 57.7628 40.5977ZM58.9114 41.5417C59.0482 41.5417 59.091 41.431 59.0064 41.2957C58.9218 41.1604 58.7408 41.0497 58.604 41.0497C58.4672 41.0497 58.4244 41.1604 58.5089 41.2957C58.5935 41.431 58.7746 41.5417 58.9114 41.5417Z" fill="white"/>
      <path d="M68.6137 33.1792C68.5075 33.1792 68.1799 32.9261 67.8862 32.6169C67.382 32.0861 67.3785 32.0549 67.8248 32.0549C68.0844 32.0549 68.2339 32.1562 68.1563 32.28C68.0789 32.4039 68.1712 32.4504 68.3612 32.3835C68.8137 32.2241 69.6325 32.6459 69.4469 32.9428C69.3676 33.0697 69.4678 33.1108 69.6696 33.0343C69.8864 32.9522 70.1479 33.1005 70.3083 33.3968C70.4682 33.6925 70.7301 33.8418 70.9455 33.7599C71.1833 33.6696 71.3977 33.8452 71.5574 34.2609C71.6927 34.6129 71.9742 34.9009 72.1827 34.9009C72.3914 34.9009 72.562 35.0115 72.562 35.1468C72.562 35.6124 72.0056 35.3901 70.4083 34.286C69.5278 33.6772 68.7202 33.1792 68.6137 33.1792Z" fill="white"/>
      <path d="M57.5658 37.2682C57.4347 37.3978 55.6983 36.259 52.3619 33.8556C51.4173 33.175 51.2151 32.9332 51.5906 32.9332C51.8704 32.9332 52.3662 33.1391 52.6925 33.3907C53.0188 33.6421 54.1329 34.4092 55.1686 35.0952C57.1081 36.38 57.8155 37.0212 57.5658 37.2682Z" fill="white"/>
      <path d="M62.012 44.3441C61.7954 44.2617 61.618 44.0865 61.618 43.9545C61.618 43.631 62.1834 43.8335 62.3072 44.2012C62.3679 44.381 62.254 44.4358 62.012 44.3441Z" fill="white"/>
    </g>
</svg>
