<svg width="48" height="48" viewBox="0 0 48 48" fill="none" xmlns="http://www.w3.org/2000/svg">
<g id="Group">
<path id="Vector" fill-rule="evenodd" clip-rule="evenodd" d="M22.9525 0.813024L37.5569 24.7799L22.9529 33.3181L8.34867 24.7799L22.9525 0.813024ZM22.9525 47.8735L8.34851 27.5189L22.9529 36.0529L37.5657 27.5191L22.9525 47.8735Z" fill="#00B3FF"/>
<path id="Vector_2" d="M24.0002 48C37.255 48 48.0002 37.2548 48.0002 24C48.0002 10.7452 37.255 0 24.0002 0C10.7454 0 0.000244141 10.7452 0.000244141 24C0.000244141 37.2548 10.7454 48 24.0002 48Z" fill="#26A17B"/>
<path id="Vector_3" d="M26.5584 26.2147V26.2109C26.3924 26.2225 25.5358 26.2725 23.6298 26.2725C22.1056 26.2725 21.0368 26.2301 20.6588 26.2109V26.2147C14.7976 25.9561 10.4259 24.9375 10.4259 23.7143C10.4259 22.4951 14.8015 21.4725 20.6588 21.2141V25.1999C21.0408 25.2269 22.1404 25.2925 23.6568 25.2925C25.478 25.2925 26.3886 25.2153 26.5584 25.1999V21.2179C32.408 21.4803 36.768 22.4989 36.768 23.7183C36.768 24.9375 32.404 25.9561 26.5584 26.2185V26.2147ZM26.5584 20.8051V17.2398H34.7192V11.8032H12.5018V17.2398H20.6626V20.8051C14.0298 21.1099 9.04456 22.4217 9.04456 23.9961C9.04456 25.5703 14.0336 26.8823 20.6626 27.1909V38.6199H26.5622V27.1909C33.1834 26.8861 38.161 25.5741 38.161 23.9999C38.161 22.4295 33.1834 21.1137 26.5622 20.8089" fill="white"/>
</g>
</svg>
