<svg width="72" height="72" viewBox="0 0 72 72" fill="none" xmlns="http://www.w3.org/2000/svg">
<g id="Icons/payment/Visa">
<path id="Vector" d="M66.666 47.3043L65.991 43.9293H58.449L57.249 47.2803L51.204 47.2923C54.0818 40.3717 56.9658 33.4537 59.856 26.5383C60.348 25.3653 61.221 24.7683 62.508 24.7743C63.492 24.7833 65.097 24.7833 67.326 24.7773L72 47.2953L66.666 47.3043ZM60.147 39.3063H65.007L63.192 30.8463L60.147 39.3063ZM21.18 24.7713L27.258 24.7773L17.862 47.3073L11.709 47.3013C10.1617 41.3502 8.63374 35.3942 7.125 29.4333C6.825 28.2453 6.231 27.4143 5.088 27.0213C3.39967 26.4556 1.70351 25.9135 0 25.3953L0 24.7803H9.711C11.391 24.7803 12.372 25.5933 12.687 27.2613C13.005 28.9323 13.803 33.1863 15.087 40.0233L21.18 24.7713ZM35.61 24.7773L30.804 47.3013L25.02 47.2953L29.82 24.7713L35.61 24.7773ZM47.34 24.3603C49.071 24.3603 51.252 24.9003 52.506 25.3953L51.492 30.0663C50.358 29.6103 48.492 28.9953 46.923 29.0163C44.643 29.0553 43.233 30.0123 43.233 30.9303C43.233 32.4243 45.681 33.1773 48.201 34.8093C51.078 36.6693 51.456 38.3403 51.42 40.1553C51.381 43.9233 48.201 47.6403 41.493 47.6403C38.433 47.5953 37.329 47.3373 34.833 46.4523L35.889 41.5773C38.43 42.6423 39.507 42.9813 41.679 42.9813C43.668 42.9813 45.375 42.1773 45.39 40.7763C45.402 39.7803 44.79 39.2853 42.558 38.0553C40.326 36.8223 37.194 35.1153 37.236 31.6893C37.287 27.3033 41.442 24.3603 47.343 24.3603H47.34Z" fill="white"/>
</g>
</svg>
