<svg width="25" height="25" viewBox="0 0 25 25" fill="none" xmlns="http://www.w3.org/2000/svg">
<g clip-path="url(#clip0_353_2163)">
<path d="M12.9375 24.6873C19.5649 24.6873 24.9375 19.3147 24.9375 12.6873C24.9375 6.05984 19.5649 0.687256 12.9375 0.687256C6.31008 0.687256 0.9375 6.05984 0.9375 12.6873C0.9375 19.3147 6.31008 24.6873 12.9375 24.6873Z" fill="#F0F0F0"/>
<path d="M12.9375 0.687439C10.5292 0.687439 8.28712 1.39736 6.4078 2.6186L9.49401 4.68714L5.63315 6.68711L9.49401 8.68708L5.63315 10.687L9.49401 12.6868L5.63315 14.6867L9.49401 16.6866L5.63315 18.6868L9.49401 20.6868L6.40743 22.756C8.28684 23.9774 10.5291 24.6874 12.9375 24.6874C19.5649 24.6874 24.9375 19.3148 24.9375 12.6874C24.9375 6.06006 19.5649 0.687439 12.9375 0.687439V0.687439Z" fill="#D80027"/>
</g>
<defs>
<clipPath id="clip0_353_2163">
<rect width="24" height="24" fill="white" transform="translate(0.9375 0.6875)"/>
</clipPath>
</defs>
</svg>
