<svg width="25" height="25" viewBox="0 0 25 25" fill="none" xmlns="http://www.w3.org/2000/svg">
<g clip-path="url(#clip0_353_2801)">
<path d="M1.4339 17.1116C3.12941 21.6811 7.52793 24.9377 12.6875 24.9377C17.8471 24.9377 22.2456 21.6811 23.9411 17.1116L12.6875 16.0681L1.4339 17.1116Z" fill="#FFDA44"/>
<path d="M12.6875 0.937622C7.52793 0.937622 3.12941 4.19412 1.4339 8.76373L12.6875 9.80717L23.9411 8.76368C22.2456 4.19412 17.8471 0.937622 12.6875 0.937622Z" fill="black"/>
<path d="M1.43389 8.76379C0.951547 10.0638 0.6875 11.4698 0.6875 12.9377C0.6875 14.4055 0.951547 15.8116 1.43389 17.1116H23.9412C24.4235 15.8116 24.6875 14.4055 24.6875 12.9377C24.6875 11.4698 24.4235 10.0638 23.9411 8.76379H1.43389Z" fill="#D80027"/>
</g>
<defs>
<clipPath id="clip0_353_2801">
<rect width="24" height="24" fill="white" transform="translate(0.6875 0.937561)"/>
</clipPath>
</defs>
</svg>
