<svg width="25" height="25" viewBox="0 0 25 25" fill="none" xmlns="http://www.w3.org/2000/svg">
<g clip-path="url(#clip0_353_3997)">
<path d="M12.6875 24.1873C19.3149 24.1873 24.6875 18.8147 24.6875 12.1873C24.6875 5.55984 19.3149 0.187256 12.6875 0.187256C6.06008 0.187256 0.6875 5.55984 0.6875 12.1873C0.6875 18.8147 6.06008 24.1873 12.6875 24.1873Z" fill="#F0F0F0"/>
<path d="M7.47009 16.3613L8.51358 23.4411C9.81351 23.9235 11.2196 24.1874 12.6875 24.1874C17.847 24.1874 22.2456 20.9309 23.941 16.3613H7.47009Z" fill="black"/>
<path d="M7.47009 8.01349L8.51358 0.933675C9.81351 0.451284 11.2196 0.187378 12.6875 0.187378C17.847 0.187378 22.2456 3.44388 23.941 8.01349H7.47009Z" fill="#6DA544"/>
<path d="M0.6875 12.1874C0.6875 17.347 3.94405 21.7455 8.51361 23.4411V0.933838C3.94405 2.62935 0.6875 7.02787 0.6875 12.1874Z" fill="#A2001D"/>
</g>
<defs>
<clipPath id="clip0_353_3997">
<rect width="24" height="24" fill="white" transform="translate(0.6875 0.1875)"/>
</clipPath>
</defs>
</svg>
