<svg width="25" height="25" viewBox="0 0 25 25" fill="none" xmlns="http://www.w3.org/2000/svg">
<g clip-path="url(#clip0_353_4024)">
<path d="M12.4375 24.9373C19.0649 24.9373 24.4375 19.5647 24.4375 12.9373C24.4375 6.30984 19.0649 0.937256 12.4375 0.937256C5.81008 0.937256 0.4375 6.30984 0.4375 12.9373C0.4375 19.5647 5.81008 24.9373 12.4375 24.9373Z" fill="#F0F0F0"/>
<path d="M11.9157 12.9373H24.4374C24.4374 11.8542 24.2931 10.805 24.024 9.80688H11.9157V12.9373Z" fill="#D80027"/>
<path d="M11.9157 6.67647H22.6761C21.9416 5.47779 21.0023 4.41827 19.9072 3.54602H11.9157V6.67647Z" fill="#D80027"/>
<path d="M12.4375 24.9373C15.2616 24.9373 17.8574 23.9612 19.9073 22.3286H4.96765C7.0175 23.9612 9.61329 24.9373 12.4375 24.9373Z" fill="#D80027"/>
<path d="M2.19872 19.1981H22.6762C23.2659 18.2358 23.7232 17.1839 24.024 16.0676H0.85083C1.15163 17.1839 1.60899 18.2358 2.19872 19.1981Z" fill="#D80027"/>
<path d="M5.99613 2.81122H7.08967L6.07248 3.55021L6.46103 4.74594L5.44389 4.00696L4.42675 4.74594L4.76237 3.71296C3.86678 4.45897 3.08181 5.33301 2.43494 6.30688H2.78533L2.13784 6.77727C2.03697 6.94555 1.94022 7.11651 1.8475 7.28999L2.15669 8.2416L1.57984 7.82249C1.43645 8.12629 1.3053 8.43693 1.18741 8.75404L1.52805 9.80254H2.78533L1.76814 10.5415L2.15669 11.7373L1.13955 10.9983L0.530266 11.441C0.469281 11.9312 0.4375 12.4305 0.4375 12.9373H12.4375C12.4375 6.30988 12.4375 5.52857 12.4375 0.937256C10.0669 0.937256 7.85711 1.62491 5.99613 2.81122ZM6.46103 11.7373L5.44389 10.9983L4.42675 11.7373L4.8153 10.5415L3.79811 9.80254H5.05539L5.44389 8.6068L5.83239 9.80254H7.08967L6.07248 10.5415L6.46103 11.7373ZM6.07248 7.04587L6.46103 8.2416L5.44389 7.50262L4.42675 8.2416L4.8153 7.04587L3.79811 6.30688H5.05539L5.44389 5.11115L5.83239 6.30688H7.08967L6.07248 7.04587ZM10.7654 11.7373L9.74823 10.9983L8.73109 11.7373L9.11964 10.5415L8.10245 9.80254H9.35973L9.74823 8.6068L10.1367 9.80254H11.394L10.3768 10.5415L10.7654 11.7373ZM10.3768 7.04587L10.7654 8.2416L9.74823 7.50262L8.73109 8.2416L9.11964 7.04587L8.10245 6.30688H9.35973L9.74823 5.11115L10.1367 6.30688H11.394L10.3768 7.04587ZM10.3768 3.55021L10.7654 4.74594L9.74823 4.00696L8.73109 4.74594L9.11964 3.55021L8.10245 2.81122H9.35973L9.74823 1.61549L10.1367 2.81122H11.394L10.3768 3.55021Z" fill="#0052B4"/>
</g>
<defs>
<clipPath id="clip0_353_4024">
<rect width="24" height="24" fill="white" transform="translate(0.4375 0.9375)"/>
</clipPath>
</defs>
</svg>
