<svg width="52" height="24" viewBox="0 0 52 24" fill="none" xmlns="http://www.w3.org/2000/svg">
<path d="M0.893467 3.42879C0.344325 3.48763 -0.0531458 3.98049 0.00569087 4.52964L0.964489 13.4784C1.02333 14.0276 1.51619 14.425 2.06533 14.3662C2.61447 14.3074 3.01194 13.8145 2.95311 13.2654L2.10084 5.31088L10.0553 4.45861C10.6045 4.39978 11.0019 3.90691 10.9431 3.35777C10.8843 2.80863 10.3914 2.41116 9.84225 2.47L0.893467 3.42879ZM16.4747 12.5417L16.5841 11.5477L16.5682 11.546L16.5522 11.5447L16.4747 12.5417ZM32.4613 10.7097L32.1025 9.77633L32.4613 10.7097ZM39.6736 4.4231L38.6787 4.32224L39.6736 4.4231ZM36.1831 1.08695L36.0489 2.07789L36.1831 1.08695ZM30.7643 18.8862L29.9265 19.4322L30.7643 18.8862ZM40.927 22.3573L40.9108 23.3572L40.927 22.3573ZM50.222 23.3573C50.7743 23.3573 51.222 22.9096 51.222 22.3573C51.222 21.8051 50.7743 21.3573 50.222 21.3573V23.3573ZM0.372248 5.20152C1.6256 6.21228 3.82316 8.16763 6.5582 9.90778C9.2987 11.6514 12.68 13.25 16.3973 13.5387L16.5522 11.5447C13.2948 11.2917 10.2362 9.87741 7.63181 8.22037C5.02194 6.55985 2.9695 4.72675 1.62775 3.64469L0.372248 5.20152ZM16.3654 13.5357C21.6553 14.1176 27.7806 13.5805 32.8201 11.6431L32.1025 9.77633C27.4136 11.5789 21.6179 12.1014 16.5841 11.5477L16.3654 13.5357ZM32.8201 11.6431C34.1855 11.1182 36.0039 10.3478 37.5361 9.2465C39.0576 8.15293 40.4563 6.61643 40.6685 4.52397L38.6787 4.32224C38.5509 5.58261 37.6935 6.67041 36.3689 7.62245C35.055 8.56679 33.4371 9.26323 32.1025 9.77633L32.8201 11.6431ZM40.6685 4.52397C40.8131 3.09719 40.2072 2.00636 39.302 1.2806C38.4388 0.588459 37.3206 0.231954 36.3174 0.0960041L36.0489 2.07789C36.8284 2.18353 37.5616 2.44866 38.0509 2.84098C38.4983 3.19967 38.7462 3.65612 38.6787 4.32224L40.6685 4.52397ZM36.3174 0.0960041C33.8478 -0.238666 31.9132 0.544028 30.5352 2.03874C29.2014 3.48538 28.4557 5.52216 28.1095 7.62996C27.7608 9.75276 27.8001 12.0484 28.1229 14.1188C28.4431 16.1731 29.0568 18.0978 29.9265 19.4322L31.6021 18.3402C30.9455 17.3327 30.3959 15.7154 30.099 13.8108C29.8046 11.9222 29.773 9.84167 30.0831 7.95412C30.3956 6.05157 31.0382 4.44375 32.0056 3.3944C32.9287 2.39313 34.2082 1.82846 36.0489 2.07789L36.3174 0.0960041ZM29.9265 19.4322C31.162 21.3279 33.1244 22.2793 35.1047 22.7718C37.0804 23.2631 39.2038 23.3295 40.9108 23.3572L40.9433 21.3575C39.2317 21.3297 37.3168 21.261 35.5874 20.8309C33.8625 20.402 32.4528 19.6456 31.6021 18.3402L29.9265 19.4322ZM40.9108 23.3572C44.0168 23.4077 47.1479 23.3573 50.222 23.3573V21.3573C47.1018 21.3573 44.0304 21.4077 40.9433 21.3575L40.9108 23.3572Z" fill="url(#paint0_linear_474_6135)"/>
<defs>
<linearGradient id="paint0_linear_474_6135" x1="50.222" y1="1.01928" x2="-1.15393" y2="9.85368" gradientUnits="userSpaceOnUse">
<stop stop-color="#A82DF9"/>
<stop offset="1" stop-color="#6678E9"/>
</linearGradient>
</defs>
</svg>
