<svg width="25" height="24" viewBox="0 0 25 24" fill="none" xmlns="http://www.w3.org/2000/svg">
  <path
    d="m13.5 11.6 2.5 2.5a.95.95 0 0 1 .275.7.95.95 0 0 1-.275.7.95.95 0 0 1-.7.275.95.95 0 0 1-.7-.275l-2.8-2.8a1.03 1.03 0 0 1-.3-.725V8q0-.425.288-.713A.97.97 0 0 1 12.5 7a.97.97 0 0 1 .713.287A.97.97 0 0 1 13.5 8zm-1 9.4q-3.025 0-5.425-1.788-2.4-1.787-3.225-4.662-.125-.45.088-.85a.95.95 0 0 1 .662-.5.83.83 0 0 1 .763.187q.338.288.462.713a6.57 6.57 0 0 0 2.513 3.55A6.92 6.92 0 0 0 12.5 19q2.925 0 4.962-2.038T19.5 12q0-2.925-2.038-4.963Q15.425 5 12.5 5a6.75 6.75 0 0 0-3.225.8A7.4 7.4 0 0 0 6.75 8H8.5a.97.97 0 0 1 .713.287A.97.97 0 0 1 9.5 9q0 .424-.287.712A.97.97 0 0 1 8.5 10h-4a.97.97 0 0 1-.712-.288A.97.97 0 0 1 3.5 9V5q0-.425.288-.713A.97.97 0 0 1 4.5 4a.97.97 0 0 1 .713.287A.97.97 0 0 1 5.5 5v1.35a8.7 8.7 0 0 1 3.113-2.475A8.9 8.9 0 0 1 12.5 3q1.875 0 3.513.712a9.2 9.2 0 0 1 2.85 1.925 9.2 9.2 0 0 1 1.925 2.85A8.7 8.7 0 0 1 21.5 12q0 1.874-.712 3.512a9.2 9.2 0 0 1-1.925 2.85 9.2 9.2 0 0 1-2.85 1.926A8.7 8.7 0 0 1 12.5 21"
    fill="#EAB11F"
  />
</svg>
