<svg width="48" height="25" viewBox="0 0 48 25" fill="none" xmlns="http://www.w3.org/2000/svg">
<rect y="0.75" width="48" height="24" rx="12" fill="#EAB11F"/>
<path d="M10.0881 17.25V8.85H11.0721L16.6281 15.75H16.1121V8.85H17.3121V17.25H16.3281L10.7721 10.35H11.2881V17.25H10.0881ZM20.9184 12.474H25.2384V13.494H20.9184V12.474ZM21.0264 16.206H25.9224V17.25H19.8264V8.85H25.7544V9.894H21.0264V16.206ZM29.6803 17.25L26.8723 8.85H28.1083L30.6883 16.602H30.0643L32.7403 8.85H33.8443L36.4603 16.602H35.8603L38.4763 8.85H39.6163L36.8083 17.25H35.5483L33.1003 10.062H33.4243L30.9643 17.25H29.6803Z" fill="white"/>
</svg>
