<svg width="16" height="16" viewBox="0 0 16 16" fill="none" xmlns="http://www.w3.org/2000/svg">
    <g clip-path="url(#clip0_150_8741)">
        <path
            d="M8 15.9998C12.4183 15.9998 16 12.418 16 7.99976C16 3.58148 12.4183 -0.000244141 8 -0.000244141C3.58172 -0.000244141 0 3.58148 0 7.99976C0 12.418 3.58172 15.9998 8 15.9998Z"
            fill="#F0F0F0" />
        <path
            d="M16.0003 8.00001C16.0003 4.82832 14.1545 2.08782 11.4785 0.793823V15.2062C14.1545 13.9122 16.0003 11.1717 16.0003 8.00001Z"
            fill="#D80027" />
        <path d="M0 8.00001C0 11.1717 1.84578 13.9122 4.52175 15.2062V0.793823C1.84578 2.08782 0 4.82832 0 8.00001Z"
            fill="#D80027" />
        <path
            d="M9.3907 9.04344L10.782 8.34778L10.0864 7.99997V7.30431L8.69505 7.99997L9.3907 6.60865H8.69505L7.99939 5.56519L7.30373 6.60865H6.60808L7.30373 7.99997L5.91242 7.30431V7.99997L5.2168 8.34778L6.60808 9.04344L6.26027 9.73909H7.65158V10.7826H8.3472V9.73909H9.73852L9.3907 9.04344Z"
            fill="#D80027" />
    </g>
    <defs>
        <clipPath id="clip0_150_8741">
            <rect width="16" height="16" fill="white" />
        </clipPath>
    </defs>
</svg>
