<svg width="16" height="16" viewBox="0 0 16 16" fill="none" xmlns="http://www.w3.org/2000/svg">
    <g clip-path="url(#clip0_150_8729)">
        <path
            d="M8 15.9998C12.4183 15.9998 16 12.418 16 7.99976C16 3.58148 12.4183 -0.000244141 8 -0.000244141C3.58172 -0.000244141 0 3.58148 0 7.99976C0 12.418 3.58172 15.9998 8 15.9998Z"
            fill="#F0F0F0" />
        <path d="M7.65234 7.99993H16.0002C16.0002 7.27787 15.9039 6.57837 15.7246 5.91296H7.65234V7.99993Z"
            fill="#D80027" />
        <path d="M7.65234 3.82598H14.826C14.3362 3.02686 13.7101 2.32051 12.98 1.73901H7.65234V3.82598Z"
            fill="#D80027" />
        <path
            d="M7.99941 15.9999C9.88219 15.9999 11.6127 15.3491 12.9793 14.2607H3.01953C4.38609 15.3491 6.11663 15.9999 7.99941 15.9999Z"
            fill="#D80027" />
        <path
            d="M1.17398 12.1738H14.8256C15.2188 11.5322 15.5237 10.831 15.7242 10.0868H0.275391C0.475922 10.831 0.780828 11.5322 1.17398 12.1738Z"
            fill="#D80027" />
        <path
            d="M3.70575 1.24907H4.43478L3.75666 1.74172L4.01569 2.53888L3.33759 2.04622L2.6595 2.53888L2.88325 1.85022C2.28619 2.34757 1.76287 2.93026 1.33162 3.57951H1.56522L1.13356 3.8931C1.06631 4.00529 1.00181 4.11926 0.94 4.23491L1.14612 4.86932L0.761563 4.58991C0.665969 4.79244 0.578531 4.99954 0.499938 5.21094L0.727031 5.90994H1.56522L0.887094 6.4026L1.14612 7.19976L0.468031 6.7071L0.0618437 7.00222C0.0211875 7.32904 0 7.66191 0 7.99976H8C8 3.58151 8 3.06063 8 -0.000244141C6.41963 -0.000244141 4.94641 0.458193 3.70575 1.24907ZM4.01569 7.19976L3.33759 6.7071L2.6595 7.19976L2.91853 6.4026L2.24041 5.90994H3.07859L3.33759 5.11279L3.59659 5.90994H4.43478L3.75666 6.4026L4.01569 7.19976ZM3.75666 4.07216L4.01569 4.86932L3.33759 4.37666L2.6595 4.86932L2.91853 4.07216L2.24041 3.57951H3.07859L3.33759 2.78235L3.59659 3.57951H4.43478L3.75666 4.07216ZM6.88525 7.19976L6.20716 6.7071L5.52906 7.19976L5.78809 6.4026L5.10997 5.90994H5.94816L6.20716 5.11279L6.46616 5.90994H7.30434L6.62622 6.4026L6.88525 7.19976ZM6.62622 4.07216L6.88525 4.86932L6.20716 4.37666L5.52906 4.86932L5.78809 4.07216L5.10997 3.57951H5.94816L6.20716 2.78235L6.46616 3.57951H7.30434L6.62622 4.07216ZM6.62622 1.74172L6.88525 2.53888L6.20716 2.04622L5.52906 2.53888L5.78809 1.74172L5.10997 1.24907H5.94816L6.20716 0.451912L6.46616 1.24907H7.30434L6.62622 1.74172Z"
            fill="#0052B4" />
    </g>
    <defs>
        <clipPath id="clip0_150_8729">
            <rect width="16" height="16" fill="white" />
        </clipPath>
    </defs>
</svg>
