<svg width="16" height="16" viewBox="0 0 16 16" fill="none" xmlns="http://www.w3.org/2000/svg">
    <g clip-path="url(#clip0_150_8812)">
        <path
            d="M8 15.9998C12.4183 15.9998 16 12.418 16 7.99976C16 3.58148 12.4183 -0.000244141 8 -0.000244141C3.58172 -0.000244141 0 3.58148 0 7.99976C0 12.418 3.58172 15.9998 8 15.9998Z"
            fill="#F0F0F0" />
        <path
            d="M4.52148 10.7825L5.21714 15.5023C6.08377 15.8239 7.02117 15.9999 7.99973 15.9999C11.4394 15.9999 14.3718 13.8289 15.5021 10.7825H4.52148Z"
            fill="black" />
        <path
            d="M4.52148 5.21741L5.21714 0.497531C6.08377 0.175937 7.02117 0 7.99973 0C11.4394 0 14.3718 2.171 15.5021 5.21741H4.52148Z"
            fill="#6DA544" />
        <path d="M0 7.99996C0 11.4397 2.17103 14.372 5.21741 15.5024V0.497559C2.17103 1.6279 0 4.56025 0 7.99996Z"
            fill="#A2001D" />
    </g>
    <defs>
        <clipPath id="clip0_150_8812">
            <rect width="16" height="16" fill="white" />
        </clipPath>
    </defs>
</svg>
