<svg width="16" height="16" viewBox="0 0 16 16" fill="none" xmlns="http://www.w3.org/2000/svg">
    <g clip-path="url(#clip0_150_8749)">
        <path
            d="M8 15.9998C12.4183 15.9998 16 12.418 16 7.99976C16 3.58148 12.4183 -0.000244141 8 -0.000244141C3.58172 -0.000244141 0 3.58148 0 7.99976C0 12.418 3.58172 15.9998 8 15.9998Z"
            fill="#6DA544" />
        <path d="M7.99931 3.13037L14.608 7.99993L7.99931 12.8695L1.39062 7.99993L7.99931 3.13037Z" fill="#FFDA44" />
        <path
            d="M7.99939 10.7825C9.53617 10.7825 10.782 9.53666 10.782 7.99988C10.782 6.46309 9.53617 5.21729 7.99939 5.21729C6.46261 5.21729 5.2168 6.46309 5.2168 7.99988C5.2168 9.53666 6.46261 10.7825 7.99939 10.7825Z"
            fill="#F0F0F0" />
        <path
            d="M6.60916 7.82593C6.12528 7.82593 5.65831 7.89952 5.21875 8.03608C5.23822 9.55608 6.47584 10.7825 8.00047 10.7825C8.94322 10.7825 9.77584 10.3132 10.2792 9.59596C9.41803 8.51793 8.093 7.82593 6.60916 7.82593Z"
            fill="#0052B4" />
        <path
            d="M10.7314 8.533C10.7649 8.36038 10.783 8.18229 10.783 7.99988C10.783 6.46307 9.5372 5.21729 8.00042 5.21729C6.85373 5.21729 5.86936 5.91107 5.44336 6.90163C5.81992 6.8236 6.2098 6.7825 6.60914 6.7825C8.2253 6.78247 9.68736 7.45429 10.7314 8.533Z"
            fill="#0052B4" />
    </g>
    <defs>
        <clipPath id="clip0_150_8749">
            <rect width="16" height="16" fill="white" />
        </clipPath>
    </defs>
</svg>
