<svg width="16" height="16" viewBox="0 0 16 16" fill="none" xmlns="http://www.w3.org/2000/svg">
    <g clip-path="url(#clip0_150_8737)">
        <path
            d="M8 15.9998C12.4183 15.9998 16 12.418 16 7.99976C16 3.58148 12.4183 -0.000244141 8 -0.000244141C3.58172 -0.000244141 0 3.58148 0 7.99976C0 12.418 3.58172 15.9998 8 15.9998Z"
            fill="#0052B4" />
        <path
            d="M7.99953 3.13049L8.25856 3.92765H9.09669L8.41859 4.42031L8.67763 5.21746L7.99953 4.72477L7.32141 5.21746L7.58044 4.42031L6.90234 3.92765H7.7405L7.99953 3.13049Z"
            fill="#FFDA44" />
        <path
            d="M4.5578 4.55673L5.30467 4.93723L5.89733 4.3446L5.76617 5.17242L6.51302 5.55295L5.68517 5.68407L5.55405 6.51195L5.17352 5.7651L4.3457 5.89626L4.93836 5.3036L4.5578 4.55673Z"
            fill="#FFDA44" />
        <path
            d="M3.13086 8.00002L3.92802 7.74099V6.90283L4.42064 7.58096L5.21783 7.32193L4.72511 8.00002L5.21783 8.67811L4.42064 8.41911L3.92802 9.09721V8.25905L3.13086 8.00002Z"
            fill="#FFDA44" />
        <path
            d="M4.5578 11.4433L4.93833 10.6965L4.3457 10.1038L5.17355 10.235L5.55402 9.48816L5.68517 10.316L6.51298 10.4471L5.76623 10.8277L5.89733 11.6555L5.30467 11.0628L4.5578 11.4433Z"
            fill="#FFDA44" />
        <path
            d="M7.99953 12.8696L7.74047 12.0725H6.90234L7.58047 11.5798L7.32141 10.7827L7.99953 11.2753L8.67763 10.7827L8.41859 11.5798L9.09669 12.0725H8.25853L7.99953 12.8696Z"
            fill="#FFDA44" />
        <path
            d="M11.4434 11.4433L10.6966 11.0628L10.1039 11.6555L10.2351 10.8276L9.48828 10.4471L10.3161 10.316L10.4472 9.48816L10.8277 10.235L11.6555 10.1038L11.0629 10.6965L11.4434 11.4433Z"
            fill="#FFDA44" />
        <path
            d="M12.8701 8.00002L12.073 8.25905V9.09721L11.5803 8.41908L10.7832 8.67811L11.2759 8.00002L10.7832 7.32193L11.5803 7.58096L12.073 6.90283V7.74102L12.8701 8.00002Z"
            fill="#FFDA44" />
        <path
            d="M11.4434 4.5567L11.0629 5.30357L11.6556 5.89623L10.8277 5.76504L10.4472 6.51189L10.3161 5.68404L9.48828 5.55289L10.2351 5.17239L10.1039 4.3446L10.6966 4.93723L11.4434 4.5567Z"
            fill="#FFDA44" />
    </g>
    <defs>
        <clipPath id="clip0_150_8737">
            <rect width="16" height="16" fill="white" />
        </clipPath>
    </defs>
</svg>
