<svg width="16" height="16" viewBox="0 0 16 16" fill="none" xmlns="http://www.w3.org/2000/svg">
    <g clip-path="url(#clip0_150_8733)">
        <path
            d="M8 15.9998C12.4183 15.9998 16 12.418 16 7.99976C16 3.58148 12.4183 -0.000244141 8 -0.000244141C3.58172 -0.000244141 0 3.58148 0 7.99976C0 12.418 3.58172 15.9998 8 15.9998Z"
            fill="#F0F0F0" />
        <path
            d="M15.9323 6.95629H9.04353H9.0435V0.0674746C8.70191 0.0230059 8.35366 -0.000244141 8 -0.000244141C7.64634 -0.000244141 7.29809 0.0230059 6.95653 0.0674746V6.95622V6.95626H0.0677188C0.02325 7.29785 0 7.64604 0 7.99976C0 8.35347 0.02325 8.70166 0.0677188 9.04322H6.95647H6.9565V15.932C7.29809 15.9765 7.64634 15.9998 8 15.9998C8.35366 15.9998 8.70191 15.9765 9.04347 15.932V9.04329V9.04326H15.9323C15.9768 8.70166 16 8.35347 16 7.99976C16 7.64604 15.9768 7.29785 15.9323 6.95629Z"
            fill="#D80027" />
    </g>
    <defs>
        <clipPath id="clip0_150_8733">
            <rect width="16" height="16" fill="white" />
        </clipPath>
    </defs>
</svg>
