<svg width="16" height="16" viewBox="0 0 16 16" fill="none" xmlns="http://www.w3.org/2000/svg">
    <g clip-path="url(#clip0_150_8824)">
        <path
            d="M8 15.9998C12.4183 15.9998 16 12.418 16 7.99976C16 3.58148 12.4183 -0.000244141 8 -0.000244141C3.58172 -0.000244141 0 3.58148 0 7.99976C0 12.418 3.58172 15.9998 8 15.9998Z"
            fill="#F0F0F0" />
        <path d="M0.275391 10.0869C0.738266 11.8044 1.75842 13.2929 3.13023 14.347V10.0869H0.275391Z" fill="#D80027" />
        <path
            d="M7.30469 15.9695C7.534 15.9893 7.76591 15.9999 8.00034 15.9999C11.6966 15.9999 14.8068 13.493 15.7248 10.0869H7.30469V15.9695Z"
            fill="#D80027" />
        <path
            d="M15.7248 5.91303C14.8068 2.50691 11.6966 0 8.00034 0C7.76591 0 7.534 0.0106875 7.30469 0.0304375V5.91303H15.7248Z"
            fill="#D80027" />
        <path d="M3.13023 1.65295C1.75842 2.70702 0.738266 4.19555 0.275391 5.91302H3.13023V1.65295Z" fill="#D80027" />
        <path
            d="M15.9323 6.95656H6.26091H6.26088V0.190186C5.52156 0.354123 4.82066 0.619842 4.17391 0.972748V6.9565V6.95653H0.0677188C0.0231875 7.29812 0 7.64637 0 8.00003C0 8.35369 0.0231875 8.70194 0.0677188 9.0435H4.17387H4.17391V15.0273C4.82066 15.3802 5.52156 15.6459 6.26088 15.8098V9.04359V9.04353H15.9323C15.9768 8.70194 16 8.35369 16 8.00003C16 7.64637 15.9768 7.29812 15.9323 6.95656Z"
            fill="#0052B4" />
    </g>
    <defs>
        <clipPath id="clip0_150_8824">
            <rect width="16" height="16" fill="white" />
        </clipPath>
    </defs>
</svg>
