<svg width="16" height="16" viewBox="0 0 16 16" fill="none" xmlns="http://www.w3.org/2000/svg">
    <g clip-path="url(#clip0_150_8832)">
        <path
            d="M8 15.9998C12.4183 15.9998 16 12.418 16 7.99976C16 3.58148 12.4183 -0.000244141 8 -0.000244141C3.58172 -0.000244141 0 3.58148 0 7.99976C0 12.418 3.58172 15.9998 8 15.9998Z"
            fill="#D80027" />
        <path
            d="M7.67117 6.53711L8.32758 7.44164L9.39061 7.09695L8.73317 8.0007L9.38948 8.9052L8.32683 8.5592L7.66942 9.46295L7.67011 8.34542L6.60742 7.99942L7.67048 7.65473L7.67117 6.53711Z"
            fill="#F0F0F0" />
        <path
            d="M5.88067 10.2608C4.63205 10.2608 3.6198 9.24854 3.6198 7.99991C3.6198 6.75129 4.63205 5.73904 5.88067 5.73904C6.26998 5.73904 6.6363 5.8375 6.95611 6.01079C6.45439 5.5201 5.76823 5.21729 5.01111 5.21729C3.4743 5.21729 2.22852 6.4631 2.22852 7.99988C2.22852 9.53666 3.47433 10.7825 5.01111 10.7825C5.7683 10.7825 6.45442 10.4796 6.95611 9.98897C6.6363 10.1623 6.26998 10.2608 5.88067 10.2608Z"
            fill="#F0F0F0" />
    </g>
    <defs>
        <clipPath id="clip0_150_8832">
            <rect width="16" height="16" fill="white" />
        </clipPath>
    </defs>
</svg>
