<svg width="16" height="16" viewBox="0 0 16 16" fill="none" xmlns="http://www.w3.org/2000/svg">
<g clip-path="url(#clip0_150_8816)">
<path d="M8 15.9998C12.4183 15.9998 16 12.418 16 7.99976C16 3.58148 12.4183 -0.000244141 8 -0.000244141C3.58172 -0.000244141 0 3.58148 0 7.99976C0 12.418 3.58172 15.9998 8 15.9998Z" fill="#6DA544"/>
<path d="M4.52148 9.56519C4.52148 10.1415 4.98867 10.6087 5.56495 10.6087H8.69539C8.69539 11.0889 9.0847 11.4782 9.56495 11.4782H10.6084C11.0887 11.4782 11.478 11.0889 11.478 10.6087V9.56519H4.52148Z" fill="#F0F0F0"/>
<path d="M11.5648 4.52173V6.95651C11.5648 7.3401 11.2527 7.65217 10.8691 7.65217V8.69563C11.8281 8.69563 12.6083 7.91545 12.6083 6.95651V4.52173H11.5648Z" fill="#F0F0F0"/>
<path d="M4.08628 6.95675C4.08628 7.34035 3.77422 7.65241 3.39062 7.65241V8.69588C4.34959 8.69588 5.12975 7.91569 5.12975 6.95675V4.52197H4.08628V6.95675Z" fill="#F0F0F0"/>
<path d="M10 4.52173H11.0435V6.95651H10V4.52173Z" fill="#F0F0F0"/>
<path d="M8.43494 5.91304C8.43494 6.00895 8.35691 6.08695 8.26103 6.08695C8.16516 6.08695 8.08712 6.00892 8.08712 5.91304V4.52173H7.04366V5.91304C7.04366 6.00895 6.96563 6.08695 6.86975 6.08695C6.77387 6.08695 6.69584 6.00892 6.69584 5.91304V4.52173H5.65234V5.91304C5.65234 6.58432 6.19847 7.13045 6.86975 7.13045C7.12828 7.13045 7.36803 7.0492 7.56541 6.9112C7.76275 7.04917 8.00253 7.13045 8.26106 7.13045C8.31313 7.13045 8.36431 7.12679 8.41466 7.12038C8.34072 7.42504 8.06634 7.65217 7.73931 7.65217V8.69564C8.69828 8.69564 9.47844 7.91545 9.47844 6.95651V5.91304V4.52173H8.43497V5.91304H8.43494Z" fill="#F0F0F0"/>
<path d="M5.65234 7.65222H7.21756V8.69569H5.65234V7.65222Z" fill="#F0F0F0"/>
</g>
<defs>
<clipPath id="clip0_150_8816">
<rect width="16" height="16" fill="white"/>
</clipPath>
</defs>
</svg>
