<svg width="16" height="16" viewBox="0 0 16 16" fill="none" xmlns="http://www.w3.org/2000/svg">
<g clip-path="url(#clip0_150_8745)">
<path d="M16 7.99976C16 12.418 12.4183 15.9998 8 15.9998C3.58175 15.9998 0 12.418 0 7.99976C0 8.00163 8 0.000662109 8 -0.000244141C12.4183 -0.000244141 16 3.58151 16 7.99976Z" fill="#0052B4"/>
<path d="M7.99984 0C7.99926 0 7.99863 6.25e-05 7.99805 6.25e-05L7.99984 0Z" fill="#F0F0F0"/>
<path d="M7.97852 7.99992H7.99992C7.99992 7.99267 7.99992 7.98573 7.99992 7.97852C7.9928 7.98567 7.98567 7.9928 7.97852 7.99992Z" fill="#F0F0F0"/>
<path d="M8 4.17391C8 2.76625 8 1.84384 8 0H7.99866C3.581 0.00071875 0 3.58212 0 7.99997H4.17391V5.64959L6.52428 7.99997H7.97862C7.98578 7.99284 7.99291 7.98572 8.00003 7.97856C8.00003 7.43959 8.00003 6.95869 8.00003 6.52431L5.64962 4.17391H8Z" fill="#F0F0F0"/>
<path d="M4.04684 1.04346C2.79562 1.75593 1.75544 2.79611 1.04297 4.04733V7.99999H3.12994V3.13046V3.13043H7.9995C7.9995 2.47221 7.9995 1.84514 7.9995 1.04346H4.04684Z" fill="#D80027"/>
<path d="M7.99989 7.01621L5.15761 4.17396H4.17383C4.17383 4.17393 4.17383 4.17396 4.17383 4.17396L7.99986 8H7.99989C7.99989 8 7.99989 7.32171 7.99989 7.01621Z" fill="#D80027"/>
<path d="M4.82486 9.39136L5.26392 10.3094L6.25539 10.0803L5.81139 10.996L6.6087 11.6282L5.61598 11.852L5.61877 12.8696L4.82486 12.233L4.03098 12.8696L4.03377 11.852L3.04102 11.6282L3.83836 10.996L3.3943 10.0803L4.38583 10.3094L4.82486 9.39136Z" fill="#F0F0F0"/>
<path d="M11.9778 11.1305L12.1974 11.5895L12.6931 11.4749L12.4711 11.9328L12.8698 12.2489L12.3734 12.3608L12.3748 12.8696L11.9778 12.5513L11.5809 12.8696L11.5823 12.3608L11.0859 12.2489L11.4846 11.9328L11.2626 11.4749L11.7583 11.5895L11.9778 11.1305Z" fill="#F0F0F0"/>
<path d="M9.93491 6.26086L10.1544 6.71993L10.6502 6.6053L10.4282 7.06315L10.8268 7.3793L10.3305 7.49118L10.3318 7.99999L9.93491 7.68165L9.53797 7.99999L9.53931 7.49118L9.04297 7.3793L9.44163 7.06315L9.21963 6.6053L9.71537 6.71993L9.93491 6.26086Z" fill="#F0F0F0"/>
<path d="M11.9778 3.47827L12.1974 3.93733L12.6931 3.82274L12.4711 4.28058L12.8698 4.59671L12.3734 4.70862L12.3748 5.21743L11.9778 4.89908L11.5809 5.21743L11.5823 4.70862L11.0859 4.59671L11.4846 4.28058L11.2626 3.82274L11.7583 3.93733L11.9778 3.47827Z" fill="#F0F0F0"/>
<path d="M13.7611 5.56519L13.9806 6.02425L14.4763 5.90962L14.2543 6.36747L14.653 6.68362L14.1566 6.79553L14.158 7.30431L13.7611 6.986L13.3641 7.30431L13.3655 6.79553L12.8691 6.68362L13.2678 6.36747L13.0458 5.90962L13.5415 6.02425L13.7611 5.56519Z" fill="#F0F0F0"/>
<path d="M12.4854 8L12.658 8.53144H13.2168L12.7647 8.85991L12.9375 9.39131L12.4854 9.06287L12.0333 9.39131L12.206 8.85991L11.7539 8.53144H12.3127L12.4854 8Z" fill="#F0F0F0"/>
</g>
<defs>
<clipPath id="clip0_150_8745">
<rect width="16" height="16" fill="white"/>
</clipPath>
</defs>
</svg>
