<svg width="16" height="16" viewBox="0 0 16 16" fill="none" xmlns="http://www.w3.org/2000/svg">
<g clip-path="url(#clip0_150_8820)">
<path d="M8 15.9998C12.4183 15.9998 16 12.418 16 7.99976C16 3.58148 12.4183 -0.000244141 8 -0.000244141C3.58172 -0.000244141 0 3.58148 0 7.99976C0 12.418 3.58172 15.9998 8 15.9998Z" fill="#FFDA44"/>
<path d="M6.26175 6.95653H15.9331C15.4218 3.03131 12.0654 0 8.00084 0C7.40353 0 6.82169 0.0660313 6.26172 0.190156V6.95653H6.26175Z" fill="#0052B4"/>
<path d="M4.17455 6.95644V0.972656C1.97786 2.17122 0.405328 4.36969 0.0683594 6.95647H4.17455V6.95644Z" fill="#0052B4"/>
<path d="M4.17452 9.04346H0.0683594C0.405328 11.6302 1.97786 13.8287 4.17455 15.0272L4.17452 9.04346Z" fill="#0052B4"/>
<path d="M6.26172 9.04349V15.8098C6.82169 15.934 7.40353 16 8.00084 16C12.0654 16 15.4218 12.9687 15.9331 9.04346H6.26172V9.04349Z" fill="#0052B4"/>
</g>
<defs>
<clipPath id="clip0_150_8820">
<rect width="16" height="16" fill="white"/>
</clipPath>
</defs>
</svg>
