<svg width="63" height="26" viewBox="0 0 63 26" fill="none" xmlns="http://www.w3.org/2000/svg">
<path d="M11.5113 3.40134C10.773 4.27498 9.59153 4.96429 8.41015 4.86573C8.2625 3.68448 8.84082 2.42915 9.5177 1.65383C10.256 0.755592 11.5482 0.115625 12.5942 0.0664062C12.7173 1.297 12.2373 2.50298 11.5113 3.40134ZM12.5819 5.09964C10.8713 5.0012 9.40695 6.07171 8.59472 6.07171C7.77031 6.07171 6.52729 5.14886 5.17365 5.17347C3.41396 5.19807 1.77719 6.19475 0.878825 7.7823C-0.967124 10.9573 0.398942 15.6583 2.18324 18.2425C3.057 19.5223 4.10302 20.9252 5.48127 20.876C6.78581 20.8267 7.30261 20.0269 8.87785 20.0269C10.4653 20.0269 10.9207 20.876 12.2989 20.8514C13.7264 20.8267 14.6248 19.5717 15.4985 18.2917C16.4952 16.8397 16.9014 15.4244 16.926 15.3505C16.9014 15.3259 14.1695 14.28 14.1449 11.1295C14.1203 8.4961 16.2984 7.2409 16.3969 7.16707C15.1662 5.34573 13.2465 5.14886 12.5819 5.09964ZM22.4638 1.53079V20.7161H25.4418V14.157H29.5644C33.33 14.157 35.9758 11.5728 35.9758 7.83165C35.9758 4.09065 33.3792 1.53091 29.6628 1.53091H22.4637L22.4638 1.53079ZM25.4418 4.04131H28.8752C31.4595 4.04131 32.9362 5.41956 32.9362 7.84383C32.9362 10.2681 31.4595 11.6588 28.8629 11.6588H25.4418V4.04131ZM41.4151 20.8637C43.2857 20.8637 45.0208 19.9162 45.8084 18.4148H45.8699V20.716H48.6265V11.1665C48.6265 8.39766 46.4114 6.61324 43.0026 6.61324C39.8399 6.61324 37.5017 8.42227 37.4156 10.9081H40.0984C40.3199 9.72669 41.415 8.95137 42.9164 8.95137C44.7378 8.95137 45.7592 9.80052 45.7592 11.3635V12.4217L42.0427 12.6431C38.5847 12.8523 36.7142 14.2676 36.7142 16.7289C36.7142 19.2147 38.6462 20.8637 41.4151 20.8637ZM42.2149 18.587C40.6276 18.587 39.6184 17.8242 39.6184 16.655C39.6184 15.4491 40.5906 14.7476 42.4488 14.6369L45.7592 14.4277V15.5105C45.7592 17.3072 44.2333 18.587 42.215 18.587H42.2149ZM52.306 25.9338C55.2103 25.9338 56.5762 24.8264 57.7699 21.4667L63 6.79781H59.9727L56.4655 18.1316H56.404L52.8967 6.79781H49.7833L54.8287 20.7652L54.558 21.6144C54.1027 23.0541 53.3643 23.608 52.0476 23.608C51.8138 23.608 51.3585 23.5834 51.1738 23.5588V25.86C51.3461 25.9092 52.0844 25.9338 52.306 25.9338Z" fill="white"/>
</svg>
