<svg width="27" height="26" viewBox="0 0 27 26" fill="none" xmlns="http://www.w3.org/2000/svg">
<path d="M8.71123 24.2169C8.17536 24.2169 7.71678 24.0263 7.3355 23.645C6.95357 23.2631 6.76261 22.8042 6.76261 22.2683C6.76261 21.7325 6.95357 21.2736 7.3355 20.8916C7.71678 20.5103 8.17536 20.3197 8.71123 20.3197C9.2471 20.3197 9.70568 20.5103 10.087 20.8916C10.4689 21.2736 10.6599 21.7325 10.6599 22.2683C10.6599 22.8042 10.4689 23.2631 10.087 23.645C9.70568 24.0263 9.2471 24.2169 8.71123 24.2169ZM18.4543 24.2169C17.9185 24.2169 17.4599 24.0263 17.0786 23.645C16.6967 23.2631 16.5057 22.8042 16.5057 22.2683C16.5057 21.7325 16.6967 21.2736 17.0786 20.8916C17.4599 20.5103 17.9185 20.3197 18.4543 20.3197C18.9902 20.3197 19.4491 20.5103 19.831 20.8916C20.2123 21.2736 20.403 21.7325 20.403 22.2683C20.403 22.8042 20.2123 23.2631 19.831 23.645C19.4491 24.0263 18.9902 24.2169 18.4543 24.2169ZM7.17669 5.94862H20.6222C21.288 5.94862 21.7914 6.23669 22.1324 6.81283C22.4734 7.38963 22.4815 7.97843 22.1567 8.57926L19.2581 13.8649C19.047 14.2384 18.7629 14.5346 18.4056 14.7535C18.0484 14.973 17.6587 15.0828 17.2364 15.0828H10.1971L9.34453 16.666H20.7683V19.3454H8.71123C7.80187 19.3454 7.12798 18.9599 6.68954 18.1889C6.2511 17.4172 6.24298 16.6579 6.66518 15.9109L7.90742 13.7187L4.59477 6.67935H2.5V4H6.2511L7.17669 5.94862Z" fill="#EAB11F"/>
<circle cx="20.5" cy="6" r="6" fill="#349F6B"/>
<path d="M20.5 3V9" stroke="white" stroke-width="2"/>
<path d="M23.5 6L17.5 6" stroke="white" stroke-width="2"/>
</svg>
