<svg width="124" height="36" viewBox="0 0 124 36" fill="none" xmlns="http://www.w3.org/2000/svg">
<path fill-rule="evenodd" clip-rule="evenodd" d="M17.4739 6.407L24.7761 18.3905L17.4741 22.6596L10.172 18.3905L17.4739 6.407ZM17.4739 29.9373L10.1719 19.76L17.4741 24.027L24.7805 19.7601L17.4739 29.9373Z" fill="#00B3FF"/>
<path d="M17.9961 30.0005C24.6235 30.0005 29.9961 24.6279 29.9961 18.0005C29.9961 11.3731 24.6235 6.00049 17.9961 6.00049C11.3687 6.00049 5.99609 11.3731 5.99609 18.0005C5.99609 24.6279 11.3687 30.0005 17.9961 30.0005Z" fill="#26A17B"/>
<path d="M19.2764 19.1076V19.1057C19.1934 19.1115 18.7651 19.1365 17.8121 19.1365C17.05 19.1365 16.5156 19.1153 16.3266 19.1057V19.1076C13.3961 18.9783 11.2102 18.469 11.2102 17.8574C11.2102 17.2478 13.398 16.7365 16.3266 16.6073V18.6002C16.5176 18.6137 17.0674 18.6465 17.8256 18.6465C18.7362 18.6465 19.1915 18.6079 19.2764 18.6002V16.6092C22.2012 16.7404 24.3812 17.2497 24.3812 17.8594C24.3812 18.469 22.1992 18.9783 19.2764 19.1095V19.1076ZM19.2764 16.4028V14.6202H23.3568V11.9019H12.2481V14.6202H16.3285V16.4028C13.0121 16.5552 10.5195 17.2111 10.5195 17.9983C10.5195 18.7854 13.0141 19.4414 16.3285 19.5957V25.3102H19.2783V19.5957C22.5889 19.4433 25.0777 18.7873 25.0777 18.0002C25.0777 17.215 22.5889 16.5571 19.2783 16.4047" fill="white"/>
<path d="M73.6408 20.9047C72.0379 27.334 65.5261 31.2468 59.096 29.6435C52.6686 28.0406 48.7558 21.5284 50.3595 15.0995C51.9616 8.66939 58.4735 4.75621 64.9017 6.35914C71.3313 7.96206 75.2438 14.475 73.6408 20.9047Z" fill="#F7931A"/>
<path d="M67.2914 16.2919C67.5302 14.695 66.3143 13.8365 64.6518 13.2638L65.1911 11.1006L63.8744 10.7724L63.3493 12.8787C63.0032 12.7924 62.6476 12.711 62.2943 12.6304L62.8231 10.5103L61.5071 10.1821L60.9674 12.3446C60.6809 12.2793 60.3996 12.2148 60.1265 12.147L60.128 12.1402L58.3121 11.6868L57.9618 13.0932C57.9618 13.0932 58.9388 13.3171 58.9182 13.331C59.4515 13.4641 59.5479 13.817 59.5317 14.0968L58.9174 16.5612C58.9542 16.5706 59.0018 16.5841 59.0543 16.6051C59.0104 16.5942 58.9636 16.5822 58.9152 16.5706L58.0541 20.0228C57.9888 20.1848 57.8234 20.4278 57.4506 20.3356C57.4638 20.3547 56.4935 20.0967 56.4935 20.0967L55.8398 21.604L57.5534 22.0311C57.8722 22.111 58.1846 22.1946 58.4921 22.2735L57.9472 24.4614L59.2625 24.7896L59.8022 22.6248C60.1614 22.7223 60.5103 22.8123 60.8515 22.8971L60.3137 25.0517L61.6305 25.3799L62.1754 23.1961C64.4207 23.6209 66.1092 23.4496 66.8199 21.4188C67.3926 19.7836 66.7914 18.8404 65.6101 18.2253C66.4704 18.0269 67.1184 17.4609 67.2914 16.2919ZM64.2827 20.5107C63.8759 22.1459 61.1226 21.2619 60.23 21.0403L60.9531 18.1416C61.8457 18.3644 64.7081 18.8054 64.2827 20.5107ZM64.6901 16.2682C64.3187 17.7557 62.0272 16.9999 61.284 16.8147L61.9395 14.1857C62.6828 14.371 65.0767 14.7167 64.6901 16.2682Z" fill="white"/>
<path fill-rule="evenodd" clip-rule="evenodd" d="M106.311 6.00027L113.759 18.2226L106.311 22.5768L98.8634 18.2227L106.311 6.00027ZM106.311 29.9996L98.8633 19.6194L106.311 23.9715L113.763 19.6195L106.311 29.9996Z" fill="#00B3FF"/>
</svg>
