<?xml version="1.0" encoding="utf-8"?>
<svg viewBox="0 0 52 24" fill="none" xmlns="http://www.w3.org/2000/svg">
  <defs>
    <linearGradient id="paint0_linear_474_6135" x1="50.222" y1="1.01928" x2="-1.15393" y2="9.85368" gradientUnits="userSpaceOnUse" gradientTransform="matrix(0.997147, 0, 0, -0.985408, 0.292104, 24.038944)">
      <stop stop-color="#A82DF9"/>
      <stop offset="1" stop-color="#6678E9"/>
    </linearGradient>
  </defs>
  <path d="M 6.054 24.897 C 5.505 24.839 5.108 25.376 5.167 24.834 L 1.011 18.743 C 1.069 18.201 1.268 18.2 1.815 18.258 C 2.364 18.316 2.906 18.023 2.847 18.564 L 5.991 21.824 L 10.318 19.645 C 10.867 19.703 11.263 20.189 11.204 20.73 C 11.145 21.271 10.654 21.663 10.106 21.605 L 6.054 24.897 Z M 16.379 11.193 L 16.829 12.659 L 16.812 12.661 L 16.796 12.662 L 16.379 11.193 Z M 32.661 13.485 L 32.303 14.405 L 32.661 13.485 Z M 39.852 19.68 L 38.861 19.78 L 39.852 19.68 Z M 36.372 22.968 L 36.239 21.991 L 36.372 22.968 Z M 30.968 5.428 L 30.134 4.89 L 30.968 5.428 Z M 41.102 2.008 L 41.087 1.023 L 41.102 2.008 Z M 50.37 1.023 C 50.922 1.023 51.368 1.463 51.368 2.008 C 51.368 2.552 50.922 2.993 50.37 2.993 L 50.37 1.023 Z M 4.315 23.151 C 5.584 22.237 4.673 18.474 7.074 15.346 C 9.039 12.785 12.254 9.911 15.96 9.626 L 16.406 11.639 C 13.159 11.888 12.105 13.576 9.51 15.209 C 6.907 16.844 7.004 22.595 5.665 23.661 L 4.315 23.151 Z M 15.977 9.58 C 21.252 9.007 27.994 10.657 33.018 12.566 L 32.303 14.405 C 27.628 12.629 21.605 11.091 16.586 11.636 L 15.977 9.58 Z M 33.018 12.566 C 34.38 13.083 36.193 13.842 37.721 14.928 C 39.238 16.005 40.633 17.519 40.845 19.581 L 38.861 19.78 C 38.733 18.537 37.879 17.466 36.557 16.528 C 35.247 15.597 33.634 14.911 32.303 14.405 L 33.018 12.566 Z M 40.845 19.581 C 40.989 20.987 40.384 22.062 39.482 22.776 C 38.621 23.459 37.507 23.81 36.505 23.944 L 36.239 21.991 C 37.015 21.888 37.746 21.625 38.234 21.239 C 38.68 20.885 38.928 20.436 38.861 19.78 L 40.845 19.581 Z M 36.505 23.944 C 34.043 24.274 32.114 23.503 30.74 22.029 C 29.41 20.605 28.667 18.597 28.321 16.52 C 27.974 14.428 28.013 12.167 28.334 10.126 C 28.654 8.102 29.266 6.205 30.134 4.89 L 31.804 5.966 C 31.15 6.959 30.602 8.553 30.305 10.429 C 30.012 12.291 29.98 14.34 30.289 16.201 C 30.602 18.076 31.241 19.66 32.207 20.694 C 33.127 21.681 34.402 22.237 36.239 21.991 L 36.505 23.944 Z M 30.134 4.89 C 31.365 3.022 33.322 2.085 35.297 1.599 C 37.266 1.115 39.385 1.05 41.087 1.023 L 41.118 2.993 C 39.412 3.02 37.503 3.088 35.778 3.512 C 34.058 3.934 32.653 4.679 31.804 5.966 L 30.134 4.89 Z M 41.087 1.023 C 44.184 0.972 47.306 1.023 50.37 1.023 L 50.37 2.993 C 47.26 2.993 44.197 2.943 41.118 2.993 L 41.087 1.023 Z" fill="url(#paint0_linear_474_6135)" style="stroke-miterlimit: 8.65;" transform="matrix(-1, 0, 0, -1, 51.66020738065856, 25.02000120341779)"/>
</svg>