<svg width="16" height="16" viewBox="0 0 16 16" fill="none" xmlns="http://www.w3.org/2000/svg">
<g clip-path="url(#clip0_4289_9189)">
<path fill-rule="evenodd" clip-rule="evenodd" d="M8 16C12.4183 16 16 12.4183 16 8C16 3.58172 12.4183 0 8 0C3.58172 0 0 3.58172 0 8C0 12.4183 3.58172 16 8 16ZM12.999 10.3886C13.3052 10.0773 13.4583 9.70986 13.4583 9.2863C13.4583 8.91378 13.3588 8.62035 13.1598 8.40601C12.9658 8.18658 12.7336 8.02838 12.4632 7.93142C12.1978 7.82936 11.861 7.73495 11.4528 7.6482C11.0904 7.57165 10.8276 7.49765 10.6643 7.42621C10.501 7.35477 10.4194 7.2476 10.4194 7.10471C10.4194 6.96183 10.4883 6.847 10.6261 6.76025C10.7638 6.6684 10.9833 6.62247 11.2844 6.62247C11.7641 6.62247 12.2591 6.76025 12.7694 7.03582L13.2363 5.91058C13.0271 5.7881 12.7872 5.68859 12.5168 5.61205C12.2514 5.5355 11.9733 5.48447 11.6824 5.45895V4.63224H10.7638V5.47426C10.1668 5.5457 9.71004 5.73962 9.39364 6.05602C9.07725 6.36731 8.91905 6.74239 8.91905 7.18126C8.91905 7.55379 9.01601 7.84977 9.20993 8.06921C9.40385 8.28864 9.63604 8.44939 9.90651 8.55145C10.177 8.64841 10.5138 8.74027 10.9169 8.82702C11.2844 8.90867 11.5497 8.98777 11.713 9.06432C11.8814 9.13576 11.9656 9.24803 11.9656 9.40112C11.9656 9.692 11.6747 9.83744 11.093 9.83744C10.7868 9.83744 10.4755 9.78896 10.1591 9.692C9.84272 9.59504 9.5646 9.46747 9.32475 9.30927L8.8272 10.4269C9.05173 10.58 9.33496 10.7101 9.67687 10.8172C10.0188 10.9193 10.3811 10.9831 10.7638 11.0086V11.8277H11.6824V10.978C12.2591 10.8912 12.6979 10.6948 12.999 10.3886ZM4.50893 9.86806H6.77472L7.19573 10.9091H8.7726L6.39964 5.55081H4.90697L2.54167 10.9091H4.08792L4.50893 9.86806ZM5.64182 7.03582L6.33075 8.75047H4.9529L5.64182 7.03582Z" fill="white"/>
</g>
<defs>
<clipPath id="clip0_4289_9189">
<rect width="16" height="16" fill="white"/>
</clipPath>
</defs>
</svg>
