<svg width="16" height="16" viewBox="0 0 16 16" fill="none" xmlns="http://www.w3.org/2000/svg">
<g id="beenhere">
<mask id="mask0_474_7533" style="mask-type:alpha" maskUnits="userSpaceOnUse" x="0" y="0" width="16" height="16">
<rect id="Bounding box" width="16" height="16" fill="#D9D9D9"/>
</mask>
<g mask="url(#mask0_474_7533)">
<path id="beenhere_2" d="M8.00033 15.3333L3.20033 11.7333C3.03366 11.6111 2.9031 11.4556 2.80866 11.2667C2.71421 11.0778 2.66699 10.8778 2.66699 10.6667V2.66668C2.66699 2.30001 2.79755 1.98612 3.05866 1.72501C3.31977 1.4639 3.63366 1.33334 4.00033 1.33334H12.0003C12.367 1.33334 12.6809 1.4639 12.942 1.72501C13.2031 1.98612 13.3337 2.30001 13.3337 2.66668V10.6667C13.3337 10.8778 13.2864 11.0778 13.192 11.2667C13.0975 11.4556 12.967 11.6111 12.8003 11.7333L8.00033 15.3333ZM7.30033 10L11.067 6.23334L10.1337 5.26668L7.30033 8.10001L5.90033 6.70001L4.93366 7.63334L7.30033 10Z" fill="#219653"/>
</g>
</g>
</svg>
