<svg width="56" height="24" viewBox="0 0 56 24" fill="none" xmlns="http://www.w3.org/2000/svg">
<path d="M22.222 15.7681L21.997 14.6431H19.483L19.083 15.7601L17.068 15.7641C18.0273 13.4573 18.9886 11.1513 19.952 8.84612C20.116 8.45512 20.407 8.25612 20.836 8.25812C21.164 8.26112 21.699 8.26112 22.442 8.25912L24 15.7651L22.222 15.7681ZM20.049 13.1021H21.669L21.064 10.2821L20.049 13.1021ZM7.06 8.25712L9.086 8.25912L5.954 15.7691L3.903 15.7671C3.38725 13.7834 2.87791 11.7981 2.375 9.81112C2.275 9.41512 2.077 9.13812 1.696 9.00712C1.13322 8.81854 0.567836 8.63786 0 8.46512L0 8.26012H3.237C3.797 8.26012 4.124 8.53112 4.229 9.08712C4.335 9.64412 4.601 11.0621 5.029 13.3411L7.06 8.25712ZM11.87 8.25912L10.268 15.7671L8.34 15.7651L9.94 8.25712L11.87 8.25912ZM15.78 8.12012C16.357 8.12012 17.084 8.30012 17.502 8.46512L17.164 10.0221C16.786 9.87012 16.164 9.66512 15.641 9.67212C14.881 9.68512 14.411 10.0041 14.411 10.3101C14.411 10.8081 15.227 11.0591 16.067 11.6031C17.026 12.2231 17.152 12.7801 17.14 13.3851C17.127 14.6411 16.067 15.8801 13.831 15.8801C12.811 15.8651 12.443 15.7791 11.611 15.4841L11.963 13.8591C12.81 14.2141 13.169 14.3271 13.893 14.3271C14.556 14.3271 15.125 14.0591 15.13 13.5921C15.134 13.2601 14.93 13.0951 14.186 12.6851C13.442 12.2741 12.398 11.7051 12.412 10.5631C12.429 9.10112 13.814 8.12012 15.781 8.12012H15.78Z" fill="white"/>
<g clip-path="url(#clip0_1675_22752)">
<path d="M40.7559 6.05078H47.2451V17.7108H40.7559V6.05078Z" fill="#FF5F00"/>
<path d="M41.1674 11.8811C41.1674 9.51208 42.2798 7.41076 43.9896 6.05107C42.7331 5.06225 41.1469 4.46484 39.4164 4.46484C35.3167 4.46484 32 7.78153 32 11.8811C32 15.9807 35.3167 19.2974 39.4163 19.2974C41.1468 19.2974 42.733 18.7 43.9896 17.7111C42.2798 16.3721 41.1674 14.2502 41.1674 11.8811Z" fill="#EB001B"/>
<path d="M55.9994 11.8811C55.9994 15.9807 52.6827 19.2974 48.5831 19.2974C46.8526 19.2974 45.2664 18.7 44.0098 17.7111C45.7402 16.3515 46.8321 14.2502 46.8321 11.8811C46.8321 9.51208 45.7196 7.41076 44.0098 6.05107C45.2663 5.06225 46.8526 4.46484 48.5831 4.46484C52.6827 4.46484 55.9994 7.80217 55.9994 11.8811Z" fill="#F79E1B"/>
</g>
<defs>
<clipPath id="clip0_1675_22752">
<rect width="24" height="24" fill="white" transform="translate(32)"/>
</clipPath>
</defs>
</svg>
