<svg width="32" height="32" viewBox="0 0 32 32" fill="none" xmlns="http://www.w3.org/2000/svg">
<g id="Icons/change_avatar">
<path id="draft_orders" d="M16 32C13.7867 32 11.7067 31.5797 9.76 30.7392C7.81333 29.8997 6.12 28.76 4.68 27.32C3.24 25.88 2.10027 24.1867 1.2608 22.24C0.420267 20.2933 0 18.2133 0 16C0 13.7867 0.420267 11.7067 1.2608 9.76C2.10027 7.81333 3.24 6.12 4.68 4.68C6.12 3.24 7.81333 2.09973 9.76 1.2592C11.7067 0.419733 13.7867 0 16 0C18.2133 0 20.2933 0.419733 22.24 1.2592C24.1867 2.09973 25.88 3.24 27.32 4.68C28.76 6.12 29.8997 7.81333 30.7392 9.76C31.5797 11.7067 32 13.7867 32 16C32 18.2133 31.5797 20.2933 30.7392 22.24C29.8997 24.1867 28.76 25.88 27.32 27.32C25.88 28.76 24.1867 29.8997 22.24 30.7392C20.2933 31.5797 18.2133 32 16 32Z" fill="white" fill-opacity="0.1"/>
<g id="Subtract">
<path d="M12.6999 22.0999H9.8999V19.2999L17.1666 12.0332L19.9666 14.8332L12.6999 22.0999Z" fill="white"/>
<path d="M21.6999 13.0999L20.7666 14.0332L17.9666 11.2332L18.8999 10.2999C19.1666 10.0332 19.4777 9.8999 19.8332 9.8999C20.1888 9.8999 20.4999 10.0332 20.7666 10.2999L21.6999 11.2332C21.9666 11.4999 22.0999 11.811 22.0999 12.1666C22.0999 12.5221 21.9666 12.8332 21.6999 13.0999Z" fill="white"/>
</g>
</g>
</svg>
