<svg width="48" height="48" viewBox="0 0 48 48" fill="none" xmlns="http://www.w3.org/2000/svg">
<path d="M24 46.5C11.5925 46.5 1.5 36.4057 1.5 23.9989C1.5 11.592 11.5925 1.5 24 1.5C36.4075 1.5 46.5 11.5943 46.5 23.9989C46.5 36.4035 36.4075 46.5 24 46.5ZM24 5.82871C13.9799 5.82871 5.82892 13.9815 5.82892 23.9989C5.82892 34.0162 13.9799 42.1713 24 42.1713C34.0201 42.1713 42.1711 34.0185 42.1711 23.9989C42.1711 13.9793 34.0201 5.82871 24 5.82871Z" fill="#EAB11F"/>
<path d="M10 27.9763L15.9246 17.7502H18.9224L13.0029 27.9763H17.3043L23.2377 17.7461L24.6977 20.1527L18.8463 30.2487H11.3797L10 27.9763Z" fill="white"/>
<path d="M27.1193 30.2539H24.1595L28.5094 22.7305H31.4798L29.9704 20.2045H25.504L26.9613 17.755H37.9998L36.5218 20.1821H32.9568L31.4798 22.7305L27.1193 30.2539Z" fill="white"/>
</svg>
