<svg width="49" height="48" viewBox="0 0 49 48" fill="none" xmlns="http://www.w3.org/2000/svg">
<path d="M25.2944 28.3473H23.6236V17.231H20.5991V27.7922C20.5991 29.4365 21.9316 30.7689 23.576 30.7689H25.342C26.9864 30.7689 28.3188 29.4365 28.3188 27.7922V17.231H25.2944V28.3473Z" fill="white" fill-opacity="0.2"/>
<path d="M36.9879 17.231H34.4579H31.4361H29.0911V19.8111H31.4361V30.7689H34.4579V19.8111H36.9879V17.231Z" fill="white" fill-opacity="0.2"/>
<path d="M12.9746 19.4014V30.7689H15.9991V25.6323H18.9944V22.5816H15.9991V19.8138H20.1048V17.231H15.1451C13.9475 17.231 12.9746 18.2038 12.9746 19.4014Z" fill="white" fill-opacity="0.2"/>
<path d="M24.5 46.5C12.0925 46.5 2 36.4057 2 23.9989C2 11.592 12.0925 1.5 24.5 1.5C36.9075 1.5 47 11.5943 47 23.9989C47 36.4035 36.9075 46.5 24.5 46.5ZM24.5 5.82871C14.4799 5.82871 6.32892 13.9815 6.32892 23.9989C6.32892 34.0162 14.4799 42.1713 24.5 42.1713C34.5201 42.1713 42.6711 34.0185 42.6711 23.9989C42.6711 13.9793 34.5201 5.82871 24.5 5.82871Z" fill="white" fill-opacity="0.2"/>
</svg>
