<svg width="14" height="11" viewBox="0 0 14 11" fill="none" xmlns="http://www.w3.org/2000/svg">
<path d="M1.33333 0.166504C0.979711 0.166504 0.640573 0.30698 0.390524 0.557028C0.140476 0.807077 0 1.14622 0 1.49984V4.1665C0.353622 4.1665 0.692761 4.30698 0.942809 4.55703C1.19286 4.80708 1.33333 5.14621 1.33333 5.49984C1.33333 5.85346 1.19286 6.1926 0.942809 6.44265C0.692761 6.69269 0.353622 6.83317 0 6.83317V9.49984C0 9.85346 0.140476 10.1926 0.390524 10.4426C0.640573 10.6927 0.979711 10.8332 1.33333 10.8332H12C12.3536 10.8332 12.6928 10.6927 12.9428 10.4426C13.1929 10.1926 13.3333 9.85346 13.3333 9.49984V6.83317C12.9797 6.83317 12.6406 6.69269 12.3905 6.44265C12.1405 6.1926 12 5.85346 12 5.49984C12 5.14621 12.1405 4.80708 12.3905 4.55703C12.6406 4.30698 12.9797 4.1665 13.3333 4.1665V1.49984C13.3333 1.14622 13.1929 0.807077 12.9428 0.557028C12.6928 0.30698 12.3536 0.166504 12 0.166504H1.33333ZM9 2.1665L10 3.1665L4.33333 8.83317L3.33333 7.83317L9 2.1665ZM4.54 2.19317C5.19333 2.19317 5.72 2.71984 5.72 3.37317C5.72 3.68613 5.59568 3.98626 5.37439 4.20756C5.15309 4.42885 4.85296 4.55317 4.54 4.55317C3.88667 4.55317 3.36 4.0265 3.36 3.37317C3.36 3.06022 3.48432 2.76008 3.70561 2.53878C3.92691 2.31749 4.22705 2.19317 4.54 2.19317ZM8.79333 6.4465C9.44667 6.4465 9.97333 6.97317 9.97333 7.6265C9.97333 7.93946 9.84901 8.2396 9.62772 8.46089C9.40643 8.68218 9.10629 8.8065 8.79333 8.8065C8.14 8.8065 7.61333 8.27984 7.61333 7.6265C7.61333 7.31355 7.73765 7.01341 7.95895 6.79212C8.18024 6.57082 8.48038 6.4465 8.79333 6.4465Z" fill="white"/>
</svg>
