<svg width="14" height="12" viewBox="0 0 14 12" fill="none" xmlns="http://www.w3.org/2000/svg">
<path d="M1.33333 0.666504C0.979711 0.666504 0.640573 0.80698 0.390524 1.05703C0.140476 1.30708 0 1.64622 0 1.99984V4.6665C0.353622 4.6665 0.692761 4.80698 0.942809 5.05703C1.19286 5.30708 1.33333 5.64621 1.33333 5.99984C1.33333 6.35346 1.19286 6.6926 0.942809 6.94265C0.692761 7.19269 0.353622 7.33317 0 7.33317V9.99984C0 10.3535 0.140476 10.6926 0.390524 10.9426C0.640573 11.1927 0.979711 11.3332 1.33333 11.3332H12C12.3536 11.3332 12.6928 11.1927 12.9428 10.9426C13.1929 10.6926 13.3333 10.3535 13.3333 9.99984V7.33317C12.9797 7.33317 12.6406 7.19269 12.3905 6.94265C12.1405 6.6926 12 6.35346 12 5.99984C12 5.64621 12.1405 5.30708 12.3905 5.05703C12.6406 4.80698 12.9797 4.6665 13.3333 4.6665V1.99984C13.3333 1.64622 13.1929 1.30708 12.9428 1.05703C12.6928 0.80698 12.3536 0.666504 12 0.666504H1.33333ZM9 2.6665L10 3.6665L4.33333 9.33317L3.33333 8.33317L9 2.6665ZM4.54 2.69317C5.19333 2.69317 5.72 3.21984 5.72 3.87317C5.72 4.18613 5.59568 4.48626 5.37439 4.70756C5.15309 4.92885 4.85296 5.05317 4.54 5.05317C3.88667 5.05317 3.36 4.5265 3.36 3.87317C3.36 3.56022 3.48432 3.26008 3.70561 3.03878C3.92691 2.81749 4.22705 2.69317 4.54 2.69317ZM8.79333 6.9465C9.44667 6.9465 9.97333 7.47317 9.97333 8.1265C9.97333 8.43946 9.84901 8.7396 9.62772 8.96089C9.40643 9.18218 9.10629 9.3065 8.79333 9.3065C8.14 9.3065 7.61333 8.77984 7.61333 8.1265C7.61333 7.81355 7.73765 7.51341 7.95895 7.29212C8.18024 7.07082 8.48038 6.9465 8.79333 6.9465Z" fill="white" fill-opacity="0.4"/>
</svg>
