<svg xmlns="http://www.w3.org/2000/svg" width="16" height="16" viewBox="0 0 16 16" fill="none">
<path d="M2.66732 2.66663C2.3137 2.66663 1.97456 2.8071 1.72451 3.05715C1.47446 3.3072 1.33398 3.64634 1.33398 3.99996V6.66663C1.68761 6.66663 2.02675 6.8071 2.27679 7.05715C2.52684 7.3072 2.66732 7.64634 2.66732 7.99996C2.66732 8.35358 2.52684 8.69272 2.27679 8.94277C2.02675 9.19282 1.68761 9.33329 1.33398 9.33329V12C1.33398 12.3536 1.47446 12.6927 1.72451 12.9428C1.97456 13.1928 2.3137 13.3333 2.66732 13.3333H13.334C13.6876 13.3333 14.0267 13.1928 14.2768 12.9428C14.5268 12.6927 14.6673 12.3536 14.6673 12V9.33329C14.3137 9.33329 13.9746 9.19282 13.7245 8.94277C13.4745 8.69272 13.334 8.35358 13.334 7.99996C13.334 7.64634 13.4745 7.3072 13.7245 7.05715C13.9746 6.8071 14.3137 6.66663 14.6673 6.66663V3.99996C14.6673 3.64634 14.5268 3.3072 14.2768 3.05715C14.0267 2.8071 13.6876 2.66663 13.334 2.66663H2.66732ZM10.334 4.66663L11.334 5.66663L5.66732 11.3333L4.66732 10.3333L10.334 4.66663ZM5.87398 4.69329C6.52732 4.69329 7.05398 5.21996 7.05398 5.87329C7.05398 6.18625 6.92966 6.48639 6.70837 6.70768C6.48708 6.92897 6.18694 7.05329 5.87398 7.05329C5.22065 7.05329 4.69398 6.52663 4.69398 5.87329C4.69398 5.56034 4.81831 5.2602 5.0396 5.03891C5.26089 4.81761 5.56103 4.69329 5.87398 4.69329ZM10.1273 8.94663C10.7807 8.94663 11.3073 9.47329 11.3073 10.1266C11.3073 10.4396 11.183 10.7397 10.9617 10.961C10.7404 11.1823 10.4403 11.3066 10.1273 11.3066C9.47398 11.3066 8.94732 10.78 8.94732 10.1266C8.94732 9.81367 9.07164 9.51353 9.29293 9.29224C9.51423 9.07095 9.81436 8.94663 10.1273 8.94663Z" fill="white"/>
</svg>