<svg width="12" height="10" viewBox="0 0 12 10" fill="none" xmlns="http://www.w3.org/2000/svg">
<path d="M8.94687 9.36404C9.42859 9.4984 9.95597 9.27504 10.1389 8.8096L11.9352 4.24023C12.2302 3.4898 11.4645 2.76041 10.7292 3.09148L9.40133 3.68943C8.99639 3.87177 8.51898 3.73114 8.27754 3.3584L6.75463 1.00723C6.40027 0.460154 5.59973 0.460155 5.24537 1.00723L3.72246 3.3584C3.48102 3.73114 3.00361 3.87177 2.59867 3.68942L1.27076 3.09148C0.535531 2.76041 -0.230161 3.4898 0.0648364 4.24023L1.86124 8.81002C2.04423 9.27553 2.57174 9.49888 3.05352 9.36443C3.92525 9.12115 4.93054 8.98245 6.00088 8.98245C7.07065 8.98245 8.07545 9.12101 8.94687 9.36404Z" fill="white"/>
</svg>
