<svg width="25" height="25" viewBox="0 0 25 25" fill="none" xmlns="http://www.w3.org/2000/svg">
<g clip-path="url(#clip0_4612_41135)">
<path d="M18 14.7585H17C16.8674 14.7585 16.7402 14.8112 16.6464 14.905C16.5527 14.9988 16.5 15.1259 16.5 15.2585V18.7585H6.5V8.75854H11C11.1326 8.75854 11.2598 8.70587 11.3536 8.6121C11.4473 8.51833 11.5 8.39115 11.5 8.25854V7.25854C11.5 7.12594 11.4473 6.99876 11.3536 6.90499C11.2598 6.81122 11.1326 6.75854 11 6.75854H6C5.60218 6.75854 5.22064 6.91658 4.93934 7.19788C4.65804 7.47919 4.5 7.86072 4.5 8.25854V19.2585C4.5 19.6564 4.65804 20.0379 4.93934 20.3192C5.22064 20.6005 5.60218 20.7585 6 20.7585H17C17.3978 20.7585 17.7794 20.6005 18.0607 20.3192C18.342 20.0379 18.5 19.6564 18.5 19.2585V15.2585C18.5 15.1259 18.4473 14.9988 18.3536 14.905C18.2598 14.8112 18.1326 14.7585 18 14.7585ZM19.75 4.75854H15.75C15.0822 4.75854 14.7484 5.56823 15.2188 6.03979L16.3353 7.15636L8.71875 14.7701C8.64883 14.8398 8.59335 14.9226 8.5555 15.0137C8.51764 15.1049 8.49816 15.2026 8.49816 15.3014C8.49816 15.4001 8.51764 15.4978 8.5555 15.589C8.59335 15.6801 8.64883 15.7629 8.71875 15.8326L9.42719 16.5398C9.49687 16.6097 9.57966 16.6652 9.67082 16.703C9.76199 16.7409 9.85973 16.7604 9.95844 16.7604C10.0571 16.7604 10.1549 16.7409 10.2461 16.703C10.3372 16.6652 10.42 16.6097 10.4897 16.5398L18.1025 8.9248L19.2188 10.0398C19.6875 10.5085 20.5 10.1804 20.5 9.50854V5.50854C20.5 5.30963 20.421 5.11887 20.2803 4.97821C20.1397 4.83756 19.9489 4.75854 19.75 4.75854Z" fill="white" fill-opacity="0.6"/>
</g>
<defs>
<clipPath id="clip0_4612_41135">
<rect width="24" height="24" fill="white" transform="translate(0.5 0.758545)"/>
</clipPath>
</defs>
</svg>
