<svg width="24" height="24" viewBox="0 0 24 24" fill="none" xmlns="http://www.w3.org/2000/svg">
<path d="M5.28925 13.7167L8.06959 8.91779H9.47639L6.69846 13.7167H8.71706L11.5015 8.91585L12.1867 10.0452L9.44071 14.7832H5.93673L5.28925 13.7167Z" fill="#EAB11F"/>
<path d="M13.3231 14.7856H11.9341L13.9755 11.255H15.3694L14.6611 10.0695H12.5651L13.249 8.92002H18.4292L17.7356 10.0591H16.0626L15.3694 11.255L13.3231 14.7856Z" fill="#EAB11F"/>
<path d="M11.8593 21.7057C6.4248 21.7057 2.00427 17.2844 2.00427 11.8502C2.00427 6.41603 6.4248 1.99573 11.8593 1.99573C17.2937 1.99573 21.7143 6.41702 21.7143 11.8502C21.7143 17.2834 17.2937 21.7057 11.8593 21.7057ZM11.8593 3.8917C7.47046 3.8917 3.90034 7.46263 3.90034 11.8502C3.90034 16.2378 7.47046 19.8098 11.8593 19.8098C16.2481 19.8098 19.8182 16.2388 19.8182 11.8502C19.8182 7.46164 16.2481 3.8917 11.8593 3.8917Z" fill="#EAB11F"/>
</svg>
