<svg width="72" height="72" viewBox="0 0 72 72" fill="none" xmlns="http://www.w3.org/2000/svg">
<g clip-path="url(#clip0_6015_57627)">
<path d="M56.9601 42.0573C56.7431 42.7018 56.1428 43.1324 55.4633 43.1697L51.1761 43.4321C50.8575 43.9572 50.501 44.4708 50.1057 44.9626C49.7103 45.4543 49.2853 45.9128 48.8408 46.3368L49.5055 50.5802C49.615 51.2519 49.3234 51.9307 48.7405 52.2811C47.9419 52.7592 47.1148 53.1675 46.2603 53.516L45.6192 53.7631C44.7361 54.0887 43.8349 54.3432 42.9212 54.5312C42.2528 54.6717 41.5822 54.3584 41.2077 53.7937L38.8364 50.2211C37.5967 50.194 36.3551 50.0054 35.1529 49.6507L31.8132 52.3411C31.2805 52.7695 30.5492 52.8594 29.9542 52.5222C29.0594 52.0193 28.1923 51.4352 27.3632 50.7686C26.534 50.102 25.7773 49.3806 25.0939 48.6147C24.6368 48.106 24.5675 47.3725 24.8715 46.7602L26.7817 42.9206C26.177 41.8226 25.7261 40.6505 25.4334 39.4455L21.4359 37.9074C20.804 37.6629 20.3586 37.0695 20.3476 36.3923C20.335 35.4595 20.3899 34.5247 20.5182 33.5923L20.6218 32.9131C20.7787 32.0037 20.9997 31.1082 21.2952 30.2254C21.5121 29.5809 22.1124 29.1503 22.792 29.113L27.0791 28.8507C27.4024 28.3198 27.7588 27.8062 28.1542 27.3144C28.5495 26.8227 28.9746 26.3642 29.4191 25.9402L28.7544 21.6968C28.6449 21.025 28.9364 20.3463 29.5193 19.9959C30.318 19.5177 31.1451 19.1095 31.9996 18.761L32.6407 18.5139C33.5238 18.1883 34.425 17.9338 35.3387 17.7458C36.007 17.6053 36.6777 17.9186 37.0522 18.4833L39.4234 22.0559C40.6631 22.083 41.9047 22.2716 43.107 22.6263L46.4467 19.9359C46.9794 19.5075 47.7106 19.4176 48.3056 19.7548C49.2051 20.2519 50.0722 20.8361 50.9013 21.5027C51.7304 22.1693 52.4872 22.8907 53.1706 23.6566C53.6277 24.1653 53.6969 24.8988 53.393 25.511L51.4828 29.3507C52.0874 30.4487 52.5383 31.6208 52.831 32.8257L56.8297 34.3742C57.4616 34.6187 57.907 35.2121 57.918 35.8893C57.9306 36.8221 57.8757 37.7569 57.7474 38.6893L57.6438 39.3685C57.4869 40.2779 57.2659 41.1734 56.9704 42.0561L56.9601 42.0573ZM35.4551 40.7152C36.6683 41.6906 38.2193 42.1441 39.7669 41.9759C41.3145 41.8077 42.7318 41.0317 43.7072 39.8185C44.6826 38.6052 45.1361 37.0543 44.9679 35.5067C44.7997 33.9591 44.0237 32.5418 42.8104 31.5664C41.5972 30.591 40.0462 30.1375 38.4987 30.3057C36.9511 30.4739 35.5338 31.2499 34.5584 32.4631C33.583 33.6763 33.1295 35.2273 33.2977 36.7749C33.4659 38.3225 34.2419 39.7398 35.4551 40.7152Z" fill="white"/>
</g>
<g clip-path="url(#clip1_6015_57627)">
<path d="M71.4338 21.8515C71.5463 22.1574 71.4514 22.4984 71.2088 22.7164L69.6866 24.1015C69.7252 24.3933 69.7463 24.6921 69.7463 24.9944C69.7463 25.2968 69.7252 25.5956 69.6866 25.8874L71.2088 27.2725C71.4514 27.4905 71.5463 27.8315 71.4338 28.1374C71.2791 28.5557 71.0928 28.9565 70.8783 29.3432L70.7131 29.6279C70.4811 30.0147 70.2209 30.3803 69.9362 30.7248C69.7288 30.9779 69.3842 31.0623 69.0749 30.9639L67.1167 30.3416C66.6456 30.7037 66.1253 31.006 65.5699 31.2346L65.1304 33.2419C65.0601 33.5619 64.814 33.815 64.4906 33.8677C64.0054 33.9486 63.5062 33.9908 62.9965 33.9908C62.4867 33.9908 61.9875 33.9486 61.5024 33.8677C61.1789 33.815 60.9328 33.5619 60.8625 33.2419L60.4231 31.2346C59.8676 31.006 59.3473 30.7037 58.8762 30.3416L56.9216 30.9674C56.6122 31.0658 56.2677 30.9779 56.0603 30.7283C55.7755 30.3838 55.5154 30.0182 55.2833 29.6315L55.1181 29.3467C54.9037 28.96 54.7173 28.5592 54.5627 28.1409C54.4502 27.835 54.5451 27.494 54.7877 27.276L56.3099 25.8909C56.2712 25.5956 56.2501 25.2968 56.2501 24.9944C56.2501 24.6921 56.2712 24.3933 56.3099 24.1015L54.7877 22.7164C54.5451 22.4984 54.4502 22.1574 54.5627 21.8515C54.7173 21.4332 54.9037 21.0324 55.1181 20.6457L55.2833 20.3609C55.5154 19.9742 55.7755 19.6086 56.0603 19.2641C56.2677 19.011 56.6122 18.9266 56.9216 19.025L58.8798 19.6473C59.3508 19.2852 59.8711 18.9829 60.4266 18.7543L60.866 16.747C60.9364 16.427 61.1824 16.1739 61.5059 16.1212C61.991 16.0368 62.4902 15.9946 63 15.9946C63.5097 15.9946 64.009 16.0368 64.4941 16.1177C64.8175 16.1704 65.0636 16.4235 65.1339 16.7434L65.5734 18.7508C66.1288 18.9793 66.6491 19.2817 67.1202 19.6438L69.0784 19.0215C69.3877 18.9231 69.7323 19.011 69.9397 19.2606C70.2245 19.6051 70.4846 19.9707 70.7166 20.3574L70.8819 20.6422C71.0963 21.0289 71.2826 21.4297 71.4373 21.848L71.4338 21.8515ZM63 27.8069C63.7459 27.8069 64.4612 27.5106 64.9887 26.9831C65.5161 26.4557 65.8124 25.7404 65.8124 24.9944C65.8124 24.2485 65.5161 23.5332 64.9887 23.0057C64.4612 22.4783 63.7459 22.182 63 22.182C62.2541 22.182 61.5387 22.4783 61.0113 23.0057C60.4839 23.5332 60.1875 24.2485 60.1875 24.9944C60.1875 25.7404 60.4839 26.4557 61.0113 26.9831C61.5387 27.5106 62.2541 27.8069 63 27.8069Z" fill="white"/>
</g>
<g clip-path="url(#clip2_6015_57627)">
<path d="M23.2761 44.1271C23.3824 44.524 23.2241 44.9413 22.8946 45.1873L20.8246 46.7522C20.8397 47.1231 20.832 47.5007 20.7974 47.8803C20.7628 48.26 20.7021 48.6328 20.6201 48.9947L22.373 50.9082C22.6526 51.2097 22.7328 51.6488 22.5565 52.0199C22.3144 52.5275 22.0345 53.0094 21.721 53.4705L21.4809 53.8091C21.1453 54.2681 20.7768 54.6974 20.3798 55.0974C20.0903 55.3915 19.6481 55.458 19.2709 55.299L16.8833 54.2935C16.2503 54.6942 15.5624 55.0143 14.8388 55.2377L14.0572 57.7079C13.9323 58.1016 13.5943 58.3912 13.1821 58.4204C12.5637 58.4664 11.932 58.4622 11.2919 58.4039C10.6519 58.3455 10.0299 58.2354 9.42993 58.0783C9.02985 57.9751 8.74982 57.6291 8.69816 57.2193L8.37618 54.6484C7.70487 54.2979 7.08616 53.8587 6.53609 53.3501L4.01008 53.9121C3.61034 54.0003 3.1878 53.8505 2.95593 53.5133C2.63781 53.0481 2.35301 52.5592 2.10593 52.0471L1.93106 51.6706C1.70605 51.1605 1.51797 50.6359 1.37164 50.0929C1.26539 49.696 1.42362 49.2786 1.75316 49.0327L3.82315 47.4677C3.8084 47.0925 3.81612 46.7149 3.85074 46.3352C3.88535 45.9556 3.94604 45.5828 4.02801 45.2208L2.27517 43.3073C1.99553 43.0058 1.91539 42.5668 2.09166 42.1956C2.33379 41.688 2.61363 41.2061 2.92717 40.7451L3.16725 40.4064C3.50287 39.9474 3.87139 39.5181 4.26839 39.1181C4.55782 38.824 5.00008 38.7575 5.37727 38.9165L7.76483 39.9221C8.3978 39.5213 9.08574 39.2012 9.80937 38.9779L10.591 36.5076C10.7159 36.114 11.0539 35.8243 11.466 35.7951C12.0849 35.7447 12.7165 35.7489 13.3566 35.8073C13.9967 35.8656 14.6187 35.9757 15.2186 36.1328C15.6187 36.236 15.8987 36.5821 15.9504 36.9918L16.2724 39.5627C16.9437 39.9132 17.5624 40.3524 18.1125 40.861L20.6425 40.3039C21.0422 40.2157 21.4648 40.3655 21.6966 40.7027C22.0148 41.1679 22.2996 41.6567 22.5466 42.1689L22.7215 42.5454C22.9465 43.0555 23.1346 43.5801 23.2809 44.1231L23.2761 44.1271ZM12.0043 50.6395C12.9409 50.7248 13.8731 50.4347 14.5957 49.8328C15.3184 49.2309 15.7724 48.3666 15.8578 47.43C15.9432 46.4934 15.653 45.5612 15.0511 44.8385C14.4492 44.1159 13.5849 43.6619 12.6483 43.5765C11.7117 43.4911 10.7795 43.7813 10.0568 44.3832C9.33416 44.9851 8.8802 45.8494 8.7948 46.786C8.70941 47.7226 8.99958 48.6548 9.60148 49.3774C10.2034 50.1001 11.0677 50.5541 12.0043 50.6395Z" fill="white"/>
</g>
<defs>
<clipPath id="clip0_6015_57627">
<rect width="37.5645" height="37.5645" fill="white" transform="translate(36.2656 9.73389) rotate(38.798)"/>
</clipPath>
<clipPath id="clip1_6015_57627">
<rect width="17.9996" height="17.9996" fill="white" transform="translate(54 15.9946)"/>
</clipPath>
<clipPath id="clip2_6015_57627">
<rect width="22.6952" height="22.6952" fill="white" transform="translate(2.0625 34.7773) rotate(5.20946)"/>
</clipPath>
</defs>
</svg>
