<svg width="44" height="44" viewBox="0 0 44 44" fill="none" xmlns="http://www.w3.org/2000/svg">
<path d="M26.8125 22.6875C26.8125 23.7753 26.4899 24.8387 25.8856 25.7431C25.2812 26.6476 24.4223 27.3526 23.4173 27.7688C22.4123 28.1851 21.3064 28.294 20.2395 28.0818C19.1726 27.8696 18.1926 27.3458 17.4234 26.5766C16.6542 25.8074 16.1304 24.8274 15.9182 23.7605C15.706 22.6936 15.8149 21.5877 16.2312 20.5827C16.6474 19.5777 17.3524 18.7188 18.2569 18.1144C19.1613 17.5101 20.2247 17.1875 21.3125 17.1875C22.7698 17.192 24.1661 17.773 25.1966 18.8034C26.227 19.8339 26.808 21.2302 26.8125 22.6875ZM38.5 15.125V30.25C38.5 32.8027 37.4859 35.2509 35.6809 37.0559C33.8759 38.8609 31.4277 39.875 28.875 39.875H13.75C11.1973 39.875 8.74913 38.8609 6.9441 37.0559C5.13906 35.2509 4.125 32.8027 4.125 30.25V15.125C4.125 12.5723 5.13906 10.1241 6.9441 8.3191C8.74913 6.51406 11.1973 5.5 13.75 5.5H28.875C31.4277 5.5 33.8759 6.51406 35.6809 8.3191C37.4859 10.1241 38.5 12.5723 38.5 15.125ZM29.5625 22.6875C29.5625 21.0558 29.0786 19.4608 28.1721 18.104C27.2656 16.7473 25.9771 15.6899 24.4696 15.0655C22.9621 14.4411 21.3033 14.2777 19.703 14.596C18.1027 14.9144 16.6327 15.7001 15.4789 16.8539C14.3251 18.0077 13.5394 19.4777 13.221 21.078C12.9027 22.6783 13.0661 24.3371 13.6905 25.8446C14.3149 27.3521 15.3723 28.6406 16.729 29.5471C18.0858 30.4536 19.6808 30.9375 21.3125 30.9375C23.5005 30.9375 25.599 30.0683 27.1461 28.5211C28.6933 26.974 29.5625 24.8755 29.5625 22.6875ZM32.3125 13.75C32.3125 13.3421 32.1915 12.9433 31.9649 12.6041C31.7383 12.265 31.4162 12.0006 31.0393 11.8445C30.6624 11.6884 30.2477 11.6475 29.8476 11.7271C29.4475 11.8067 29.08 12.0031 28.7916 12.2916C28.5031 12.58 28.3067 12.9475 28.2271 13.3476C28.1475 13.7477 28.1884 14.1624 28.3445 14.5393C28.5006 14.9162 28.765 15.2383 29.1041 15.4649C29.4433 15.6915 29.8421 15.8125 30.25 15.8125C30.797 15.8125 31.3216 15.5952 31.7084 15.2084C32.0952 14.8216 32.3125 14.297 32.3125 13.75Z" fill="white"/>
</svg>
