<svg width="25" height="24" viewBox="0 0 25 24" fill="none" xmlns="http://www.w3.org/2000/svg">
<path d="M13.5 11.6L16 14.1C16.1833 14.2833 16.275 14.5167 16.275 14.8C16.275 15.0833 16.1833 15.3167 16 15.5C15.8167 15.6833 15.5833 15.775 15.3 15.775C15.0167 15.775 14.7833 15.6833 14.6 15.5L11.8 12.7C11.7 12.6 11.625 12.4873 11.575 12.362C11.525 12.2373 11.5 12.1083 11.5 11.975V8C11.5 7.71667 11.596 7.479 11.788 7.287C11.9793 7.09567 12.2167 7 12.5 7C12.7833 7 13.021 7.09567 13.213 7.287C13.4043 7.479 13.5 7.71667 13.5 8V11.6ZM12.5 21C10.4833 21 8.675 20.404 7.075 19.212C5.475 18.0207 4.4 16.4667 3.85 14.55C3.76667 14.25 3.796 13.9667 3.938 13.7C4.07933 13.4333 4.3 13.2667 4.6 13.2C4.88333 13.1333 5.13767 13.1957 5.363 13.387C5.58767 13.579 5.74167 13.8167 5.825 14.1C6.25833 15.5667 7.096 16.75 8.338 17.65C9.57933 18.55 10.9667 19 12.5 19C14.45 19 16.104 18.3207 17.462 16.962C18.8207 15.604 19.5 13.95 19.5 12C19.5 10.05 18.8207 8.39567 17.462 7.037C16.104 5.679 14.45 5 12.5 5C11.35 5 10.275 5.26667 9.275 5.8C8.275 6.33333 7.43333 7.06667 6.75 8H8.5C8.78333 8 9.021 8.09567 9.213 8.287C9.40433 8.479 9.5 8.71667 9.5 9C9.5 9.28333 9.40433 9.52067 9.213 9.712C9.021 9.904 8.78333 10 8.5 10H4.5C4.21667 10 3.97933 9.904 3.788 9.712C3.596 9.52067 3.5 9.28333 3.5 9V5C3.5 4.71667 3.596 4.479 3.788 4.287C3.97933 4.09567 4.21667 4 4.5 4C4.78333 4 5.021 4.09567 5.213 4.287C5.40433 4.479 5.5 4.71667 5.5 5V6.35C6.35 5.28333 7.38767 4.45833 8.613 3.875C9.83767 3.29167 11.1333 3 12.5 3C13.75 3 14.921 3.23733 16.013 3.712C17.1043 4.18733 18.0543 4.829 18.863 5.637C19.671 6.44567 20.3127 7.39567 20.788 8.487C21.2627 9.579 21.5 10.75 21.5 12C21.5 13.25 21.2627 14.4207 20.788 15.512C20.3127 16.604 19.671 17.554 18.863 18.362C18.0543 19.1707 17.1043 19.8127 16.013 20.288C14.921 20.7627 13.75 21 12.5 21Z" fill="#EAB11F"/>
</svg>
