<svg width="96" height="81" viewBox="0 0 96 81" fill="none" xmlns="http://www.w3.org/2000/svg">
<path fill-rule="evenodd" clip-rule="evenodd" d="M9.99902 20.7529C9.99902 17.9184 11.125 15.2 13.1293 13.1957C15.1336 11.1914 17.852 10.0654 20.6865 10.0654H75.3115C78.146 10.0654 80.8644 11.1914 82.8687 13.1957C84.873 15.2 85.999 17.9184 85.999 20.7529V61.1279C85.999 63.9624 84.873 66.6808 82.8687 68.6851C80.8644 70.6894 78.146 71.8154 75.3115 71.8154H60.5628C61.4904 74.9234 63.3066 77.6923 65.7878 79.7812C66.3459 80.2526 66.7457 80.8841 66.9328 81.5903C67.12 82.2965 67.0855 83.0432 66.834 83.7291C66.5826 84.415 66.1263 85.0071 65.5271 85.425C64.9278 85.8429 64.2146 86.0665 63.484 86.0654H32.514C31.7839 86.0655 31.0713 85.8412 30.4728 85.423C29.8743 85.0047 29.4188 84.4126 29.168 83.7269C28.9171 83.0412 28.883 82.2949 29.0703 81.5892C29.2576 80.8834 29.6572 80.2523 30.215 79.7812C32.6945 77.6916 34.509 74.9228 35.4353 71.8154H20.6865C17.852 71.8154 15.1336 70.6894 13.1293 68.6851C11.125 66.6808 9.99902 63.9624 9.99902 61.1279V20.7529ZM17.124 20.7529C17.124 19.8081 17.4994 18.902 18.1675 18.2339C18.8356 17.5658 19.7417 17.1904 20.6865 17.1904H75.3115C76.2564 17.1904 77.1625 17.5658 77.8306 18.2339C78.4987 18.902 78.874 19.8081 78.874 20.7529V56.3779C78.874 57.3228 78.4987 58.2289 77.8306 58.897C77.1625 59.5651 76.2564 59.9404 75.3115 59.9404H20.6865C19.7417 59.9404 18.8356 59.5651 18.1675 58.897C17.4994 58.2289 17.124 57.3228 17.124 56.3779V20.7529Z" fill="white" fill-opacity="0.2"/>
</svg>
