<svg width="25" height="24" viewBox="0 0 25 24" fill="none" xmlns="http://www.w3.org/2000/svg">
<path d="M11.5393 2.43301C11.6435 2.37503 11.7977 2.41811 11.8336 2.53848C11.8722 2.63791 11.8054 2.7289 11.7506 2.80579C11.363 3.3553 11.1057 3.99378 10.9841 4.6544C10.9105 4.6858 10.8891 4.76309 10.9121 4.83596C10.9483 4.84924 10.9849 4.86092 11.022 4.87219C11.7744 4.80617 12.5377 4.81985 13.2784 4.97807C14.6262 5.2494 15.8859 5.93136 16.854 6.90639C17.8194 7.87135 18.4969 9.12174 18.7711 10.4595C19.075 11.9079 18.9051 13.4498 18.2973 14.7988C17.0082 17.5536 14.8351 19.8837 12.1762 21.3607C12.0904 21.4006 11.9668 21.4022 11.908 21.3169C11.8388 21.2275 11.8674 21.1003 11.9358 21.019C12.2945 20.5186 12.5449 19.9433 12.681 19.3434C12.7071 19.2191 12.743 19.093 12.7321 18.965C12.6882 18.9079 12.6158 18.9252 12.5542 18.9272C11.2635 19.0564 9.93544 18.8257 8.76919 18.2557C7.52 17.6539 6.46003 16.67 5.75915 15.4739C5.10981 14.3737 4.76842 13.0923 4.79218 11.8141C4.7966 10.641 5.11665 9.47761 5.68025 8.45065C6.99223 5.93176 9.05219 3.80618 11.5393 2.43301ZM11.4668 9.16441C10.6991 9.26747 9.99099 9.71835 9.56104 10.3609C9.26999 10.8021 9.09366 11.3262 9.09728 11.8568C9.07554 12.5678 9.35895 13.2799 9.85009 13.792C10.2792 14.2541 10.8754 14.5553 11.5006 14.6358C12.1371 14.7199 12.8017 14.571 13.3408 14.2211C13.8887 13.8733 14.3062 13.3242 14.493 12.7022C14.8436 11.6225 14.4233 10.3576 13.5087 9.69057C12.9342 9.25338 12.181 9.05934 11.4668 9.16441Z" fill="white"/>
</svg>
