<svg width="48" height="48" viewBox="0 0 48 48" fill="none" xmlns="http://www.w3.org/2000/svg">
<g clip-path="url(#clip0_3433_2829)">
<path fill-rule="evenodd" clip-rule="evenodd" d="M23.9999 47.6461C24.3315 47.2645 24.799 46.7661 25.7975 46.0839C27.7751 44.7327 31.836 42.6605 41.0508 39.3475C41.7005 38.9516 43 37.4279 43 34.5005V11.5999C41.4036 11.4008 38.2108 9.99183 38.2108 5.9492C36.558 4.72965 31.4018 2.29053 23.9999 2.29053C16.5981 2.29053 11.442 4.72965 9.78915 5.9492C9.78915 9.99183 6.59638 11.4008 5 11.5999V34.5005C5 37.4279 6.29948 38.9516 6.94922 39.3475C16.1638 42.6604 20.2246 44.7326 22.2023 46.0838C23.2009 46.7661 23.6683 47.2645 23.9999 47.6461ZM24 43.6805C26.2704 42.1041 30.4963 39.9793 39.4701 36.7285C39.5066 36.6736 39.5499 36.6018 39.5965 36.5104C39.7788 36.1529 40 35.5096 40 34.5005V13.7783C39.3287 13.4529 38.6503 13.0212 38.0193 12.463C36.7539 11.3439 35.7459 9.76821 35.3699 7.73296C33.434 6.73965 29.4515 5.29053 23.9999 5.29053C18.5484 5.29053 14.5659 6.73965 12.6301 7.73295C12.2541 9.7682 11.2461 11.3439 9.98074 12.463C9.34965 13.0212 8.67125 13.4529 8 13.7783V34.5005C8 35.5096 8.2212 36.1529 8.40352 36.5104C8.4501 36.6018 8.49337 36.6736 8.52993 36.7285C17.5037 39.9793 21.7295 42.1042 24 43.6805Z" fill="white" fill-opacity="0.2"/>
<mask id="mask0_3433_2829" style="mask-type:alpha" maskUnits="userSpaceOnUse" x="8" y="-16" width="32" height="56">
<path d="M9.64145 33.6307C21.3192 37.4573 23.1677 39.1272 24 40C24.8322 39.1272 26.6808 37.4573 38.3586 33.6307C38.9057 33.3268 40 32.1574 40 29.9106V-8.85493C38.6557 -9.00777 35.967 -10.0892 35.967 -13.1919C34.5752 -14.1279 30.2331 -16 24 -16C17.7668 -16 13.4248 -14.1279 12.033 -13.1919C12.033 -10.0892 9.34432 -9.00777 8 -8.85493V29.9106C8 32.1574 9.0943 33.3268 9.64145 33.6307Z" fill="#D9D9D9"/>
</mask>
<g mask="url(#mask0_3433_2829)">
<path d="M11.0469 36.2462L11.2999 28.4472C11.8048 27.0903 12.8123 25.9796 14.1137 25.3452L19.3157 22.8092C19.9967 22.4772 20.4118 21.7688 20.3686 21.0125L20.2424 18.8034C20.2361 18.6928 20.1433 18.6068 20.0377 18.5735C19.6402 18.4484 19.0238 17.9381 18.65 16.5711C18.6183 16.4552 18.5883 16.3332 18.5604 16.2048C18.5391 16.1266 18.5204 16.0334 18.5098 15.9352C18.477 15.6309 18.5221 15.2789 18.8092 15.1807C18.9403 15.1359 19.062 15.0256 19.0472 14.8879C18.8191 12.7651 19.4623 8.9999 23.7814 8.9999C23.8519 8.9999 23.9215 9.00058 23.9902 9.00193C24.0588 9.00058 24.1284 8.9999 24.199 8.9999C28.518 8.9999 29.1612 12.7651 28.9332 14.8879C28.9184 15.0256 29.0401 15.1359 29.1712 15.1807C29.4175 15.265 29.4857 15.5361 29.4794 15.8036C29.4778 15.8712 29.4714 15.9384 29.462 16.0024C29.4512 16.0757 29.4363 16.1447 29.42 16.2048C29.4016 16.2893 29.3823 16.3711 29.3623 16.4502C29.3504 16.4971 29.3382 16.543 29.3258 16.5881C28.9514 17.9424 28.3385 18.4489 27.9427 18.5735C27.8371 18.6068 27.7443 18.6928 27.738 18.8034L27.6118 21.0125C27.5685 21.7688 27.9837 22.4772 28.6646 22.8092L33.8667 25.3452C35.1681 25.9796 36.1756 27.0903 36.6805 28.4472L36.9602 36.3139C34.4207 40.8366 29.5784 43.8924 24.0224 43.8924C18.4387 43.8924 13.5759 40.806 11.0469 36.2462Z" fill="white" fill-opacity="0.2"/>
</g>
</g>
<defs>
<clipPath id="clip0_3433_2829">
<rect width="48" height="48" fill="white"/>
</clipPath>
</defs>
</svg>
