<svg width="72" height="32" viewBox="0 0 72 32" fill="none" xmlns="http://www.w3.org/2000/svg">
<path d="M12.668 4.00088V24.5253L17.3161 26V8.78459C17.3161 7.97487 17.6785 7.43624 18.2628 7.62309C19.0144 7.83802 19.1632 8.57843 19.1632 9.38727V16.2589C22.063 17.6528 24.3439 16.2545 24.3439 12.5717C24.3439 8.78459 23.0079 7.102 19.075 5.75452C17.5209 5.22817 14.6442 4.36494 12.6733 4L12.668 4.00088ZM18.1978 22.9989L25.6753 20.3346C26.5232 20.0337 26.6541 19.6047 25.9674 19.3802C25.2719 19.1565 24.0232 19.2152 23.1647 19.5214L18.1737 21.2759V18.4836L18.456 18.388C18.456 18.388 19.8846 17.8958 21.9161 17.666C23.9297 17.4563 26.4118 17.702 28.3739 18.438C30.5683 19.1424 30.7999 20.1609 30.2432 20.8654C29.6911 21.5637 28.3186 22.076 28.3186 22.076L18.1737 25.7078V23.0208L18.1978 22.9989ZM4.14751 22.7208C1.88804 22.0812 1.51754 20.7697 2.54174 20.0013C3.49291 19.3205 5.10225 18.7731 5.10225 18.7731L11.772 16.4194V19.124L6.99479 20.8469C6.15495 21.1628 6.01601 21.5873 6.71247 21.8111C7.40803 22.04 8.65488 21.99 9.49117 21.6742L11.7916 20.8469V23.2726C11.6527 23.305 11.4897 23.3226 11.3276 23.3594C9.02716 23.7445 6.58689 23.5884 4.16087 22.798L4.14751 22.7208Z" fill="white"/>
<path d="M48.6876 24.3616C50.709 26.1383 53.3095 27.1159 56.0008 27.1109C58.8035 27.1109 61.3611 26.0769 63.3174 24.3616C65.0535 22.5929 59.3209 16.2999 56.0008 13.793C52.6841 16.2992 46.9481 22.5929 48.6876 24.3616ZM59.0209 11.027C61.3354 13.7687 65.9507 20.5749 64.6486 22.9804C66.2464 21.0066 67.1162 18.5429 67.1118 16.0034C67.1118 12.9111 65.85 10.1118 63.8062 8.10069C63.8062 8.10069 63.7806 8.07847 63.7306 8.06111C63.6466 8.03222 63.5582 8.01881 63.4694 8.02152C62.9243 8.02152 61.6327 8.42221 59.0216 11.027H59.0209ZM48.271 8.06111C48.221 8.07847 48.1953 8.10069 48.1911 8.10069C47.1431 9.1324 46.3114 10.3627 45.7444 11.7196C45.1774 13.0765 44.8867 14.5328 44.8891 16.0034C44.8891 18.6471 45.8113 21.0707 47.3522 22.9762C46.0578 20.5679 50.6654 13.7645 52.9834 11.0264C50.3723 8.41805 49.0772 8.02083 48.5314 8.02083C48.4422 8.01662 48.3532 8.03154 48.2703 8.06458L48.271 8.06111ZM56.0008 8.17708C56.0008 8.17708 53.2737 6.58195 51.1432 6.50557C50.3078 6.47709 49.798 6.77709 49.7355 6.82015C51.7216 5.48613 53.8334 4.88892 55.9855 4.88892H56.0001C58.1632 4.88892 60.2639 5.48613 62.2646 6.82015C62.2028 6.7764 61.6958 6.4764 60.857 6.50557C58.7264 6.58126 55.9994 8.17291 55.9994 8.17291L56.0008 8.17708Z" fill="white"/>
</svg>
