<svg width="120" height="24" viewBox="0 0 120 24" fill="none" xmlns="http://www.w3.org/2000/svg">
<path d="M12 18.271L7.30584 21.855C7.07325 22.0453 6.81951 22.135 6.54463 22.124C6.26975 22.1138 6.02658 22.0347 5.81513 21.8867C5.60368 21.7387 5.44002 21.5378 5.32415 21.2841C5.20743 21.0304 5.20193 20.7555 5.30766 20.4594L7.11554 14.5918L2.51654 11.3249C2.2628 11.1557 2.10421 10.9337 2.04078 10.6588C1.97734 10.3839 1.98792 10.1302 2.0725 9.8976C2.15708 9.66501 2.30509 9.45863 2.51654 9.27848C2.72799 9.09917 2.98172 9.00952 3.27775 9.00952H8.95514L10.7947 2.9198C10.9005 2.62377 11.0646 2.39625 11.287 2.23725C11.5086 2.07908 11.7463 2 12 2C12.2537 2 12.4914 2.07908 12.713 2.23725C12.9354 2.39625 13.0995 2.62377 13.2053 2.9198L15.0449 9.00952H20.7222C21.0183 9.00952 21.272 9.09917 21.4835 9.27848C21.6949 9.45863 21.8429 9.66501 21.9275 9.8976C22.0121 10.1302 22.0227 10.3839 21.9592 10.6588C21.8958 10.9337 21.7372 11.1557 21.4835 11.3249L16.8845 14.5918L18.6923 20.4594C18.7981 20.7555 18.793 21.0304 18.6771 21.2841C18.5604 21.5378 18.3963 21.7387 18.1849 21.8867C17.9734 22.0347 17.7303 22.1138 17.4554 22.124C17.1805 22.135 16.9267 22.0453 16.6942 21.855L12 18.271Z" fill="#EAB11F"/>
<path d="M60 18.271L55.3058 21.855C55.0733 22.0453 54.8195 22.135 54.5446 22.124C54.2697 22.1138 54.0266 22.0347 53.8151 21.8867C53.6037 21.7387 53.44 21.5378 53.3242 21.2841C53.2074 21.0304 53.2019 20.7555 53.3077 20.4594L55.1155 14.5918L50.5165 11.3249C50.2628 11.1557 50.1042 10.9337 50.0408 10.6588C49.9773 10.3839 49.9879 10.1302 50.0725 9.8976C50.1571 9.66501 50.3051 9.45863 50.5165 9.27848C50.728 9.09917 50.9817 9.00952 51.2778 9.00952H56.9551L58.7947 2.9198C58.9005 2.62377 59.0646 2.39625 59.287 2.23725C59.5086 2.07908 59.7463 2 60 2C60.2537 2 60.4914 2.07908 60.713 2.23725C60.9354 2.39625 61.0995 2.62377 61.2053 2.9198L63.0449 9.00952H68.7222C69.0183 9.00952 69.272 9.09917 69.4835 9.27848C69.6949 9.45863 69.8429 9.66501 69.9275 9.8976C70.0121 10.1302 70.0227 10.3839 69.9592 10.6588C69.8958 10.9337 69.7372 11.1557 69.4835 11.3249L64.8845 14.5918L66.6923 20.4594C66.7981 20.7555 66.793 21.0304 66.6771 21.2841C66.5604 21.5378 66.3963 21.7387 66.1849 21.8867C65.9734 22.0347 65.7303 22.1138 65.4554 22.124C65.1805 22.135 64.9267 22.0453 64.6942 21.855L60 18.271Z" fill="#EAB11F"/>
<path d="M36 18.271L31.3058 21.855C31.0733 22.0453 30.8195 22.135 30.5446 22.124C30.2697 22.1138 30.0266 22.0347 29.8151 21.8867C29.6037 21.7387 29.44 21.5378 29.3242 21.2841C29.2074 21.0304 29.2019 20.7555 29.3077 20.4594L31.1155 14.5918L26.5165 11.3249C26.2628 11.1557 26.1042 10.9337 26.0408 10.6588C25.9773 10.3839 25.9879 10.1302 26.0725 9.8976C26.1571 9.66501 26.3051 9.45863 26.5165 9.27848C26.728 9.09917 26.9817 9.00952 27.2778 9.00952H32.9551L34.7947 2.9198C34.9005 2.62377 35.0646 2.39625 35.287 2.23725C35.5086 2.07908 35.7463 2 36 2C36.2537 2 36.4914 2.07908 36.713 2.23725C36.9354 2.39625 37.0995 2.62377 37.2053 2.9198L39.0449 9.00952H44.7222C45.0183 9.00952 45.272 9.09917 45.4835 9.27848C45.6949 9.45863 45.8429 9.66501 45.9275 9.8976C46.0121 10.1302 46.0227 10.3839 45.9592 10.6588C45.8958 10.9337 45.7372 11.1557 45.4835 11.3249L40.8845 14.5918L42.6923 20.4594C42.7981 20.7555 42.793 21.0304 42.6771 21.2841C42.5604 21.5378 42.3963 21.7387 42.1849 21.8867C41.9734 22.0347 41.7303 22.1138 41.4554 22.124C41.1805 22.135 40.9267 22.0453 40.6942 21.855L36 18.271Z" fill="#EAB11F"/>
<path d="M84 18.271L79.3058 21.855C79.0733 22.0453 78.8195 22.135 78.5446 22.124C78.2697 22.1138 78.0266 22.0347 77.8151 21.8867C77.6037 21.7387 77.44 21.5378 77.3242 21.2841C77.2074 21.0304 77.2019 20.7555 77.3077 20.4594L79.1155 14.5918L74.5165 11.3249C74.2628 11.1557 74.1042 10.9337 74.0408 10.6588C73.9773 10.3839 73.9879 10.1302 74.0725 9.8976C74.1571 9.66501 74.3051 9.45863 74.5165 9.27848C74.728 9.09917 74.9817 9.00952 75.2778 9.00952H80.9551L82.7947 2.9198C82.9005 2.62377 83.0646 2.39625 83.287 2.23725C83.5086 2.07908 83.7463 2 84 2C84.2537 2 84.4914 2.07908 84.713 2.23725C84.9354 2.39625 85.0995 2.62377 85.2053 2.9198L87.0449 9.00952H92.7222C93.0183 9.00952 93.272 9.09917 93.4835 9.27848C93.6949 9.45863 93.8429 9.66501 93.9275 9.8976C94.0121 10.1302 94.0227 10.3839 93.9592 10.6588C93.8958 10.9337 93.7372 11.1557 93.4835 11.3249L88.8845 14.5918L90.6923 20.4594C90.7981 20.7555 90.793 21.0304 90.6771 21.2841C90.5604 21.5378 90.3963 21.7387 90.1849 21.8867C89.9734 22.0347 89.7303 22.1138 89.4554 22.124C89.1805 22.135 88.9267 22.0453 88.6942 21.855L84 18.271Z" fill="#EAB11F"/>
<path d="M108 18.271L103.306 21.855C103.073 22.0453 102.82 22.135 102.545 22.124C102.27 22.1138 102.027 22.0347 101.815 21.8867C101.604 21.7387 101.44 21.5378 101.324 21.2841C101.207 21.0304 101.202 20.7555 101.308 20.4594L103.116 14.5918L98.5165 11.3249C98.2628 11.1557 98.1042 10.9337 98.0408 10.6588C97.9773 10.3839 97.9879 10.1302 98.0725 9.8976C98.1571 9.66501 98.3051 9.45863 98.5165 9.27848C98.728 9.09917 98.9817 9.00952 99.2778 9.00952H104.955L106.795 2.9198C106.9 2.62377 107.065 2.39625 107.287 2.23725C107.509 2.07908 107.746 2 108 2C108.254 2 108.491 2.07908 108.713 2.23725C108.935 2.39625 109.1 2.62377 109.205 2.9198L111.045 9.00952H116.722C117.018 9.00952 117.272 9.09917 117.483 9.27848C117.695 9.45863 117.843 9.66501 117.928 9.8976C118.012 10.1302 118.023 10.3839 117.959 10.6588C117.896 10.9337 117.737 11.1557 117.483 11.3249L112.884 14.5918L114.692 20.4594C114.798 20.7555 114.793 21.0304 114.677 21.2841C114.56 21.5378 114.396 21.7387 114.185 21.8867C113.973 22.0347 113.73 22.1138 113.455 22.124C113.18 22.135 112.927 22.0453 112.694 21.855L108 18.271Z" fill="#EAB11F"/>
</svg>
