<svg width="43" height="43" viewBox="0 0 43 43" fill="none" xmlns="http://www.w3.org/2000/svg">
<g clip-path="url(#clip0_1605_12665)">
<path d="M39.8144 28.251L39.4113 26.2354H34.907L34.1904 28.2367L30.5802 28.2438C32.2989 24.1107 34.0213 19.9791 35.7473 15.8491C36.0412 15.1485 36.5625 14.792 37.3312 14.7956C37.9188 14.801 38.8774 14.801 40.2086 14.7974L43 28.2456L39.8144 28.251ZM35.9211 23.4744H38.8236L37.7397 18.4219L35.9211 23.4744ZM12.6492 14.7938L16.2791 14.7974L10.6676 28.2528L6.99288 28.2492C6.06882 24.6951 5.15626 21.138 4.25521 17.578C4.07604 16.8685 3.72129 16.3723 3.03867 16.1375C2.03036 15.7997 1.01737 15.476 0 15.1665L0 14.7992H5.79962C6.80296 14.7992 7.38883 15.2847 7.57696 16.2809C7.76687 17.2788 8.24346 19.8194 9.01029 23.9026L12.6492 14.7938ZM21.2671 14.7974L18.3968 28.2492L14.9425 28.2456L17.8092 14.7938L21.2671 14.7974ZM28.2725 14.5483C29.3063 14.5483 30.6088 14.8708 31.3577 15.1665L30.7522 17.9561C30.0749 17.6838 28.9605 17.3165 28.0235 17.329C26.6618 17.3523 25.8197 17.9238 25.8197 18.4721C25.8197 19.3643 27.2817 19.814 28.7867 20.7887C30.5049 21.8995 30.7307 22.8975 30.7092 23.9815C30.6859 26.2318 28.7867 28.4517 24.7805 28.4517C22.953 28.4248 22.2937 28.2707 20.803 27.7422L21.4337 24.8307C22.9513 25.4668 23.5945 25.6692 24.8916 25.6692C26.0795 25.6692 27.099 25.189 27.1079 24.3523C27.1151 23.7575 26.7496 23.4619 25.4166 22.7273C24.0836 21.9909 22.2131 20.9715 22.2382 18.9254C22.2686 16.306 24.7501 14.5483 28.2743 14.5483H28.2725Z" fill="white"/>
</g>
<defs>
<clipPath id="clip0_1605_12665">
<rect width="43" height="43" fill="white"/>
</clipPath>
</defs>
</svg>
