<svg width="32" height="32" viewBox="0 0 32 32" fill="none" xmlns="http://www.w3.org/2000/svg">
<g clip-path="url(#clip0_2587_6759)">
<path fill-rule="evenodd" clip-rule="evenodd" d="M26.3693 5.90668C26.6988 5.768 27.0595 5.72017 27.4137 5.76817C27.768 5.81617 28.1029 5.95824 28.3836 6.17959C28.6643 6.40095 28.8805 6.6935 29.0098 7.02679C29.1391 7.36008 29.1767 7.72194 29.1187 8.07468L26.0947 26.4173C25.8013 28.1867 23.86 29.2013 22.2373 28.32C20.88 27.5827 18.864 26.4467 17.0507 25.2613C16.144 24.668 13.3667 22.768 13.708 21.416C14.0013 20.26 18.668 15.916 21.3347 13.3333C22.3813 12.3187 21.904 11.7333 20.668 12.6667C17.5973 14.984 12.6707 18.508 11.0413 19.5C9.60399 20.3747 8.85465 20.524 7.95865 20.3747C6.32399 20.1027 4.80799 19.6813 3.57065 19.168C1.89865 18.4747 1.97999 16.176 3.56932 15.5067L26.3693 5.90668Z" fill="white"/>
</g>
<defs>
<clipPath id="clip0_2587_6759">
<rect width="32" height="32" fill="white"/>
</clipPath>
</defs>
</svg>
