<svg width="24" height="24" viewBox="0 0 24 24" fill="none" xmlns="http://www.w3.org/2000/svg">
<path fill-rule="evenodd" clip-rule="evenodd" d="M11.5634 2.3386L17.6486 12.3248L11.5636 15.8824L5.47846 12.3248L11.5634 2.3386ZM11.5634 21.9471L5.47839 13.4661L11.5636 17.0219L17.6522 13.4661L11.5634 21.9471Z" fill="#00B3FF"/>
<path d="M12 22C17.5228 22 22 17.5228 22 12C22 6.47715 17.5228 2 12 2C6.47715 2 2 6.47715 2 12C2 17.5228 6.47715 22 12 22Z" fill="#26A17B"/>
<path d="M13.066 12.9228V12.9212C12.9968 12.926 12.6399 12.9469 11.8457 12.9469C11.2106 12.9469 10.7653 12.9292 10.6078 12.9212V12.9228C8.16565 12.815 6.34411 12.3906 6.34411 11.881C6.34411 11.373 8.16726 10.9469 10.6078 10.8392V12.5C10.767 12.5112 11.2251 12.5385 11.857 12.5385C12.6158 12.5385 12.9952 12.5064 13.066 12.5V10.8408C15.5033 10.9501 17.32 11.3745 17.32 11.8826C17.32 12.3906 15.5016 12.815 13.066 12.9244V12.9228ZM13.066 10.6688V9.18324H16.4663V6.91797H7.20906V9.18324H10.6094V10.6688C7.84572 10.7958 5.76855 11.3424 5.76855 11.9984C5.76855 12.6543 7.84733 13.201 10.6094 13.3295V18.0916H13.0676V13.3295C15.8264 13.2025 17.9004 12.6559 17.9004 12C17.9004 11.3456 15.8264 10.7974 13.0676 10.6704" fill="white"/>
</svg>
