<svg width="44" height="44" viewBox="0 0 44 44" fill="none" xmlns="http://www.w3.org/2000/svg">
<path d="M30.8744 10.0771C29.5556 8.57158 28.8288 6.63814 28.8294 4.63672H22.8681V28.5589C22.8222 29.8535 22.2756 31.0796 21.3436 31.9793C20.4116 32.8789 19.1669 33.3817 17.8715 33.3819C15.132 33.3819 12.8555 31.144 12.8555 28.366C12.8555 25.0477 16.058 22.5591 19.357 23.5815V17.4852C12.7012 16.5978 6.875 21.7681 6.875 28.366C6.875 34.7902 12.1996 39.3625 17.8522 39.3625C23.9099 39.3625 28.8294 34.443 28.8294 28.366V16.2313C31.2467 17.9673 34.1489 18.8987 37.125 18.8936V12.9323C37.125 12.9323 33.4981 13.1059 30.8744 10.0771Z" fill="white"/>
</svg>
