<svg width="63" height="32" viewBox="0 0 63 32" fill="none" xmlns="http://www.w3.org/2000/svg">
<path d="M12.4019 17.9263C12.4019 18.9803 12.9243 19.7041 14.4617 19.7042C14.9623 19.7042 15.4117 19.6406 15.8471 19.4653L15.9416 21.6851C15.5569 21.8397 14.8532 21.973 14.0629 21.973C11.2562 21.973 9.65368 20.3926 9.65368 17.997V13.2756H8V11.0977H9.79826V7.34647H12.4025V11.0977H15.7745V13.2478H12.4019V17.9263Z" fill="white"/>
<path d="M17.5441 11.0906H20.3002V21.8538H17.5441V11.0906Z" fill="white"/>
<path d="M24.804 12.6574C25.4564 11.6669 26.6095 10.9856 28.2846 10.9856L28.2851 10.9861C30.7505 10.9861 32.1938 12.6089 32.187 15.0959V21.8604H29.4089V15.7136C29.4089 14.1958 28.6839 13.2968 27.2839 13.2968C25.79 13.2968 24.8185 14.2807 24.8185 15.7555V21.8609H22.0624V11.0977H24.71L24.804 12.6574Z" fill="white"/>
<path d="M44.1171 11.0906L39.9829 15.552L44.5446 21.8538H41.4043L38.2139 17.442L36.6323 19.135V21.8538H33.8762V7.33941H36.6323V15.7489L40.8171 11.0906H44.1171Z" fill="white"/>
<path d="M17.5441 7.33941H20.3002V9.7067H17.5441V7.33941Z" fill="white"/>
<path d="M46.7486 4.41548C46.3304 4.58322 45.8821 4.66956 45.4294 4.66956H45.4226V7.34647C48.8526 7.34647 51.6306 4.65593 51.6306 1.33252H48.8745C48.875 1.77058 48.7862 2.20444 48.6133 2.60929C48.4404 3.01414 48.1867 3.38203 47.8668 3.69195C47.5468 4.00187 47.1668 4.24774 46.7486 4.41548Z" fill="white"/>
<path d="M53.3499 7.59349C53.7681 7.42574 54.2164 7.3394 54.6692 7.3394V4.65542C51.2386 4.65542 48.4611 7.34597 48.4611 10.6694C48.4611 13.9923 51.2386 16.6828 54.6692 16.6828V14.0135C52.7691 14.0135 51.224 12.517 51.224 10.6765C51.2235 10.2384 51.3123 9.80453 51.4852 9.39968C51.6581 8.99483 51.9118 8.62693 52.2318 8.31702C52.5517 8.00709 52.9317 7.76124 53.3499 7.59349Z" fill="white"/>
<path fill-rule="evenodd" clip-rule="evenodd" d="M22.0697 29.5396H22.4759L22.882 28.5143H24.3253L24.7168 29.5396H25.1886L23.868 26.1884H23.3966L22.0697 29.5396ZM24.1875 28.1769H22.9905L23.5783 26.6521H23.5924L24.1875 28.1769Z" fill="white"/>
<path d="M27.7991 29.0688L26.74 26.1884H26.2759L27.5381 29.5396H28.0241L29.2857 26.1884H28.8797L27.8205 29.0688H27.7991Z" fill="white"/>
<path d="M29.8009 26.2798C29.7498 26.3222 29.7284 26.3783 29.7284 26.4414C29.7272 26.4729 29.7325 26.5044 29.745 26.5335C29.7511 26.5476 29.7586 26.561 29.7675 26.5735C29.777 26.5868 29.788 26.5991 29.8004 26.6101C29.8506 26.6525 29.9155 26.675 29.9821 26.6733C30.0485 26.6749 30.1131 26.6524 30.1632 26.6101C30.2138 26.5606 30.2363 26.5116 30.2363 26.4414C30.2374 26.4109 30.2314 26.3805 30.2188 26.3526C30.2061 26.3246 30.1871 26.2997 30.1632 26.2798C30.1126 26.2379 30.0546 26.2167 29.9821 26.2167C29.9155 26.2138 29.8504 26.2365 29.8009 26.2798Z" fill="white"/>
<path d="M30.1851 29.5396V27.0526H29.779V29.5396H30.1851Z" fill="white"/>
<path d="M30.954 27.3127C30.8742 27.4177 30.8303 27.5587 30.8303 27.7203C30.8303 27.8955 30.8669 28.0223 30.9389 28.1067C31.0155 28.2011 31.1189 28.2718 31.2364 28.3102C31.3596 28.3526 31.5052 28.4016 31.6572 28.4436C31.795 28.4784 31.9114 28.5138 32.0053 28.5491C32.084 28.5761 32.1558 28.6192 32.2157 28.6754C32.2663 28.7249 32.2882 28.7951 32.2882 28.8865C32.2882 29.0269 32.2371 29.132 32.1431 29.1956C32.0414 29.2588 31.8967 29.2941 31.6864 29.2941C31.534 29.2941 31.3821 29.2729 31.215 29.2234C31.0553 29.1815 30.9175 29.1108 30.8162 29.0198H30.8016L30.8303 29.4062C30.9453 29.4716 31.0702 29.519 31.2004 29.5466C31.3523 29.582 31.512 29.6027 31.6864 29.6027C31.9907 29.6027 32.2303 29.5325 32.4047 29.3992C32.5785 29.2653 32.6656 29.0688 32.6656 28.8158C32.6656 28.6471 32.6291 28.5208 32.5566 28.437C32.484 28.3521 32.3827 28.2819 32.2522 28.24C32.1217 28.1976 31.9693 28.1486 31.795 28.0996C31.7724 28.0931 31.7503 28.0869 31.7287 28.0808C31.6327 28.0536 31.5472 28.0295 31.476 28.0006C31.3889 27.9658 31.3236 27.9238 31.2803 27.8743C31.2364 27.8183 31.215 27.7481 31.215 27.6637C31.215 27.5162 31.2657 27.4177 31.3675 27.3687C31.4614 27.3198 31.5992 27.2915 31.773 27.2915C31.8605 27.2921 31.9477 27.2992 32.034 27.3127C32.1229 27.3254 32.2104 27.3465 32.295 27.3758C32.3683 27.3934 32.4374 27.4244 32.4986 27.4672H32.5132L32.4913 27.1086C32.4261 27.0809 32.3316 27.0526 32.2084 27.0243C32.0852 26.9965 31.9474 26.9824 31.7877 26.9824C31.6193 26.9793 31.4519 27.008 31.2949 27.0667C31.1498 27.1228 31.0407 27.2071 30.954 27.3127Z" fill="white"/>
<path fill-rule="evenodd" clip-rule="evenodd" d="M33.2456 27.2142L33.2017 27.6006L33.2023 27.6077C33.3181 27.5092 33.4559 27.4319 33.6011 27.3829C33.7462 27.3334 33.898 27.3056 34.051 27.3056C34.2901 27.3056 34.4493 27.3546 34.5365 27.4319C34.6236 27.5092 34.667 27.6425 34.667 27.8253V27.938C34.6163 27.987 34.5218 28.0289 34.3987 28.0572C34.2682 28.0849 34.1011 28.1203 33.8835 28.1557C33.7096 28.191 33.5572 28.2259 33.4345 28.2819C33.304 28.3314 33.2096 28.4087 33.137 28.5067C33.0718 28.6052 33.0352 28.7314 33.0352 28.8931C33.0352 29.0547 33.0712 29.1885 33.1443 29.2936C33.2142 29.3978 33.3155 29.4788 33.4345 29.5254C33.5499 29.5749 33.6809 29.6027 33.826 29.6027C34.0359 29.6027 34.2102 29.5537 34.348 29.4694C34.4926 29.385 34.5944 29.2446 34.6597 29.0618H34.6816V29.5396H35.0657V27.8041C35.0657 27.5162 34.9864 27.3051 34.8267 27.1788C34.6597 27.0526 34.4206 26.9894 34.087 26.9894C33.9251 26.9878 33.7639 27.0091 33.6083 27.0526C33.4633 27.095 33.3395 27.1511 33.2456 27.2142ZM34.667 28.1905V28.7037C34.667 28.7951 34.6382 28.8865 34.5798 28.9774C34.5206 29.0748 34.4355 29.155 34.3334 29.2098C34.2248 29.2724 34.0938 29.3007 33.9419 29.3007C33.7822 29.3007 33.659 29.2658 33.5718 29.1956C33.4778 29.1249 33.434 29.0128 33.434 28.8653C33.434 28.7037 33.4852 28.584 33.5791 28.5208C33.6736 28.4577 33.8041 28.4087 33.9565 28.387C34.1377 28.3592 34.2901 28.3244 34.4133 28.2961C34.5292 28.2678 34.6163 28.2329 34.667 28.1905Z" fill="white"/>
<path d="M36.7701 26.5328C36.6688 26.6662 36.6181 26.842 36.6181 27.046C36.6153 27.1956 36.6448 27.3435 36.7048 27.4814C36.7552 27.5894 36.8356 27.6817 36.9371 27.7481C37.047 27.8154 37.1637 27.8719 37.2853 27.9168C37.42 27.9672 37.5579 28.0094 37.6982 28.043C37.8557 28.0838 38.0108 28.133 38.1627 28.1905C38.2859 28.24 38.3804 28.3031 38.4457 28.3875C38.5109 28.4648 38.5396 28.5769 38.5396 28.7107C38.5396 29.083 38.264 29.2724 37.7274 29.2724C37.517 29.2724 37.3145 29.2375 37.1109 29.1673C36.9079 29.1042 36.7341 29.0057 36.5816 28.886H36.567L36.5889 29.3219C36.7121 29.4062 36.8786 29.4764 37.0822 29.5325C37.2853 29.5886 37.4805 29.6169 37.6841 29.6169C38.0829 29.6169 38.395 29.5325 38.6195 29.3638C38.8444 29.1951 38.953 28.9426 38.953 28.6193C38.953 28.4436 38.9238 28.3031 38.8664 28.1905C38.8011 28.0784 38.7213 27.994 38.6195 27.9238C38.5182 27.8536 38.395 27.7971 38.2645 27.7551C38.134 27.7127 37.9884 27.6708 37.8365 27.6289C37.6695 27.5794 37.5243 27.5304 37.4011 27.488C37.278 27.446 37.1835 27.3829 37.1182 27.3056C37.053 27.2278 37.0164 27.1157 37.0164 26.9753C37.0164 26.7925 37.0822 26.6662 37.22 26.5889C37.3578 26.5116 37.5316 26.4763 37.742 26.4763C37.8667 26.4765 37.9909 26.4907 38.1121 26.5187C38.2314 26.5488 38.3479 26.5887 38.4603 26.6379C38.5529 26.6828 38.6404 26.7369 38.7213 26.7995H38.7359L38.7067 26.3712C38.6341 26.3152 38.5182 26.2657 38.3658 26.2096C38.2134 26.1606 38.0103 26.1323 37.7566 26.1323C37.5607 26.1283 37.366 26.1618 37.1835 26.2308C37.018 26.29 36.8742 26.3951 36.7701 26.5328Z" fill="white"/>
<path fill-rule="evenodd" clip-rule="evenodd" d="M41.3317 27.1581C41.136 27.0455 40.9183 26.9894 40.6646 26.9894C40.4307 26.9869 40.2003 27.0451 39.9975 27.1581C39.8018 27.2703 39.6494 27.4248 39.5408 27.6218C39.4317 27.8183 39.3738 28.0435 39.3738 28.2961C39.3705 28.5308 39.4279 28.7626 39.5408 28.9704C39.6456 29.163 39.8037 29.3235 39.9975 29.434C40.2 29.5478 40.4306 29.6061 40.6646 29.6027C40.8988 29.607 41.1297 29.5487 41.3317 29.434C41.5207 29.3219 41.6726 29.1673 41.7817 28.9704C41.8903 28.7739 41.9487 28.5486 41.9487 28.2961C41.9487 28.043 41.8903 27.8188 41.7817 27.6218C41.6726 27.4248 41.528 27.2703 41.3317 27.1581ZM41.3103 29.0128C41.1652 29.1885 40.9475 29.2724 40.6646 29.2724C40.3817 29.2724 40.164 29.1885 40.0195 29.0128C39.8743 28.837 39.8018 28.5981 39.8018 28.2961C39.8018 27.987 39.8743 27.7481 40.0195 27.5723C40.164 27.397 40.3817 27.3127 40.6646 27.3127C40.9549 27.3127 41.1652 27.397 41.3103 27.5723C41.4549 27.7481 41.528 27.994 41.528 28.2961C41.528 28.5986 41.4555 28.837 41.3103 29.0128Z" fill="white"/>
<path d="M42.9056 29.5396V26.0545H42.4994V29.5396H42.9056Z" fill="white"/>
<path d="M45.0306 29.1744C44.9147 29.2305 44.7842 29.2582 44.6464 29.2582C44.4068 29.2582 44.2397 29.2163 44.1458 29.1113C44.0518 29.0128 44.008 28.8582 44.008 28.6476V27.0455H43.6019V28.732C43.6019 29.0264 43.6818 29.2446 43.8415 29.385C44.0007 29.5254 44.2257 29.5956 44.5013 29.5956C44.6245 29.5956 44.7403 29.5749 44.864 29.5396C44.9851 29.4986 45.0962 29.434 45.1903 29.3497C45.2916 29.2582 45.3641 29.1461 45.4153 29.0057H45.4367V29.533H45.8214V27.046H45.4153V28.5769C45.4196 28.7036 45.3842 28.8287 45.3135 28.9355C45.2429 29.0381 45.1452 29.1206 45.0306 29.1744Z" fill="white"/>
<path d="M47.1994 29.1956C47.1342 29.139 47.0977 29.034 47.0977 28.8724L47.0971 28.8719H47.1123V27.3895H47.8519L47.9026 27.0662H47.1123V26.4828L46.7062 26.5394V27.0733L46.2849 27.1293L46.2275 27.3895H46.6988V28.9426C46.6988 29.1815 46.7641 29.3497 46.8946 29.4552C47.0251 29.5608 47.2068 29.6098 47.4312 29.6098C47.5239 29.6113 47.6164 29.602 47.7068 29.582C47.7764 29.5671 47.8444 29.5458 47.9099 29.5184L47.9464 29.1885H47.9318C47.8916 29.2104 47.8431 29.2238 47.7887 29.2388C47.7739 29.2429 47.7585 29.2471 47.7428 29.2517C47.6708 29.2724 47.5763 29.2795 47.4745 29.2795C47.3587 29.2795 47.2642 29.2512 47.1994 29.1956Z" fill="white"/>
<path d="M48.3885 26.2798C48.3379 26.3222 48.316 26.3783 48.316 26.4414C48.3147 26.4729 48.3206 26.5044 48.3331 26.5335C48.3456 26.5626 48.3646 26.5888 48.3885 26.6101C48.4386 26.6524 48.5033 26.6749 48.5697 26.6733C48.6361 26.6749 48.7007 26.6524 48.7508 26.6101C48.8019 26.5606 48.8239 26.5116 48.8239 26.4414C48.8251 26.4109 48.8192 26.3806 48.8066 26.3526C48.794 26.3246 48.7752 26.2998 48.7513 26.2798C48.7002 26.2379 48.6427 26.2167 48.5697 26.2167C48.503 26.2138 48.4379 26.2365 48.3885 26.2798Z" fill="white"/>
<path d="M48.7727 29.5396V27.0526H48.3666V29.5396H48.7727Z" fill="white"/>
<path fill-rule="evenodd" clip-rule="evenodd" d="M51.2892 27.1581C51.0935 27.0455 50.8758 26.9894 50.6221 26.9894C50.388 26.9851 50.1571 27.0435 49.955 27.1581C49.7593 27.2703 49.6068 27.4248 49.4983 27.6218C49.3892 27.8183 49.3313 28.0435 49.3313 28.2961C49.328 28.5308 49.3855 28.7626 49.4983 28.9704C49.6031 29.163 49.7612 29.3235 49.955 29.434C50.1575 29.5478 50.3881 29.6061 50.6221 29.6027C50.8563 29.607 51.0872 29.5486 51.2892 29.434C51.4782 29.3219 51.6301 29.1673 51.7392 28.9704C51.8478 28.7739 51.9062 28.5486 51.9062 28.2961C51.9062 28.043 51.8478 27.8188 51.7392 27.6218C51.6306 27.4248 51.4855 27.2703 51.2892 27.1581ZM51.2678 29.0128C51.1227 29.1885 50.9051 29.2724 50.6221 29.2724C50.3319 29.2724 50.1148 29.1885 49.977 29.0128C49.8318 28.837 49.7593 28.5981 49.7593 28.2961C49.7593 27.987 49.8318 27.7481 49.977 27.5723C50.1221 27.397 50.3392 27.3127 50.6221 27.3127C50.9124 27.3127 51.1227 27.397 51.2678 27.5723C51.4124 27.7481 51.4855 27.994 51.4855 28.2961C51.4855 28.5986 51.413 28.837 51.2678 29.0128Z" fill="white"/>
<path d="M53.2331 27.4107C53.3563 27.3546 53.4795 27.3263 53.6246 27.3263C53.8715 27.3263 54.038 27.3753 54.1252 27.4814C54.2192 27.5864 54.263 27.741 54.263 27.9516V29.5396H54.6623V27.8395C54.6623 27.5445 54.5747 27.3263 54.4222 27.193C54.2703 27.0596 54.0454 26.9894 53.7697 26.9894C53.6466 26.988 53.524 27.007 53.4075 27.0455C53.2838 27.0879 53.1752 27.1511 53.0734 27.2354C52.9795 27.3268 52.9069 27.439 52.8558 27.5794H52.8343V27.0526H52.4496V29.5396H52.8563V28.0152C52.8543 27.8866 52.8893 27.76 52.9575 27.6496C53.0216 27.5443 53.118 27.4608 53.2331 27.4107Z" fill="white"/>
</svg>
