<svg width="47" height="40" viewBox="0 0 47 40" fill="none" xmlns="http://www.w3.org/2000/svg">
<path d="M9.30128 13.4447C9.30128 14.2351 9.69304 14.7779 10.8461 14.778C11.2215 14.778 11.5585 14.7303 11.885 14.5989L11.9559 16.2636C11.6673 16.3795 11.1397 16.4795 10.547 16.4795C8.442 16.4795 7.2402 15.2943 7.2402 13.4977V9.95682H6V8.32349H7.34863V5.51023H9.30169V8.32349H11.8306V9.93599H9.30128V13.4447Z" fill="white"/>
<path d="M13.1577 8.31819H15.2247V16.3902H13.1577V8.31819Z" fill="white"/>
<path d="M18.6023 9.49318C19.0916 8.75038 19.9564 8.23939 21.2126 8.23939L21.213 8.23978C23.0619 8.23978 24.1444 9.45682 24.1393 11.322V16.3951H22.0558V11.7852C22.0558 10.647 21.5121 9.97273 20.4622 9.97273C19.3418 9.97273 18.6132 10.7106 18.6132 11.8167V16.3955H16.5463V8.32349H18.5318L18.6023 9.49318Z" fill="white"/>
<path d="M33.0864 8.31819L29.9859 11.664L33.407 16.3902H31.0519L28.6592 13.0814L27.473 14.3511V16.3902H25.4061V5.50493H27.473V11.8117L30.6115 8.31819H33.0864Z" fill="white"/>
<path d="M13.1577 5.50493H15.2247V7.2803H13.1577V5.50493Z" fill="white"/>
<path d="M35.0599 3.3121C34.7463 3.4379 34.4101 3.50265 34.0705 3.50265H34.0655V5.51023C36.6378 5.51023 38.7212 3.49243 38.7212 1H36.6543C36.6546 1.32853 36.588 1.65391 36.4584 1.95752C36.3287 2.26114 36.1384 2.53705 35.8985 2.76948C35.6585 3.00191 35.3736 3.1863 35.0599 3.3121Z" fill="white"/>
<path d="M40.0106 5.69548C40.3243 5.56967 40.6604 5.50492 41 5.50492V3.49204C38.4272 3.49204 36.3442 5.50985 36.3442 8.00227C36.3442 10.4943 38.4272 12.5121 41 12.5121V10.5102C39.575 10.5102 38.4163 9.38788 38.4163 8.00758C38.4159 7.67904 38.4825 7.35367 38.6121 7.05005C38.7418 6.74643 38.9321 6.47052 39.172 6.23809C39.412 6.00566 39.697 5.82128 40.0106 5.69548Z" fill="white"/>
<path fill-rule="evenodd" clip-rule="evenodd" d="M16.5517 22.1542H16.8563L17.1609 21.3852H18.2433L18.5369 22.1542H18.8908L17.9004 19.6409H17.5469L16.5517 22.1542ZM18.14 21.1322H17.2423L17.6831 19.9886H17.6937L18.14 21.1322Z" fill="white"/>
<path d="M20.8486 21.8011L20.0543 19.6409H19.7062L20.6528 22.1542H21.0173L21.9635 19.6409H21.6589L20.8646 21.8011H20.8486Z" fill="white"/>
<path d="M22.3498 19.7095C22.3115 19.7413 22.2954 19.7833 22.2954 19.8307C22.2945 19.8543 22.2985 19.8779 22.3079 19.8997C22.3124 19.9103 22.3181 19.9203 22.3248 19.9297C22.3319 19.9397 22.3402 19.9489 22.3495 19.9572C22.3871 19.989 22.4357 20.0059 22.4857 20.0045C22.5355 20.0058 22.584 19.9889 22.6215 19.9572C22.6595 19.9201 22.6763 19.8833 22.6763 19.8307C22.6772 19.8078 22.6727 19.785 22.6632 19.764C22.6537 19.743 22.6395 19.7244 22.6215 19.7095C22.5836 19.678 22.5401 19.6621 22.4857 19.6621C22.4357 19.6599 22.3869 19.677 22.3498 19.7095Z" fill="white"/>
<path d="M22.638 22.1542V20.289H22.3334V22.1542H22.638Z" fill="white"/>
<path d="M23.2146 20.4841C23.1547 20.5629 23.1218 20.6686 23.1218 20.7898C23.1218 20.9212 23.1492 21.0163 23.2033 21.0795C23.2607 21.1503 23.3383 21.2034 23.4264 21.2322C23.5188 21.264 23.628 21.3008 23.7419 21.3322C23.8453 21.3583 23.9326 21.3848 24.003 21.4114C24.062 21.4316 24.1159 21.4639 24.1608 21.5061C24.1988 21.5432 24.2152 21.5958 24.2152 21.6644C24.2152 21.7697 24.1769 21.8485 24.1064 21.8962C24.0301 21.9436 23.9216 21.9701 23.7638 21.9701C23.6495 21.9701 23.5356 21.9542 23.4104 21.917C23.2905 21.8856 23.1872 21.8326 23.1113 21.7644H23.1003L23.1218 22.0542C23.208 22.1032 23.3017 22.1387 23.3994 22.1595C23.5133 22.186 23.6331 22.2015 23.7638 22.2015C23.9921 22.2015 24.1718 22.1489 24.3025 22.0489C24.4329 21.9485 24.4983 21.8011 24.4983 21.6114C24.4983 21.4848 24.4708 21.3902 24.4164 21.3273C24.362 21.2636 24.2861 21.211 24.1882 21.1795C24.0903 21.1477 23.976 21.111 23.8453 21.0742C23.8283 21.0694 23.8117 21.0647 23.7956 21.0601C23.7235 21.0398 23.6595 21.0216 23.6061 21C23.5407 20.9739 23.4918 20.9424 23.4593 20.9053C23.4264 20.8633 23.4104 20.8106 23.4104 20.7473C23.4104 20.6367 23.4483 20.5629 23.5247 20.5261C23.5951 20.4894 23.6985 20.4682 23.8288 20.4682C23.8944 20.4687 23.9598 20.474 24.0246 20.4841C24.0912 20.4936 24.1568 20.5095 24.2203 20.5314C24.2753 20.5446 24.3271 20.5679 24.373 20.6H24.3839L24.3675 20.3311C24.3186 20.3102 24.2477 20.289 24.1553 20.2678C24.0629 20.247 23.9596 20.2364 23.8398 20.2364C23.7135 20.2341 23.588 20.2556 23.4702 20.2996C23.3614 20.3417 23.2796 20.4049 23.2146 20.4841Z" fill="white"/>
<path fill-rule="evenodd" clip-rule="evenodd" d="M24.9332 20.4102L24.9003 20.7L24.9007 20.7053C24.9876 20.6314 25.0909 20.5735 25.1998 20.5367C25.3086 20.4996 25.4225 20.4788 25.5372 20.4788C25.7165 20.4788 25.8359 20.5155 25.9013 20.5735C25.9667 20.6314 25.9991 20.7314 25.9991 20.8686V20.953C25.9612 20.9898 25.8903 21.0212 25.7979 21.0424C25.7001 21.0633 25.5748 21.0898 25.4116 21.1163C25.2812 21.1428 25.1669 21.1689 25.0749 21.211C24.977 21.2481 24.9062 21.3061 24.8518 21.3795C24.8028 21.4534 24.7754 21.5481 24.7754 21.6693C24.7754 21.7905 24.8024 21.8909 24.8572 21.9697C24.9097 22.0479 24.9856 22.1086 25.0749 22.1436C25.1614 22.1807 25.2597 22.2015 25.3685 22.2015C25.5259 22.2015 25.6566 22.1648 25.76 22.1015C25.8684 22.0383 25.9447 21.933 25.9937 21.7958H26.0101V22.1542H26.2982V20.8527C26.2982 20.6367 26.2387 20.4784 26.119 20.3837C25.9937 20.289 25.8144 20.2417 25.5642 20.2417C25.4428 20.2404 25.3219 20.2564 25.2052 20.289C25.0964 20.3208 25.0036 20.3629 24.9332 20.4102ZM25.9991 21.1424V21.5273C25.9991 21.5958 25.9776 21.6644 25.9338 21.7326C25.8894 21.8056 25.8256 21.8658 25.749 21.9068C25.6676 21.9538 25.5693 21.975 25.4554 21.975C25.3356 21.975 25.2432 21.9489 25.1778 21.8962C25.1074 21.8432 25.0745 21.7591 25.0745 21.6485C25.0745 21.5273 25.1129 21.4375 25.1833 21.3902C25.2542 21.3428 25.352 21.3061 25.4663 21.2898C25.6022 21.2689 25.7165 21.2428 25.8089 21.2216C25.8958 21.2004 25.9612 21.1742 25.9991 21.1424Z" fill="white"/>
<path d="M27.5764 19.8992C27.5005 19.9992 27.4625 20.1311 27.4625 20.2841C27.4603 20.3963 27.4824 20.5072 27.5275 20.6106C27.5652 20.6916 27.6256 20.7609 27.7017 20.8106C27.7841 20.8611 27.8716 20.9035 27.9628 20.9371C28.0638 20.9749 28.1673 21.0066 28.2724 21.0318C28.3906 21.0624 28.5069 21.0993 28.6208 21.1424C28.7132 21.1795 28.7841 21.2269 28.833 21.2902C28.882 21.3481 28.9035 21.4322 28.9035 21.5326C28.9035 21.8117 28.6968 21.9538 28.2943 21.9538C28.1366 21.9538 27.9847 21.9277 27.832 21.875C27.6798 21.8277 27.5494 21.7538 27.4351 21.664H27.4241L27.4406 21.9909C27.533 22.0542 27.6578 22.1068 27.8105 22.1489C27.9628 22.1909 28.1092 22.2121 28.2619 22.2121C28.5609 22.2121 28.7951 22.1489 28.9634 22.0223C29.1321 21.8958 29.2135 21.7064 29.2135 21.464C29.2135 21.3322 29.1916 21.2269 29.1485 21.1424C29.0996 21.0583 29.0397 20.9951 28.9634 20.9424C28.8874 20.8898 28.7951 20.8473 28.6972 20.8159C28.5993 20.7841 28.4901 20.7526 28.3762 20.7212C28.2509 20.6841 28.1421 20.6474 28.0497 20.6155C27.9573 20.5841 27.8864 20.5367 27.8375 20.4788C27.7886 20.4205 27.7612 20.3364 27.7612 20.2311C27.7612 20.0939 27.8105 19.9992 27.9138 19.9413C28.0172 19.8833 28.1475 19.8568 28.3053 19.8568C28.3988 19.857 28.4919 19.8677 28.5829 19.8886C28.6724 19.9112 28.7597 19.9411 28.844 19.978C28.9135 20.0117 28.9791 20.0523 29.0397 20.0992H29.0507L29.0288 19.778C28.9743 19.736 28.8874 19.6989 28.7731 19.6568C28.6588 19.6201 28.5065 19.5989 28.3163 19.5989C28.1694 19.5959 28.0233 19.621 27.8864 19.6727C27.7623 19.7171 27.6545 19.7959 27.5764 19.8992Z" fill="white"/>
<path fill-rule="evenodd" clip-rule="evenodd" d="M30.9975 20.3682C30.8507 20.2837 30.6874 20.2417 30.4972 20.2417C30.3217 20.2397 30.1489 20.2834 29.9969 20.3682C29.8501 20.4523 29.7357 20.5682 29.6543 20.7159C29.5725 20.8633 29.5291 21.0322 29.5291 21.2216C29.5266 21.3976 29.5697 21.5714 29.6543 21.7273C29.7329 21.8717 29.8515 21.9921 29.9969 22.075C30.1487 22.1603 30.3216 22.2041 30.4972 22.2015C30.6728 22.2048 30.8459 22.161 30.9975 22.075C31.1392 21.9909 31.2531 21.875 31.3349 21.7273C31.4164 21.5799 31.4602 21.411 31.4602 21.2216C31.4602 21.0318 31.4164 20.8636 31.3349 20.7159C31.2531 20.5682 31.1447 20.4523 30.9975 20.3682ZM30.9814 21.7591C30.8726 21.8909 30.7093 21.9538 30.4972 21.9538C30.285 21.9538 30.1217 21.8909 30.0133 21.7591C29.9045 21.6273 29.8501 21.4481 29.8501 21.2216C29.8501 20.9898 29.9045 20.8106 30.0133 20.6788C30.1217 20.5473 30.285 20.4841 30.4972 20.4841C30.7148 20.4841 30.8726 20.5473 30.9814 20.6788C31.0899 20.8106 31.1447 20.9951 31.1447 21.2216C31.1447 21.4485 31.0903 21.6273 30.9814 21.7591Z" fill="white"/>
<path d="M32.1778 22.1542V19.5405H31.8732V22.1542H32.1778Z" fill="white"/>
<path d="M33.7714 21.8803C33.6845 21.9223 33.5867 21.9432 33.4833 21.9432C33.3036 21.9432 33.1784 21.9117 33.1079 21.833C33.0374 21.7591 33.0046 21.6432 33.0046 21.4852V20.2837H32.7V21.5485C32.7 21.7693 32.7599 21.933 32.8797 22.0383C32.9991 22.1436 33.1678 22.1962 33.3745 22.1962C33.4669 22.1962 33.5538 22.1807 33.6466 22.1542C33.7374 22.1234 33.8206 22.075 33.8912 22.0117C33.9672 21.9432 34.0216 21.8591 34.06 21.7538H34.076V22.1492H34.3645V20.2841H34.06V21.4322C34.0632 21.5273 34.0366 21.621 33.9836 21.7011C33.9307 21.7781 33.8574 21.8399 33.7714 21.8803Z" fill="white"/>
<path d="M35.398 21.8962C35.3491 21.8538 35.3217 21.775 35.3217 21.6538L35.3213 21.6534H35.3326V20.5417H35.8873L35.9253 20.2992H35.3326V19.8617L35.0281 19.9042V20.3045L34.7122 20.3466L34.6691 20.5417H35.0226V21.7064C35.0226 21.8856 35.0715 22.0117 35.1694 22.0909C35.2673 22.1701 35.4035 22.2068 35.5718 22.2068C35.6413 22.208 35.7107 22.201 35.7785 22.186C35.8307 22.1748 35.8817 22.1588 35.9308 22.1383L35.9582 21.8909H35.9472C35.9171 21.9073 35.8808 21.9173 35.84 21.9286C35.8288 21.9317 35.8173 21.9348 35.8055 21.9383C35.7515 21.9538 35.6807 21.9591 35.6043 21.9591C35.5174 21.9591 35.4466 21.9379 35.398 21.8962Z" fill="white"/>
<path d="M36.2898 19.7095C36.2518 19.7413 36.2354 19.7833 36.2354 19.8307C36.2344 19.8543 36.2388 19.8779 36.2482 19.8997C36.2576 19.9216 36.2718 19.9412 36.2898 19.9572C36.3273 19.9889 36.3758 20.0058 36.4256 20.0045C36.4754 20.0058 36.5239 19.9889 36.5615 19.9572C36.5998 19.9201 36.6163 19.8833 36.6163 19.8307C36.6172 19.8078 36.6128 19.7851 36.6033 19.7641C36.5939 19.7431 36.5797 19.7244 36.5619 19.7095C36.5235 19.678 36.4804 19.6621 36.4256 19.6621C36.3757 19.6599 36.3268 19.677 36.2898 19.7095Z" fill="white"/>
<path d="M36.5779 22.1542V20.289H36.2733V22.1542H36.5779Z" fill="white"/>
<path fill-rule="evenodd" clip-rule="evenodd" d="M38.4652 20.3682C38.3184 20.2837 38.1552 20.2417 37.9649 20.2417C37.7893 20.2384 37.6161 20.2822 37.4646 20.3682C37.3178 20.4523 37.2035 20.5682 37.1221 20.7159C37.0402 20.8633 36.9968 21.0322 36.9968 21.2216C36.9944 21.3976 37.0374 21.5714 37.1221 21.7273C37.2006 21.8717 37.3192 21.9921 37.4646 22.075C37.6164 22.1603 37.7893 22.2041 37.9649 22.2015C38.1405 22.2048 38.3137 22.161 38.4652 22.075C38.6069 21.9909 38.7208 21.875 38.8027 21.7273C38.8841 21.5799 38.9279 21.411 38.9279 21.2216C38.9279 21.0318 38.8841 20.8636 38.8027 20.7159C38.7212 20.5682 38.6124 20.4523 38.4652 20.3682ZM38.4491 21.7591C38.3403 21.8909 38.1771 21.9538 37.9649 21.9538C37.7472 21.9538 37.5844 21.8909 37.481 21.7591C37.3722 21.6273 37.3178 21.4481 37.3178 21.2216C37.3178 20.9898 37.3722 20.8106 37.481 20.6788C37.5899 20.5473 37.7527 20.4841 37.9649 20.4841C38.1826 20.4841 38.3403 20.5473 38.4491 20.6788C38.5576 20.8106 38.6124 20.9951 38.6124 21.2216C38.6124 21.4485 38.558 21.6273 38.4491 21.7591Z" fill="white"/>
<path d="M39.923 20.5576C40.0154 20.5155 40.1078 20.4943 40.2166 20.4943C40.4018 20.4943 40.5267 20.5311 40.5921 20.6106C40.6625 20.6894 40.6954 20.8053 40.6954 20.9633V22.1542H40.9949V20.8792C40.9949 20.658 40.9291 20.4943 40.8148 20.3943C40.7009 20.2943 40.5322 20.2417 40.3255 20.2417C40.2331 20.2406 40.1412 20.2548 40.0538 20.2837C39.961 20.3155 39.8796 20.3629 39.8033 20.4261C39.7328 20.4947 39.6784 20.5788 39.64 20.6841H39.624V20.289H39.3355V22.1542H39.6404V21.011C39.6389 20.9145 39.6652 20.8196 39.7163 20.7367C39.7644 20.6578 39.8367 20.5952 39.923 20.5576Z" fill="white"/>
<g clip-path="url(#clip0_5781_24357)">
<path d="M18.1268 36.0867C18.368 35.4368 18.5 34.7337 18.5 33.9998C18.5 33.2659 18.368 32.5629 18.1268 31.9129L12.5 31.3911L6.8732 31.9129C6.63202 32.5629 6.5 33.2659 6.5 33.9998C6.5 34.7337 6.63202 35.4368 6.8732 36.0867L12.5 36.6085L18.1268 36.0867Z" fill="#F0F0F0"/>
<path d="M12.5018 40C15.0816 40 17.2809 38.3717 18.1286 36.0869H6.875C7.72278 38.3717 9.92202 40 12.5018 40Z" fill="#D80027"/>
<path d="M12.5018 28C9.92202 28 7.72278 29.6283 6.875 31.9131H18.1286C17.2809 29.6283 15.0816 28 12.5018 28Z" fill="#D80027"/>
</g>
<g clip-path="url(#clip1_5781_24357)">
<path d="M17.875 36.0871C18.7228 38.3719 20.922 40.0002 23.5018 40.0002C26.0816 40.0002 28.2809 38.3719 29.1286 36.0871L23.5018 35.5654L17.875 36.0871Z" fill="#FFDA44"/>
<path d="M23.5018 28C20.922 28 18.7228 29.6283 17.875 31.9131L23.5018 32.4348L29.1286 31.913C28.2809 29.6282 26.0816 28 23.5018 28Z" fill="#454545"/>
<path d="M17.8732 31.9131C17.632 32.5631 17.5 33.2661 17.5 34C17.5 34.734 17.632 35.437 17.8732 36.087H29.1268C29.368 35.437 29.5 34.734 29.5 34C29.5 33.2661 29.368 32.5631 29.1268 31.9131H17.8732Z" fill="#D80027"/>
</g>
<g clip-path="url(#clip2_5781_24357)">
<path d="M34.5 40C37.8137 40 40.5 37.3137 40.5 34C40.5 30.6863 37.8137 28 34.5 28C31.1863 28 28.5 30.6863 28.5 34C28.5 37.3137 31.1863 40 34.5 40Z" fill="#D80027"/>
<path d="M37.628 32.9571H35.5411V30.8701H33.4541V32.9571H31.3672V35.044H33.4541V37.131H35.5411V35.044H37.628V32.9571Z" fill="#F0F0F0"/>
</g>
<defs>
<clipPath id="clip0_5781_24357">
<rect width="12" height="12" fill="white" transform="translate(6.5 28)"/>
</clipPath>
<clipPath id="clip1_5781_24357">
<rect width="12" height="12" fill="white" transform="translate(17.5 28)"/>
</clipPath>
<clipPath id="clip2_5781_24357">
<rect width="12" height="12" fill="white" transform="translate(28.5 28)"/>
</clipPath>
</defs>
</svg>
