<svg width="171" height="86" viewBox="0 0 171 86" fill="none" xmlns="http://www.w3.org/2000/svg">
<path d="M3.30415 31.8415C2.89487 31.1213 1.97919 30.8692 1.25893 31.2785C0.538666 31.6877 0.286565 32.6034 0.695847 33.3237L3.30415 31.8415ZM63.9638 47.257L65.0164 48.3257L63.9638 47.257ZM100.991 82.6262L100.637 81.1686L100.991 82.6262ZM170.477 56.5493C170.622 55.7336 170.078 54.9552 169.262 54.8106L155.969 52.4542C155.153 52.3096 154.375 52.8537 154.23 53.6694C154.086 54.4851 154.63 55.2636 155.445 55.4082L167.261 57.5027L165.167 69.3185C165.022 70.1342 165.566 70.9127 166.382 71.0573C167.198 71.2019 167.976 70.6578 168.121 69.8421L170.477 56.5493ZM0.695847 33.3237C5.37795 41.5633 14.1926 52.2956 25.4863 57.5083C31.165 60.1293 37.5023 61.3672 44.2387 60.1444C50.9735 58.9218 57.9715 55.2644 65.0164 48.3257L62.9112 46.1883C56.2032 52.7952 49.7285 56.0988 43.7029 57.1926C37.679 58.2861 31.9683 57.1959 26.7435 54.7844C16.2301 49.9319 7.81587 39.7814 3.30415 31.8415L0.695847 33.3237ZM65.0164 48.3257C73.8027 39.6718 77.3449 31.381 77.3004 24.0781C77.2559 16.7731 73.6232 10.7459 68.6499 6.63937C63.6974 2.54996 57.3085 0.27138 51.5201 0.518157C45.6713 0.767513 40.3319 3.62956 38.0002 9.85687L40.8097 10.9088C42.6342 6.03627 46.7405 3.72465 51.6479 3.51543C56.6158 3.30364 62.2938 5.28157 66.7398 8.95267C71.165 12.6067 74.2624 17.8439 74.3005 24.0963C74.3386 30.3508 71.3161 37.9102 62.9112 46.1883L65.0164 48.3257ZM38.0002 9.85687C35.7832 15.7781 35.7352 24.0918 37.5154 32.9203C39.3036 41.7885 42.9716 51.3571 48.3881 59.8678C59.2182 76.8846 77.2629 89.9333 101.345 84.0838L100.637 81.1686C78.2462 86.6072 61.3418 74.634 50.919 58.2571C45.7091 50.0709 42.1747 40.8497 40.4562 32.3273C38.7297 23.7652 38.8707 16.0875 40.8097 10.9088L38.0002 9.85687ZM101.345 84.0838C138.651 75.0224 162.488 62.6682 169.859 57.517L168.141 55.058C161.154 59.9407 137.687 72.1692 100.637 81.1686L101.345 84.0838Z" fill="white" fill-opacity="0.2"/>
</svg>
