<svg width="36" height="36" viewBox="0 0 36 36" fill="none" xmlns="http://www.w3.org/2000/svg">
<path d="M8.87508 7.5H16.363C17.4082 7.5 18.0583 8.45339 17.8145 9.62695L14.3283 26.3763C14.0823 27.5457 13.0358 28.5 11.9898 28.5H4.50266C3.45888 28.5 2.80732 27.5457 3.05115 26.3763L6.53875 9.62695C6.78259 8.45339 7.82856 7.5 8.87508 7.5Z" fill="#E21836"/>
<path d="M15.7379 7.5H24.3488C25.3938 7.5 24.9226 8.45339 24.6767 9.62695L21.1911 26.3763C20.9466 27.5457 21.0229 28.5 19.9756 28.5H11.3647C10.3175 28.5 9.6694 27.5457 9.91542 26.3763L13.4008 9.62695C13.6483 8.45339 14.6921 7.5 15.7379 7.5Z" fill="#00447C"/>
<path d="M24.011 7.5H31.4988C32.5455 7.5 33.1957 8.45339 32.9498 9.62695L29.4642 26.3763C29.2182 27.5457 28.1709 28.5 27.1244 28.5H19.64C18.5928 28.5 17.9432 27.5457 18.1885 26.3763L21.6746 9.62695C21.9185 8.45339 22.9637 7.5 24.011 7.5Z" fill="#007B84"/>
<path d="M10.8311 12.8675C10.0611 12.8762 9.83369 12.8675 9.76105 12.8483C9.73313 12.9967 9.21352 15.679 9.21206 15.6813C9.10018 16.2239 9.01878 16.6108 8.74228 16.8606C8.58532 17.0058 8.40208 17.0758 8.18963 17.0758C7.84815 17.0758 7.64922 16.8861 7.61582 16.5262L7.60943 16.4027C7.60943 16.4027 7.71346 15.6758 7.71346 15.6717C7.71346 15.6717 8.2588 13.2273 8.35645 12.9042C8.36156 12.8858 8.36302 12.8762 8.3643 12.8675C7.30281 12.8779 7.11464 12.8675 7.10169 12.8483C7.09457 12.8746 7.06829 13.0262 7.06829 13.0262L6.51144 15.7812L6.46363 16.0148L6.37109 16.7791C6.37109 17.0058 6.41088 17.1908 6.49009 17.3473C6.74378 17.8434 7.46744 17.9177 7.87681 17.9177C8.40427 17.9177 8.89905 17.7923 9.23341 17.5633C9.8138 17.1796 9.96565 16.5797 10.1011 16.0467L10.1639 15.7732C10.1639 15.7732 10.7256 13.2345 10.8211 12.9042C10.8247 12.8858 10.8262 12.8762 10.8311 12.8675ZM12.7425 14.9155C12.6071 14.9155 12.3596 14.9522 12.1373 15.0742C12.0566 15.1205 11.9803 15.174 11.8998 15.2273L11.9725 14.9338L11.9327 14.8844C11.4613 14.9912 11.3558 15.0055 10.9203 15.0742L10.8838 15.1013C10.8333 15.5705 10.7884 15.9232 10.6009 16.8453C10.5296 17.1852 10.4555 17.5283 10.3812 17.8673L10.4012 17.9104C10.8475 17.8841 10.9829 17.8841 11.3707 17.8912L11.4021 17.853C11.4514 17.5706 11.4578 17.5044 11.5669 16.9323C11.6182 16.6611 11.7252 16.0651 11.7779 15.8529C11.8748 15.8027 11.9705 15.7533 12.0617 15.7533C12.2791 15.7533 12.2526 15.9655 12.2442 16.05C12.2349 16.192 12.1557 16.6556 12.0745 17.0536L12.0203 17.3106C11.9825 17.5003 11.9411 17.6847 11.9033 17.8729L11.9197 17.9104C12.3596 17.8841 12.4937 17.8841 12.8693 17.8912L12.9135 17.853C12.9814 17.4119 13.0013 17.2938 13.1218 16.6515L13.1823 16.3564C13.3001 15.7788 13.3592 15.4859 13.2701 15.2473C13.176 14.98 12.95 14.9155 12.7425 14.9155ZM14.8777 15.5202C14.6439 15.5704 14.4948 15.6039 14.3466 15.6256C14.1997 15.6519 14.0564 15.6758 13.8305 15.711L13.8126 15.7291L13.7962 15.7436C13.7726 15.9319 13.7562 16.0947 13.725 16.2861C13.6985 16.484 13.6578 16.7089 13.5916 17.032C13.5403 17.2793 13.5138 17.3655 13.4846 17.4525C13.4562 17.5395 13.4248 17.6241 13.3671 17.8673L13.3806 17.8898L13.3919 17.9104C13.6031 17.8992 13.7412 17.8912 13.8832 17.8898C14.025 17.8841 14.172 17.8898 14.3994 17.8912L14.4193 17.873L14.4406 17.853C14.4735 17.6337 14.4784 17.5746 14.4985 17.4676C14.5184 17.3528 14.5527 17.1939 14.6368 16.7695C14.6766 16.5702 14.721 16.3715 14.7622 16.168C14.8051 15.9654 14.85 15.7659 14.8927 15.5666L14.8863 15.5425L14.8777 15.5202ZM14.8827 14.7048C14.6703 14.5645 14.2974 14.609 14.0464 14.8029C13.7962 14.9928 13.7678 15.2624 13.9795 15.4046C14.1883 15.541 14.5626 15.5003 14.8113 15.3049C15.061 15.1109 15.0922 14.8437 14.8827 14.7048ZM16.1675 17.9544C16.5973 17.9544 17.0379 17.8218 17.3695 17.4285C17.6247 17.1094 17.7417 16.6348 17.7822 16.4393C17.9141 15.7915 17.8114 15.489 17.6823 15.3048C17.4863 15.024 17.1399 14.9339 16.7806 14.9339C16.5645 14.9339 16.0498 14.9578 15.6477 15.3726C15.359 15.6718 15.2256 16.0778 15.1451 16.4671C15.0639 16.8637 14.9704 17.5778 15.5572 17.8435C15.7382 17.9305 15.9992 17.9544 16.1675 17.9544ZM16.1339 16.4967C16.233 16.0061 16.35 15.5944 16.6486 15.5944C16.8826 15.5944 16.8995 15.9008 16.7955 16.393C16.7769 16.5022 16.6915 16.9085 16.576 17.0815C16.4953 17.2091 16.3998 17.2865 16.2943 17.2865C16.263 17.2865 16.0762 17.2865 16.0733 16.9763C16.0719 16.8231 16.0998 16.6667 16.1339 16.4967ZM18.8566 17.8913L18.8902 17.8531C18.9378 17.5706 18.9457 17.5043 19.0512 16.9324C19.1039 16.6612 19.2131 16.0652 19.2643 15.853C19.3614 15.8025 19.4554 15.7531 19.5496 15.7531C19.7655 15.7531 19.7392 15.9653 19.7307 16.0499C19.7228 16.192 19.6436 16.6554 19.5609 17.0535L19.5096 17.3104C19.4704 17.5004 19.4277 17.6846 19.3899 17.8729L19.4063 17.9105C19.8476 17.8841 19.9767 17.8841 20.3545 17.8913L20.4001 17.8531C20.4664 17.4117 20.4842 17.2937 20.6084 16.6516L20.6675 16.3562C20.7858 15.7786 20.8456 15.486 20.758 15.2474C20.6611 14.9801 20.4337 14.9155 20.2291 14.9155C20.0935 14.9155 19.8447 14.9521 19.6237 15.0742C19.5447 15.1206 19.4655 15.1739 19.3877 15.2274L19.4554 14.9339L19.4191 14.8843C18.9479 14.9913 18.8402 15.0056 18.4053 15.0742L18.3719 15.1014C18.3191 15.5705 18.2762 15.923 18.0888 16.8454C18.0174 17.1852 17.9433 17.5284 17.8692 17.8674L17.8891 17.9105C18.3361 17.8841 18.4695 17.8841 18.8566 17.8913ZM22.099 17.9104C22.1268 17.7588 22.2916 16.8606 22.293 16.8606C22.293 16.8606 22.4334 16.2015 22.442 16.1776C22.442 16.1776 22.4861 16.109 22.5303 16.0818H22.5953C23.2083 16.0818 23.9006 16.0818 24.4432 15.6352C24.8124 15.3288 25.0648 14.8764 25.1774 14.3266C25.2066 14.1918 25.2282 14.0315 25.2282 13.8711C25.2282 13.6606 25.1904 13.4522 25.0812 13.2895C24.8046 12.8563 24.2536 12.8483 23.6175 12.845C23.6155 12.845 23.304 12.8483 23.304 12.8483C22.4898 12.8595 22.1633 12.8563 22.0291 12.8379C22.0178 12.9043 21.9964 13.0223 21.9964 13.0223C21.9964 13.0223 21.7048 14.5349 21.7048 14.5374C21.7048 14.5374 21.0069 17.7533 20.974 17.9049C21.6849 17.8953 21.9764 17.8953 22.099 17.9104ZM22.6394 15.2234C22.6394 15.2234 22.9495 13.7139 22.9481 13.7196L22.9581 13.6422L22.9625 13.5832L23.0864 13.5975C23.0864 13.5975 23.7259 13.6589 23.7409 13.6606C23.9933 13.7698 24.0973 14.0515 24.0247 14.4191C23.9584 14.7551 23.7637 15.0376 23.5135 15.174C23.3074 15.2896 23.055 15.2992 22.7949 15.2992H22.6267L22.6394 15.2234ZM24.5701 16.5247C24.4882 16.9156 24.394 17.6296 24.9778 17.8841C25.164 17.9727 25.3308 17.9991 25.5004 17.9895C25.6794 17.9787 25.8453 17.8782 25.999 17.7336C25.9851 17.793 25.9712 17.8525 25.9574 17.9121L25.9838 17.9503C26.4038 17.9305 26.5341 17.9305 26.9891 17.9344L27.0303 17.8992C27.0968 17.4621 27.1594 17.0377 27.332 16.2016C27.4162 15.8011 27.5001 15.4044 27.5865 15.0056L27.573 14.9616C27.1032 15.0591 26.9776 15.0799 26.5257 15.1516L26.4914 15.1828C26.4868 15.2235 26.4821 15.2625 26.4777 15.3015C26.4074 15.1745 26.3056 15.066 26.1485 14.9984C25.9475 14.91 25.4755 15.0239 25.0698 15.4373C24.7847 15.7324 24.6479 16.1368 24.5701 16.5247ZM25.5568 16.5486C25.6573 16.0668 25.7729 15.6591 26.0722 15.6591C26.2614 15.6591 26.3611 15.8546 26.3408 16.1879C26.3248 16.271 26.3074 16.3586 26.2868 16.4577C26.2569 16.6009 26.2244 16.7428 26.1928 16.885C26.1607 16.9822 26.1233 17.0739 26.0822 17.135C26.0052 17.2571 25.8219 17.3329 25.7165 17.3329C25.6865 17.3329 25.5018 17.3329 25.4954 17.0281C25.494 16.8764 25.5219 16.7201 25.5568 16.5486ZM30.7091 14.9577L30.6728 14.9114C30.208 15.0168 30.1238 15.0335 29.6967 15.0981L29.6654 15.1332C29.6639 15.1389 29.6626 15.1477 29.6604 15.1556L29.659 15.1477C29.341 15.9685 29.3503 15.7914 29.0915 16.4377C29.0901 16.4083 29.0901 16.3899 29.0886 16.3586L29.0238 14.9577L28.9831 14.9114C28.4962 15.0168 28.4847 15.0335 28.035 15.0981L27.9999 15.1332C27.995 15.1499 27.995 15.1683 27.9921 15.1883L27.995 15.1955C28.0512 15.5169 28.0377 15.4453 28.0941 15.9526C28.1204 16.2016 28.1554 16.452 28.1817 16.6979C28.2261 17.1094 28.2509 17.312 28.3051 17.9401C28.0014 18.5009 27.9295 18.7131 27.6371 19.2053L27.6391 19.2102L27.4332 19.5746C27.4097 19.613 27.3883 19.6393 27.3584 19.6506C27.3256 19.6687 27.2829 19.672 27.2235 19.672H27.1095L26.9399 20.3031L27.5216 20.3143C27.8631 20.3127 28.0777 20.134 28.1932 19.8938L28.559 19.1924H28.5531L28.5916 19.143C28.8377 18.5503 30.7091 14.9577 30.7091 14.9577ZM24.5701 23.2463H24.3233L25.2366 19.8659H25.5396L25.6358 19.5177L25.6451 19.9049C25.6338 20.1443 25.802 20.3565 26.2441 20.3214H26.7553L26.9312 19.6705H26.7389C26.6283 19.6705 26.577 19.6392 26.5834 19.5722L26.5741 19.1783H25.6274V19.1803C25.3213 19.1874 24.4073 19.2132 24.2222 19.2683C23.9983 19.3329 23.7623 19.5228 23.7623 19.5228L23.855 19.1742H22.9695L22.7849 19.8659L21.8594 23.298H21.6798L21.5037 23.9442H23.2675L23.2084 24.1597H24.0775L24.1352 23.9442H24.379L24.5701 23.2463ZM23.8464 20.5528C23.7046 20.5967 23.4407 20.7299 23.4407 20.7299L23.6754 19.8659H24.379L24.2093 20.4954C24.2093 20.4954 23.9919 20.5097 23.8464 20.5528ZM23.8599 21.787C23.8599 21.787 23.6389 21.8181 23.4935 21.8548C23.3502 21.9034 23.0815 22.0566 23.0815 22.0566L23.3239 21.1575H24.0311L23.8599 21.787ZM23.4657 23.2543H22.7599L22.9645 22.4955H23.6681L23.4657 23.2543ZM25.1654 21.1575H26.1827L26.0365 21.6873H25.0057L24.8509 22.2666H25.7529L25.0699 23.3427C25.0221 23.4217 24.9792 23.4497 24.9316 23.472C24.8837 23.4992 24.821 23.531 24.7483 23.531H24.4981L24.3262 24.1654H24.9807C25.3209 24.1654 25.5218 23.9922 25.6702 23.7649L26.1385 23.0476L26.2391 23.7759C26.2604 23.9123 26.348 23.9922 26.4073 24.0232C26.4729 24.06 26.5406 24.1231 26.6362 24.1325C26.7388 24.1374 26.8129 24.1413 26.8622 24.1413H27.1838L27.3768 23.4313H27.25C27.1772 23.4313 27.0518 23.4177 27.0304 23.3921C27.0091 23.3611 27.0091 23.3133 26.9976 23.2406L26.8956 22.5106H26.4778L26.661 22.2666H27.6899L27.8481 21.6873H26.8956L27.0439 21.1575H27.9936L28.1697 20.5042H25.3386L25.1654 21.1575ZM16.5731 23.4018L16.8105 22.5178H17.7864L17.9647 21.8604H16.9879L17.137 21.3163H18.0916L18.2684 20.6797H15.8801L15.7069 21.3163H16.2495L16.1048 21.8604H15.5607L15.3804 22.5291H15.9228L15.6063 23.6986C15.5636 23.8534 15.6264 23.9124 15.6662 23.9843C15.7069 24.0543 15.7481 24.1007 15.8408 24.127C15.9365 24.1509 16.002 24.1652 16.0911 24.1652H17.1912L17.3873 23.4369L16.8996 23.5119C16.8054 23.5119 16.5446 23.4992 16.5731 23.4018ZM16.685 19.1702L16.4377 19.6704C16.3848 19.7796 16.3371 19.8474 16.2943 19.8787C16.2565 19.905 16.1816 19.9161 16.0732 19.9161H15.9442L15.7717 20.556H16.2003C16.4063 20.556 16.5646 20.4714 16.6401 20.4291C16.7213 20.3805 16.7427 20.4083 16.8055 20.3405L16.9502 20.2002H18.2884L18.4659 19.5339H17.4864L17.6574 19.1702H16.685ZM18.6606 23.4146C18.6378 23.3779 18.6542 23.3131 18.6891 23.1783L19.0548 21.8236H20.3559C20.5456 21.8205 20.6824 21.8181 20.7715 21.8109C20.8671 21.7997 20.9712 21.7615 21.0845 21.6929C21.2015 21.621 21.2614 21.5452 21.3119 21.4582C21.3683 21.3714 21.4588 21.1815 21.5366 20.8886L21.9963 19.1742L20.6461 19.183C20.6461 19.183 20.2304 19.2516 20.0473 19.3274C19.8626 19.4119 19.5987 19.648 19.5987 19.648L19.7206 19.1781H18.8865L17.7188 23.5119C17.6774 23.6802 17.6497 23.8023 17.6433 23.8756C17.6411 23.9547 17.7323 24.0329 17.7915 24.0919C17.8614 24.1509 17.9647 24.1413 18.0638 24.1509C18.168 24.1597 18.3162 24.1652 18.5208 24.1652H19.1618L19.3585 23.4218L18.7847 23.4824C18.7234 23.4824 18.679 23.4457 18.6606 23.4146ZM19.2908 20.9086H20.6574L20.5706 21.2133C20.5583 21.2205 20.5291 21.1982 20.3901 21.2166H19.2067L19.2908 20.9086ZM19.5646 19.8866H20.9427L20.8436 20.2536C20.8436 20.2536 20.194 20.2465 20.09 20.2679C19.6323 20.3566 19.3649 20.6302 19.3649 20.6302L19.5646 19.8866ZM20.6011 22.2338C20.5898 22.2793 20.5719 22.3071 20.5469 22.3279C20.5192 22.348 20.4743 22.3551 20.4073 22.3551H20.2126L20.2241 21.984H19.4141L19.3812 23.7983C19.38 23.9292 19.3913 24.005 19.4769 24.0656C19.5625 24.1414 19.8262 24.151 20.1812 24.151H20.6888L20.872 23.4719L20.4301 23.4991L20.2832 23.5087C20.2631 23.4991 20.244 23.4903 20.2226 23.4664C20.204 23.4457 20.1726 23.4584 20.1777 23.3275L20.1812 22.8624L20.6446 22.841C20.8948 22.841 21.0018 22.7499 21.093 22.6631C21.1801 22.58 21.2085 22.4844 21.2414 22.3551L21.3191 21.9434H20.6824L20.6011 22.2338Z" fill="#FEFEFE"/>
</svg>
