<svg width="36" height="36" viewBox="0 0 36 36" fill="none" xmlns="http://www.w3.org/2000/svg">
<g clip-path="url(#clip0_5781_24389)">
<path d="M33.333 23.6522L32.9955 21.9647H29.2245L28.6245 23.6402L25.602 23.6462C27.0409 20.1859 28.4829 16.7269 29.928 13.2692C30.174 12.6827 30.6105 12.3842 31.254 12.3872C31.746 12.3917 32.5485 12.3917 33.663 12.3887L36 23.6477L33.333 23.6522ZM30.0735 19.6532H32.5035L31.596 15.4232L30.0735 19.6532ZM10.59 12.3857L13.629 12.3887L8.931 23.6537L5.8545 23.6507C5.08087 20.6752 4.31687 17.6971 3.5625 14.7167C3.4125 14.1227 3.1155 13.7072 2.544 13.5107C1.69984 13.2278 0.851754 12.9568 0 12.6977L0 12.3902H4.8555C5.6955 12.3902 6.186 12.7967 6.3435 13.6307C6.5025 14.4662 6.9015 16.5932 7.5435 20.0117L10.59 12.3857ZM17.805 12.3887L15.402 23.6507L12.51 23.6477L14.91 12.3857L17.805 12.3887ZM23.67 12.1802C24.5355 12.1802 25.626 12.4502 26.253 12.6977L25.746 15.0332C25.179 14.8052 24.246 14.4977 23.4615 14.5082C22.3215 14.5277 21.6165 15.0062 21.6165 15.4652C21.6165 16.2122 22.8405 16.5887 24.1005 17.4047C25.539 18.3347 25.728 19.1702 25.71 20.0777C25.6905 21.9617 24.1005 23.8202 20.7465 23.8202C19.2165 23.7977 18.6645 23.6687 17.4165 23.2262L17.9445 20.7887C19.215 21.3212 19.7535 21.4907 20.8395 21.4907C21.834 21.4907 22.6875 21.0887 22.695 20.3882C22.701 19.8902 22.395 19.6427 21.279 19.0277C20.163 18.4112 18.597 17.5577 18.618 15.8447C18.6435 13.6517 20.721 12.1802 23.6715 12.1802H23.67Z" fill="white"/>
</g>
<defs>
<clipPath id="clip0_5781_24389">
<rect width="36" height="36" fill="white"/>
</clipPath>
</defs>
</svg>
