<svg width="44" height="44" viewBox="0 0 44 44" fill="none" xmlns="http://www.w3.org/2000/svg">
<path d="M3.67533 40.3337L6.15399 31.2257C4.52075 28.4259 3.66267 25.2416 3.66799 22.0003C3.66799 11.8748 11.8758 3.66699 22.0013 3.66699C32.1268 3.66699 40.3347 11.8748 40.3347 22.0003C40.3347 32.1258 32.1268 40.3337 22.0013 40.3337C18.7614 40.3389 15.5785 39.4815 12.7797 37.8495L3.67533 40.3337ZM15.3848 13.3983C15.1481 13.413 14.9167 13.4754 14.7047 13.5817C14.5058 13.6943 14.3242 13.8351 14.1657 13.9997C13.9457 14.2068 13.821 14.3865 13.6872 14.5607C13.0096 15.4425 12.6451 16.5249 12.6513 17.637C12.655 18.5353 12.8897 19.4098 13.2563 20.2275C14.0062 21.8812 15.24 23.632 16.8698 25.2545C17.2622 25.645 17.6453 26.0373 18.0578 26.4022C20.0807 28.1832 22.4913 29.4676 25.0978 30.1532L26.141 30.3127C26.4802 30.331 26.8193 30.3053 27.1603 30.2888C27.6943 30.2613 28.2156 30.1167 28.6875 29.8653C28.9276 29.7417 29.1619 29.6071 29.3897 29.462C29.3897 29.462 29.4685 29.4107 29.6188 29.297C29.8663 29.1137 30.0185 28.9835 30.2238 28.769C30.376 28.6113 30.508 28.4262 30.6088 28.2153C30.7518 27.9165 30.8948 27.3463 30.9535 26.8715C30.9975 26.5085 30.9847 26.3105 30.9792 26.1877C30.9718 25.9915 30.8087 25.788 30.6308 25.7018L29.5638 25.2233C29.5638 25.2233 27.9688 24.5285 26.9953 24.0848C26.8927 24.0401 26.7827 24.0146 26.6708 24.0097C26.5454 23.9968 26.4186 24.0109 26.2991 24.0511C26.1796 24.0912 26.07 24.1565 25.9778 24.2425V24.2388C25.9687 24.2388 25.8458 24.3433 24.5203 25.9493C24.4442 26.0516 24.3395 26.1288 24.2193 26.1713C24.0991 26.2137 23.9691 26.2194 23.8457 26.1877C23.7262 26.1557 23.6092 26.1153 23.4955 26.0667C23.2682 25.9713 23.1893 25.9347 23.0335 25.8668L23.0243 25.8632C21.9755 25.4052 21.0044 24.7867 20.146 24.0298C19.915 23.8282 19.7005 23.6082 19.4805 23.3955C18.7592 22.7048 18.1306 21.9233 17.6105 21.0708L17.5023 20.8967C17.4246 20.7796 17.3618 20.6534 17.3153 20.5208C17.2457 20.2513 17.4272 20.035 17.4272 20.035C17.4272 20.035 17.8727 19.5473 18.0798 19.2833C18.2523 19.0639 18.4133 18.8357 18.562 18.5995C18.7783 18.2512 18.8462 17.8937 18.7325 17.6168C18.2192 16.3628 17.6875 15.1143 17.1412 13.875C17.033 13.6293 16.7122 13.4533 16.4207 13.4185C16.3217 13.4075 16.2227 13.3965 16.1237 13.3892C15.8775 13.3769 15.6307 13.3812 15.3848 13.3983Z" fill="white"/>
</svg>
