<svg width="32" height="32" viewBox="0 0 32 32" fill="none" xmlns="http://www.w3.org/2000/svg">
<path d="M29.8933 7.66667C28.8667 8.13333 27.76 8.44 26.6133 8.58667C27.7867 7.88 28.6933 6.76 29.12 5.41333C28.0133 6.08 26.7867 6.54667 25.4933 6.81333C24.44 5.66667 22.96 5 21.28 5C18.1467 5 15.5867 7.56 15.5867 10.72C15.5867 11.1733 15.64 11.6133 15.7333 12.0267C10.9867 11.7867 6.76 9.50667 3.94667 6.05333C3.45333 6.89333 3.17333 7.88 3.17333 8.92C3.17333 10.9067 4.17333 12.6667 5.72 13.6667C4.77333 13.6667 3.89333 13.4 3.12 13V13.04C3.12 15.8133 5.09333 18.1333 7.70667 18.6533C6.86764 18.8829 5.98679 18.9149 5.13333 18.7467C5.49548 19.8833 6.20472 20.8779 7.16136 21.5906C8.11799 22.3033 9.27393 22.6983 10.4667 22.72C8.44484 24.3206 5.93866 25.1858 3.36 25.1733C2.90667 25.1733 2.45333 25.1467 2 25.0933C4.53333 26.72 7.54667 27.6667 10.7733 27.6667C21.28 27.6667 27.0533 18.9467 27.0533 11.3867C27.0533 11.1333 27.0533 10.8933 27.04 10.64C28.16 9.84 29.12 8.82667 29.8933 7.66667Z" fill="white"/>
</svg>
