<svg width="32" height="32" viewBox="0 0 32 32" fill="none" xmlns="http://www.w3.org/2000/svg">
<path d="M29.2875 8.675C29.1726 8.21416 28.9477 7.78804 28.632 7.43318C28.3163 7.07832 27.9193 6.80529 27.475 6.6375C23.2 4.9875 16.375 5 16 5C15.625 5 8.8 4.9875 4.525 6.6375C4.08068 6.80529 3.68366 7.07832 3.36799 7.43318C3.05231 7.78804 2.82739 8.21416 2.7125 8.675C2.3875 9.9125 2 12.1875 2 15.95C2 19.7125 2.3875 21.9875 2.7125 23.225C2.82739 23.6858 3.05231 24.112 3.36799 24.4668C3.68366 24.8217 4.08068 25.0947 4.525 25.2625C8.625 26.85 15.05 26.9 15.9125 26.9H16.0875C16.95 26.9 23.375 26.85 27.475 25.2625C27.9193 25.0947 28.3163 24.8217 28.632 24.4668C28.9477 24.112 29.1726 23.6858 29.2875 23.225C29.6125 21.9875 30 19.7125 30 15.95C30 12.1875 29.6125 9.9125 29.2875 8.675ZM20.275 16.3625L14.275 20.3625C14.1954 20.4211 14.0988 20.4518 14 20.45C13.9172 20.4469 13.8361 20.4256 13.7625 20.3875C13.6826 20.3459 13.6158 20.2831 13.5694 20.2058C13.5231 20.1286 13.4991 20.0401 13.5 19.95V11.95C13.4991 11.8599 13.5231 11.7714 13.5694 11.6942C13.6158 11.6169 13.6826 11.5541 13.7625 11.5125C13.8422 11.47 13.932 11.4498 14.0222 11.4542C14.1124 11.4587 14.1998 11.4874 14.275 11.5375L20.275 15.5375C20.3447 15.5814 20.4022 15.6423 20.442 15.7144C20.4818 15.7866 20.5027 15.8676 20.5027 15.95C20.5027 16.0324 20.4818 16.1135 20.442 16.1856C20.4022 16.2577 20.3447 16.3186 20.275 16.3625Z" fill="white"/>
</svg>
