<svg width="44" height="44" viewBox="0 0 44 44" fill="none" xmlns="http://www.w3.org/2000/svg">
<g clip-path="url(#clip0_5279_54735)">
<path d="M43.5922 10.0959C43.4055 9.34703 43.04 8.65459 42.527 8.07794C42.014 7.50129 41.3689 7.05762 40.6469 6.78497C33.7 4.10372 22.6094 4.12403 22 4.12403C21.3906 4.12403 10.3 4.10372 3.35313 6.78497C2.6311 7.05762 1.98595 7.50129 1.47298 8.07794C0.960008 8.65459 0.59451 9.34703 0.407813 10.0959C-0.120312 12.1068 -0.75 15.8037 -0.75 21.9178C-0.75 28.0318 -0.120312 31.7287 0.407813 33.7397C0.59451 34.4885 0.960008 35.181 1.47298 35.7576C1.98595 36.3343 2.6311 36.7779 3.35313 37.0506C10.0156 39.6303 20.4563 39.7115 21.8578 39.7115H22.1422C23.5437 39.7115 33.9844 39.6303 40.6469 37.0506C41.3689 36.7779 42.014 36.3343 42.527 35.7576C43.04 35.181 43.4055 34.4885 43.5922 33.7397C44.1203 31.7287 44.75 28.0318 44.75 21.9178C44.75 15.8037 44.1203 12.1068 43.5922 10.0959ZM28.9469 22.5881L19.1969 29.0881C19.0676 29.1833 18.9105 29.2332 18.75 29.2303C18.6154 29.2253 18.4837 29.1906 18.3641 29.1287C18.2342 29.0612 18.1256 28.959 18.0504 28.8335C17.9751 28.708 17.936 28.5641 17.9375 28.4178V15.4178C17.936 15.2714 17.9751 15.1275 18.0504 15.0021C18.1256 14.8766 18.2342 14.7744 18.3641 14.7068C18.4936 14.6377 18.6394 14.605 18.7861 14.6122C18.9327 14.6193 19.0747 14.6661 19.1969 14.7475L28.9469 21.2475C29.0602 21.3188 29.1535 21.4177 29.2182 21.535C29.2829 21.6522 29.3169 21.7839 29.3169 21.9178C29.3169 22.0517 29.2829 22.1834 29.2182 22.3006C29.1535 22.4178 29.0602 22.5167 28.9469 22.5881Z" fill="white"/>
</g>
<defs>
<clipPath id="clip0_5279_54735">
<rect width="44" height="44" fill="white"/>
</clipPath>
</defs>
</svg>
