<?xml version="1.0" standalone="no"?>
<!DOCTYPE svg PUBLIC "-//W3C//DTD SVG 20010904//EN"
 "http://www.w3.org/TR/2001/REC-SVG-20010904/DTD/svg10.dtd">
<svg version="1.0" xmlns="http://www.w3.org/2000/svg"
 width="256.000000pt" height="256.000000pt" viewBox="0 0 256.000000 256.000000"
 preserveAspectRatio="xMidYMid meet">
<metadata>
Created by potrace 1.14, written by Peter Selinger 2001-2017
</metadata>
<g transform="translate(0.000000,256.000000) scale(0.100000,-0.100000)"
fill="#000000" stroke="none">
<path d="M504 2545 c-188 -42 -355 -174 -439 -350 -66 -137 -66 -134 -63 -949
l3 -731 27 -73 c61 -167 174 -298 320 -370 148 -74 137 -73 962 -70 l731 3 73
27 c167 61 298 174 370 320 74 148 73 137 70 962 l-3 731 -27 73 c-61 167
-174 298 -319 370 -147 73 -141 72 -937 71 -549 -1 -721 -4 -768 -14z m1130
-550 c159 -34 290 -131 336 -250 45 -120 36 -298 -21 -421 -54 -113 -167 -221
-279 -265 -30 -12 -59 -25 -63 -29 -5 -4 41 -95 101 -201 60 -107 114 -204
121 -216 l12 -23 -174 0 -173 0 -110 198 -111 197 -141 3 c-78 1 -142 1 -142
-1 0 -5 -69 -347 -75 -375 -5 -22 -7 -22 -171 -22 -153 0 -166 1 -162 18 2 9
67 329 144 709 l139 693 350 0 c269 0 366 -4 419 -15z"/>
<path d="M1136 1723 c-3 -10 -23 -112 -46 -228 -23 -115 -44 -218 -47 -229 -5
-17 4 -18 193 -14 170 4 206 7 250 25 120 47 177 130 178 256 0 105 -31 153
-121 187 -46 17 -78 20 -228 20 -157 0 -174 -2 -179 -17z"/>
</g>
</svg>
